<svg width="590" height="675" viewBox="0 0 590 675" fill="none" xmlns="http://www.w3.org/2000/svg">
<path d="M29.4448 302.78C29.6232 302.457 29.9639 302.251 30.3383 302.241L48.3438 301.763C48.7182 301.753 49.0697 301.939 49.2658 302.253L58.691 317.318C58.887 317.631 58.8978 318.023 58.7194 318.347L50.1392 333.891C49.9608 334.214 49.6201 334.419 49.2457 334.429L31.2402 334.908C30.8657 334.918 30.5142 334.731 30.3183 334.418L20.893 319.353C20.697 319.039 20.6862 318.647 20.8646 318.324L29.4448 302.78Z" stroke="#FFC700" stroke-opacity="0.11" stroke-width="0.547833" stroke-linecap="round" stroke-linejoin="round"/>
<path d="M120.371 448.114C120.549 447.791 120.89 447.585 121.264 447.575L139.27 447.097C139.644 447.087 139.996 447.274 140.192 447.587L149.617 462.652C149.813 462.965 149.824 463.357 149.645 463.681L141.065 479.225C140.887 479.548 140.546 479.753 140.171 479.763L122.166 480.242C121.791 480.252 121.44 480.065 121.244 479.752L111.819 464.687C111.623 464.373 111.612 463.981 111.79 463.658L120.371 448.114Z" stroke="#FFC700" stroke-opacity="0.11" stroke-width="0.547833" stroke-linecap="round" stroke-linejoin="round"/>
<path d="M114.618 251.567C114.796 251.244 115.137 251.039 115.511 251.029L133.517 250.55C133.891 250.54 134.242 250.727 134.439 251.04L143.864 266.105C144.06 266.419 144.071 266.811 143.892 267.134L135.312 282.678C135.134 283.001 134.793 283.207 134.418 283.217L116.413 283.696C116.038 283.705 115.687 283.519 115.491 283.205L106.066 268.14C105.87 267.827 105.859 267.435 106.037 267.111L114.618 251.567Z" stroke="#FFC700" stroke-opacity="0.11" stroke-width="0.547833" stroke-linecap="round" stroke-linejoin="round"/>
<path d="M205.543 396.901C205.722 396.578 206.063 396.373 206.437 396.363L224.442 395.884C224.817 395.874 225.168 396.061 225.364 396.374L234.79 411.439C234.986 411.753 234.996 412.145 234.818 412.468L226.238 428.012C226.059 428.335 225.719 428.541 225.344 428.551L207.339 429.03C206.964 429.039 206.613 428.853 206.417 428.539L196.992 413.474C196.796 413.161 196.785 412.769 196.963 412.445L205.543 396.901Z" stroke="#FFC700" stroke-opacity="0.11" stroke-width="0.547833" stroke-linecap="round" stroke-linejoin="round"/>
<path d="M199.681 200.181C199.86 199.857 200.2 199.652 200.575 199.642L218.58 199.163C218.955 199.153 219.306 199.34 219.502 199.653L228.927 214.719C229.123 215.032 229.134 215.424 228.956 215.747L220.376 231.291C220.197 231.615 219.857 231.82 219.482 231.83L201.477 232.309C201.102 232.319 200.751 232.132 200.555 231.818L191.129 216.753C190.933 216.44 190.923 216.048 191.101 215.725L199.681 200.181Z" stroke="#FFC700" stroke-opacity="0.11" stroke-width="0.547833" stroke-linecap="round" stroke-linejoin="round"/>
<path d="M290.607 345.515C290.786 345.191 291.126 344.986 291.501 344.976L309.506 344.497C309.881 344.487 310.232 344.674 310.428 344.988L319.853 360.053C320.049 360.366 320.06 360.758 319.882 361.081L311.301 376.625C311.123 376.949 310.782 377.154 310.408 377.164L292.402 377.643C292.028 377.653 291.677 377.466 291.481 377.153L282.055 362.087C281.859 361.774 281.848 361.382 282.027 361.059L290.607 345.515Z" stroke="#FFC700" stroke-opacity="0.11" stroke-width="0.547833" stroke-linecap="round" stroke-linejoin="round"/>
<path d="M284.8 148.881C284.978 148.558 285.319 148.352 285.693 148.342L303.699 147.864C304.073 147.854 304.424 148.04 304.621 148.354L314.046 163.419C314.242 163.732 314.253 164.124 314.074 164.448L305.494 179.992C305.316 180.315 304.975 180.52 304.6 180.53L286.595 181.009C286.22 181.019 285.869 180.832 285.673 180.519L276.248 165.454C276.052 165.14 276.041 164.748 276.219 164.425L284.8 148.881Z" stroke="#FFC700" stroke-opacity="0.11" stroke-width="0.547833" stroke-linecap="round" stroke-linejoin="round"/>
<path d="M375.725 294.215C375.904 293.892 376.245 293.686 376.619 293.676L394.624 293.198C394.999 293.188 395.35 293.375 395.546 293.688L404.972 308.753C405.168 309.066 405.178 309.458 405 309.782L396.42 325.326C396.241 325.649 395.901 325.854 395.526 325.864L377.521 326.343C377.146 326.353 376.795 326.166 376.599 325.853L367.174 310.788C366.978 310.474 366.967 310.082 367.145 309.759L375.725 294.215Z" stroke="#FFC700" stroke-opacity="0.15" stroke-width="0.547833" stroke-linecap="round" stroke-linejoin="round"/>
<path d="M316.058 230.068C316.236 229.745 316.577 229.54 316.951 229.53L334.957 229.051C335.331 229.041 335.683 229.228 335.879 229.541L345.304 244.606C345.5 244.919 345.511 245.312 345.332 245.635L336.752 261.179C336.574 261.502 336.233 261.708 335.858 261.718L317.853 262.196C317.478 262.206 317.127 262.019 316.931 261.706L307.506 246.641C307.31 246.328 307.299 245.936 307.477 245.612L316.058 230.068Z" stroke="#FFC700" stroke-opacity="0.11" stroke-width="0.547833" stroke-linecap="round" stroke-linejoin="round"/>
<path d="M406.983 375.402C407.162 375.079 407.503 374.874 407.877 374.864L425.882 374.385C426.257 374.375 426.608 374.562 426.804 374.875L436.23 389.94C436.426 390.254 436.436 390.646 436.258 390.969L427.678 406.513C427.499 406.836 427.159 407.042 426.784 407.052L408.779 407.531C408.404 407.54 408.053 407.354 407.857 407.04L398.432 391.975C398.236 391.662 398.225 391.27 398.403 390.946L406.983 375.402Z" stroke="#FFC700" stroke-opacity="0.08" stroke-width="0.547833" stroke-linecap="round" stroke-linejoin="round"/>
<path d="M230.994 281.455C231.172 281.132 231.513 280.927 231.887 280.917L249.893 280.438C250.267 280.428 250.619 280.615 250.815 280.928L260.24 295.993C260.436 296.306 260.447 296.699 260.268 297.022L251.688 312.566C251.51 312.889 251.169 313.094 250.795 313.104L232.789 313.583C232.415 313.593 232.063 313.406 231.867 313.093L222.442 298.028C222.246 297.715 222.235 297.322 222.414 296.999L230.994 281.455Z" stroke="#FFC700" stroke-opacity="0.11" stroke-width="0.547833" stroke-linecap="round" stroke-linejoin="round"/>
<path d="M321.92 426.789C322.098 426.466 322.439 426.261 322.813 426.251L340.819 425.772C341.193 425.762 341.545 425.949 341.741 426.262L351.166 441.327C351.362 441.64 351.373 442.033 351.194 442.356L342.614 457.9C342.436 458.223 342.095 458.429 341.721 458.438L323.715 458.917C323.341 458.927 322.989 458.74 322.793 458.427L313.368 443.362C313.172 443.049 313.161 442.656 313.339 442.333L321.92 426.789Z" stroke="#FFC700" stroke-opacity="0.15" stroke-width="0.547833" stroke-linecap="round" stroke-linejoin="round"/>
<path d="M145.821 332.667C146 332.344 146.341 332.139 146.715 332.129L164.72 331.65C165.095 331.64 165.446 331.827 165.642 332.14L175.068 347.205C175.264 347.519 175.274 347.911 175.096 348.234L166.516 363.778C166.337 364.101 165.997 364.307 165.622 364.317L147.617 364.795C147.242 364.805 146.891 364.619 146.695 364.305L137.27 349.24C137.074 348.927 137.063 348.535 137.241 348.211L145.821 332.667Z" stroke="#FFC700" stroke-opacity="0.11" stroke-width="0.547833" stroke-linecap="round" stroke-linejoin="round"/>
<path d="M236.747 478.001C236.926 477.678 237.266 477.473 237.641 477.463L255.646 476.984C256.021 476.974 256.372 477.161 256.568 477.474L265.994 492.539C266.189 492.853 266.2 493.245 266.022 493.568L257.442 509.112C257.263 509.436 256.923 509.641 256.548 509.651L238.543 510.13C238.168 510.14 237.817 509.953 237.621 509.639L228.195 494.574C227.999 494.261 227.989 493.869 228.167 493.545L236.747 478.001Z" stroke="#FFC700" stroke-opacity="0.11" stroke-width="0.547833" stroke-linecap="round" stroke-linejoin="round"/>
<path d="M60.7036 383.967C60.882 383.644 61.2228 383.438 61.5972 383.428L79.6027 382.949C79.9771 382.939 80.3286 383.126 80.5246 383.44L89.9499 398.505C90.1458 398.818 90.1566 399.21 89.9782 399.533L81.398 415.078C81.2196 415.401 80.8789 415.606 80.5045 415.616L62.499 416.095C62.1245 416.105 61.7731 415.918 61.5771 415.605L52.1518 400.539C51.9558 400.226 51.945 399.834 52.1234 399.511L60.7036 383.967Z" stroke="#FFC700" stroke-opacity="0.11" stroke-width="0.547833" stroke-linecap="round" stroke-linejoin="round"/>
<path d="M151.629 529.301C151.808 528.978 152.149 528.772 152.523 528.762L170.528 528.283C170.903 528.274 171.254 528.46 171.45 528.774L180.876 543.839C181.072 544.152 181.082 544.544 180.904 544.868L172.324 560.412C172.145 560.735 171.805 560.94 171.43 560.95L153.425 561.429C153.05 561.439 152.699 561.252 152.503 560.939L143.078 545.874C142.882 545.56 142.871 545.168 143.049 544.845L151.629 529.301Z" stroke="#FFC700" stroke-opacity="0.11" stroke-width="0.547833" stroke-linecap="round" stroke-linejoin="round"/>
<path d="M57.8175 285.68C57.9959 285.357 58.3366 285.151 58.711 285.141L76.7166 284.663C77.091 284.653 77.4424 284.839 77.6385 285.153L87.0637 300.218C87.2597 300.531 87.2705 300.923 87.0921 301.247L78.5119 316.791C78.3335 317.114 77.9928 317.319 77.6184 317.329L59.6129 317.808C59.2384 317.818 58.8869 317.631 58.691 317.318L49.2657 302.253C49.0697 301.939 49.0589 301.547 49.2373 301.224L57.8175 285.68Z" stroke="#FFC700" stroke-opacity="0.11" stroke-width="0.547833" stroke-linecap="round" stroke-linejoin="round"/>
<path d="M148.743 431.014C148.922 430.691 149.262 430.485 149.637 430.476L167.642 429.997C168.017 429.987 168.368 430.174 168.564 430.487L177.99 445.552C178.186 445.865 178.196 446.258 178.018 446.581L169.438 462.125C169.259 462.448 168.919 462.653 168.544 462.663L150.539 463.142C150.164 463.152 149.813 462.965 149.617 462.652L140.192 447.587C139.996 447.273 139.985 446.881 140.163 446.558L148.743 431.014Z" stroke="#FFC700" stroke-opacity="0.11" stroke-width="0.547833" stroke-linecap="round" stroke-linejoin="round"/>
<path d="M142.99 234.468C143.169 234.144 143.509 233.939 143.884 233.929L161.889 233.45C162.264 233.44 162.615 233.627 162.811 233.94L172.236 249.006C172.432 249.319 172.443 249.711 172.265 250.034L163.685 265.578C163.506 265.902 163.166 266.107 162.791 266.117L144.786 266.596C144.411 266.606 144.06 266.419 143.864 266.105L134.438 251.04C134.242 250.727 134.232 250.335 134.41 250.012L142.99 234.468Z" stroke="#FFC700" stroke-opacity="0.11" stroke-width="0.547833" stroke-linecap="round" stroke-linejoin="round"/>
<path d="M233.916 379.802C234.095 379.478 234.435 379.273 234.81 379.263L252.815 378.784C253.19 378.774 253.541 378.961 253.737 379.274L263.162 394.34C263.358 394.653 263.369 395.045 263.191 395.368L254.61 410.912C254.432 411.236 254.091 411.441 253.717 411.451L235.711 411.93C235.337 411.94 234.986 411.753 234.79 411.439L225.364 396.374C225.168 396.061 225.157 395.669 225.336 395.346L233.916 379.802Z" stroke="#FFC700" stroke-opacity="0.11" stroke-width="0.547833" stroke-linecap="round" stroke-linejoin="round"/>
<path d="M228.054 183.081C228.232 182.757 228.573 182.552 228.948 182.542L246.953 182.063C247.327 182.053 247.679 182.24 247.875 182.554L257.3 197.619C257.496 197.932 257.507 198.324 257.329 198.647L248.748 214.191C248.57 214.515 248.229 214.72 247.855 214.73L229.849 215.209C229.475 215.219 229.123 215.032 228.928 214.719L219.502 199.653C219.306 199.34 219.295 198.948 219.474 198.625L228.054 183.081Z" stroke="#FFC700" stroke-opacity="0.11" stroke-width="0.547833" stroke-linecap="round" stroke-linejoin="round"/>
<path d="M318.98 328.415C319.158 328.092 319.499 327.886 319.873 327.876L337.879 327.397C338.253 327.388 338.605 327.574 338.801 327.888L348.226 342.953C348.422 343.266 348.433 343.658 348.254 343.982L339.674 359.526C339.496 359.849 339.155 360.054 338.781 360.064L320.775 360.543C320.401 360.553 320.049 360.366 319.853 360.053L310.428 344.988C310.232 344.674 310.221 344.282 310.4 343.959L318.98 328.415Z" stroke="#FFC700" stroke-opacity="0.15" stroke-width="0.547833" stroke-linecap="round" stroke-linejoin="round"/>
<path d="M313.172 131.781C313.351 131.458 313.692 131.252 314.066 131.242L332.072 130.763C332.446 130.753 332.797 130.94 332.993 131.254L342.419 146.319C342.615 146.632 342.625 147.024 342.447 147.348L333.867 162.892C333.688 163.215 333.348 163.42 332.973 163.43L314.968 163.909C314.593 163.919 314.242 163.732 314.046 163.419L304.621 148.354C304.425 148.04 304.414 147.648 304.592 147.325L313.172 131.781Z" stroke="#FFC700" stroke-opacity="0.11" stroke-width="0.547833" stroke-linecap="round" stroke-linejoin="round"/>
<path d="M286.765 214.473C286.944 214.15 287.285 213.944 287.659 213.934L305.664 213.456C306.039 213.446 306.39 213.632 306.586 213.946L316.012 229.011C316.208 229.324 316.218 229.716 316.04 230.04L307.46 245.584C307.281 245.907 306.941 246.112 306.566 246.122L288.561 246.601C288.186 246.611 287.835 246.424 287.639 246.111L278.214 231.046C278.018 230.732 278.007 230.34 278.185 230.017L286.765 214.473Z" stroke="#FFC700" stroke-opacity="0.11" stroke-width="0.547833" stroke-linecap="round" stroke-linejoin="round"/>
<path d="M201.647 265.773C201.825 265.449 202.166 265.244 202.541 265.234L220.546 264.755C220.921 264.745 221.272 264.932 221.468 265.245L230.893 280.311C231.089 280.624 231.1 281.016 230.922 281.339L222.341 296.883C222.163 297.207 221.822 297.412 221.448 297.422L203.442 297.901C203.068 297.911 202.717 297.724 202.521 297.411L193.095 282.345C192.899 282.032 192.888 281.64 193.067 281.317L201.647 265.773Z" stroke="#FFC700" stroke-opacity="0.11" stroke-width="0.547833" stroke-linecap="round" stroke-linejoin="round"/>
<path d="M116.402 316.87C116.581 316.547 116.921 316.342 117.296 316.332L135.301 315.853C135.676 315.843 136.027 316.03 136.223 316.343L145.648 331.408C145.844 331.721 145.855 332.114 145.677 332.437L137.097 347.981C136.918 348.304 136.577 348.51 136.203 348.52L118.198 348.998C117.823 349.008 117.472 348.821 117.276 348.508L107.85 333.443C107.654 333.13 107.644 332.738 107.822 332.414L116.402 316.87Z" stroke="#FFC700" stroke-opacity="0.11" stroke-width="0.547833" stroke-linecap="round" stroke-linejoin="round"/>
<path d="M404.098 277.115C404.277 276.792 404.617 276.586 404.992 276.577L422.997 276.098C423.372 276.088 423.723 276.275 423.919 276.588L433.345 291.653C433.54 291.966 433.551 292.358 433.373 292.682L424.793 308.226C424.614 308.549 424.274 308.754 423.899 308.764L405.894 309.243C405.519 309.253 405.168 309.066 404.972 308.753L395.546 293.688C395.35 293.374 395.34 292.982 395.518 292.659L404.098 277.115Z" stroke="#FFC700" stroke-opacity="0.15" stroke-width="0.547833" stroke-linecap="round" stroke-linejoin="round"/>
<path d="M377.691 359.807C377.87 359.484 378.21 359.279 378.585 359.269L396.59 358.79C396.965 358.78 397.316 358.967 397.512 359.28L406.937 374.345C407.133 374.658 407.144 375.051 406.966 375.374L398.386 390.918C398.207 391.241 397.867 391.447 397.492 391.456L379.487 391.935C379.112 391.945 378.761 391.758 378.565 391.445L369.139 376.38C368.943 376.067 368.933 375.674 369.111 375.351L377.691 359.807Z" stroke="#FFC700" stroke-opacity="0.15" stroke-width="0.547833" stroke-linecap="round" stroke-linejoin="round"/>
<path d="M292.573 411.107C292.751 410.784 293.092 410.578 293.466 410.568L311.472 410.089C311.846 410.079 312.198 410.266 312.394 410.58L321.819 425.645C322.015 425.958 322.026 426.35 321.848 426.673L313.267 442.218C313.089 442.541 312.748 442.746 312.374 442.756L294.368 443.235C293.994 443.245 293.642 443.058 293.446 442.745L284.021 427.68C283.825 427.366 283.814 426.974 283.993 426.651L292.573 411.107Z" stroke="#FFC700" stroke-opacity="0.15" stroke-width="0.547833" stroke-linecap="round" stroke-linejoin="round"/>
<path d="M207.328 462.204C207.506 461.881 207.847 461.676 208.222 461.666L226.227 461.187C226.601 461.177 226.953 461.364 227.149 461.677L236.574 476.742C236.77 477.056 236.781 477.448 236.603 477.771L228.022 493.315C227.844 493.638 227.503 493.844 227.129 493.854L209.123 494.332C208.749 494.342 208.397 494.155 208.201 493.842L198.776 478.777C198.58 478.464 198.569 478.072 198.748 477.748L207.328 462.204Z" stroke="#FFC700" stroke-opacity="0.15" stroke-width="0.547833" stroke-linecap="round" stroke-linejoin="round"/>
<path d="M344.43 212.968C344.609 212.645 344.949 212.44 345.324 212.43L363.329 211.951C363.704 211.941 364.055 212.128 364.251 212.441L373.677 227.506C373.872 227.82 373.883 228.212 373.705 228.535L365.125 244.079C364.946 244.402 364.606 244.608 364.231 244.618L346.226 245.097C345.851 245.106 345.5 244.92 345.304 244.606L335.879 229.541C335.682 229.228 335.672 228.836 335.85 228.512L344.43 212.968Z" stroke="#FFC700" stroke-opacity="0.11" stroke-width="0.547833" stroke-linecap="round" stroke-linejoin="round"/>
<path d="M435.356 358.302C435.535 357.979 435.875 357.774 436.25 357.764L454.255 357.285C454.63 357.275 454.981 357.462 455.177 357.775L464.602 372.841C464.798 373.154 464.809 373.546 464.631 373.869L456.051 389.413C455.872 389.737 455.531 389.942 455.157 389.952L437.152 390.431C436.777 390.441 436.426 390.254 436.23 389.94L426.804 374.875C426.608 374.562 426.598 374.17 426.776 373.847L435.356 358.302Z" stroke="#FFC700" stroke-opacity="0.08" stroke-width="0.547833" stroke-linecap="round" stroke-linejoin="round"/>
<path d="M259.367 264.355C259.545 264.032 259.886 263.827 260.26 263.817L278.266 263.338C278.64 263.328 278.992 263.515 279.188 263.828L288.613 278.893C288.809 279.206 288.82 279.599 288.641 279.922L280.061 295.466C279.883 295.789 279.542 295.995 279.167 296.005L261.162 296.483C260.787 296.493 260.436 296.306 260.24 295.993L250.815 280.928C250.619 280.615 250.608 280.223 250.786 279.899L259.367 264.355Z" stroke="#FFC700" stroke-opacity="0.11" stroke-width="0.547833" stroke-linecap="round" stroke-linejoin="round"/>
<path d="M350.292 409.689C350.471 409.366 350.812 409.161 351.186 409.151L369.191 408.672C369.566 408.662 369.917 408.849 370.113 409.162L379.539 424.227C379.735 424.541 379.745 424.933 379.567 425.256L370.987 440.8C370.808 441.123 370.468 441.329 370.093 441.339L352.088 441.817C351.713 441.827 351.362 441.64 351.166 441.327L341.741 426.262C341.545 425.949 341.534 425.557 341.712 425.233L350.292 409.689Z" stroke="#FFC700" stroke-opacity="0.15" stroke-width="0.547833" stroke-linecap="round" stroke-linejoin="round"/>
<path d="M174.194 315.567C174.373 315.244 174.713 315.039 175.088 315.029L193.093 314.55C193.468 314.54 193.819 314.727 194.015 315.04L203.44 330.105C203.636 330.419 203.647 330.811 203.469 331.134L194.889 346.678C194.71 347.001 194.369 347.207 193.995 347.217L175.99 347.696C175.615 347.705 175.264 347.519 175.068 347.205L165.642 332.14C165.446 331.827 165.436 331.435 165.614 331.111L174.194 315.567Z" stroke="#FFC700" stroke-opacity="0.11" stroke-width="0.547833" stroke-linecap="round" stroke-linejoin="round"/>
<path d="M265.12 460.902C265.298 460.578 265.639 460.373 266.014 460.363L284.019 459.884C284.393 459.874 284.745 460.061 284.941 460.374L294.366 475.44C294.562 475.753 294.573 476.145 294.395 476.468L285.814 492.012C285.636 492.336 285.295 492.541 284.921 492.551L266.915 493.03C266.541 493.04 266.189 492.853 265.994 492.539L256.568 477.474C256.372 477.161 256.361 476.769 256.54 476.446L265.12 460.902Z" stroke="#FFC700" stroke-opacity="0.08" stroke-width="0.547833" stroke-linecap="round" stroke-linejoin="round"/>
<path d="M89.0764 366.867C89.2548 366.544 89.5955 366.338 89.9699 366.328L107.975 365.849C108.35 365.84 108.701 366.026 108.897 366.34L118.323 381.405C118.519 381.718 118.529 382.11 118.351 382.434L109.771 397.978C109.592 398.301 109.252 398.506 108.877 398.516L90.8717 398.995C90.4972 399.005 90.1458 398.818 89.9498 398.505L80.5246 383.44C80.3285 383.126 80.3177 382.734 80.4962 382.411L89.0764 366.867Z" stroke="#FFC700" stroke-opacity="0.11" stroke-width="0.547833" stroke-linecap="round" stroke-linejoin="round"/>
<path d="M180.002 512.201C180.181 511.878 180.521 511.672 180.896 511.662L198.901 511.184C199.276 511.174 199.627 511.36 199.823 511.674L209.248 526.739C209.444 527.052 209.455 527.444 209.277 527.768L200.696 543.312C200.518 543.635 200.177 543.84 199.803 543.85L181.797 544.329C181.423 544.339 181.072 544.152 180.876 543.839L171.45 528.774C171.254 528.46 171.243 528.068 171.422 527.745L180.002 512.201Z" stroke="#FFC700" stroke-opacity="0.11" stroke-width="0.547833" stroke-linecap="round" stroke-linejoin="round"/>
<path d="M28.4706 269.998C28.649 269.674 28.9898 269.469 29.3642 269.459L47.3697 268.98C47.7441 268.97 48.0956 269.157 48.2916 269.471L57.7168 284.536C57.9128 284.849 57.9236 285.241 57.7452 285.564L49.165 301.108C48.9866 301.432 48.6459 301.637 48.2715 301.647L30.266 302.126C29.8915 302.136 29.5401 301.949 29.3441 301.636L19.9188 286.57C19.7228 286.257 19.712 285.865 19.8904 285.542L28.4706 269.998Z" stroke="#FFC700" stroke-opacity="0.11" stroke-width="0.547833" stroke-linecap="round" stroke-linejoin="round"/>
<path d="M119.396 415.332C119.575 415.009 119.916 414.803 120.29 414.793L138.296 414.314C138.67 414.304 139.021 414.491 139.217 414.805L148.643 429.87C148.839 430.183 148.849 430.575 148.671 430.898L140.091 446.443C139.912 446.766 139.572 446.971 139.197 446.981L121.192 447.46C120.817 447.47 120.466 447.283 120.27 446.97L110.845 431.904C110.649 431.591 110.638 431.199 110.816 430.876L119.396 415.332Z" stroke="#FFC700" stroke-opacity="0.11" stroke-width="0.547833" stroke-linecap="round" stroke-linejoin="round"/>
<path d="M113.643 218.785C113.822 218.462 114.163 218.257 114.537 218.247L132.542 217.768C132.917 217.758 133.268 217.945 133.464 218.258L142.89 233.323C143.086 233.636 143.096 234.029 142.918 234.352L134.338 249.896C134.159 250.219 133.819 250.425 133.444 250.434L115.439 250.913C115.064 250.923 114.713 250.736 114.517 250.423L105.092 235.358C104.896 235.045 104.885 234.652 105.063 234.329L113.643 218.785Z" stroke="#FFC700" stroke-opacity="0.11" stroke-width="0.547833" stroke-linecap="round" stroke-linejoin="round"/>
<path d="M204.569 364.119C204.748 363.796 205.088 363.591 205.463 363.581L223.468 363.102C223.843 363.092 224.194 363.279 224.39 363.592L233.816 378.657C234.011 378.971 234.022 379.363 233.844 379.686L225.264 395.23C225.085 395.553 224.745 395.759 224.37 395.769L206.365 396.247C205.99 396.257 205.639 396.07 205.443 395.757L196.017 380.692C195.821 380.379 195.811 379.987 195.989 379.663L204.569 364.119Z" stroke="#FFC700" stroke-opacity="0.11" stroke-width="0.547833" stroke-linecap="round" stroke-linejoin="round"/>
<path d="M198.707 167.398C198.886 167.075 199.226 166.87 199.601 166.86L217.606 166.381C217.981 166.371 218.332 166.558 218.528 166.871L227.953 181.936C228.149 182.25 228.16 182.642 227.982 182.965L219.402 198.509C219.223 198.832 218.882 199.038 218.508 199.048L200.503 199.526C200.128 199.536 199.777 199.349 199.581 199.036L190.155 183.971C189.959 183.658 189.948 183.266 190.127 182.942L198.707 167.398Z" stroke="#FFC700" stroke-opacity="0.11" stroke-width="0.547833" stroke-linecap="round" stroke-linejoin="round"/>
<path d="M289.633 312.732C289.811 312.409 290.152 312.204 290.526 312.194L308.532 311.715C308.906 311.705 309.258 311.892 309.454 312.205L318.879 327.27C319.075 327.584 319.086 327.976 318.908 328.299L310.327 343.843C310.149 344.166 309.808 344.372 309.434 344.382L291.428 344.861C291.054 344.87 290.702 344.684 290.506 344.37L281.081 329.305C280.885 328.992 280.874 328.6 281.053 328.276L289.633 312.732Z" stroke="#FFC700" stroke-opacity="0.11" stroke-width="0.547833" stroke-linecap="round" stroke-linejoin="round"/>
<path d="M283.825 116.099C284.004 115.775 284.345 115.57 284.719 115.56L302.724 115.081C303.099 115.071 303.45 115.258 303.646 115.571L313.072 130.637C313.268 130.95 313.278 131.342 313.1 131.665L304.52 147.209C304.341 147.533 304.001 147.738 303.626 147.748L285.621 148.227C285.246 148.237 284.895 148.05 284.699 147.737L275.274 132.671C275.078 132.358 275.067 131.966 275.245 131.643L283.825 116.099Z" stroke="#FFC700" stroke-opacity="0.11" stroke-width="0.547833" stroke-linecap="round" stroke-linejoin="round"/>
<path d="M374.751 261.433C374.93 261.11 375.27 260.904 375.645 260.894L393.65 260.415C394.025 260.405 394.376 260.592 394.572 260.906L403.997 275.971C404.193 276.284 404.204 276.676 404.026 276.999L395.446 292.544C395.267 292.867 394.927 293.072 394.552 293.082L376.547 293.561C376.172 293.571 375.821 293.384 375.625 293.071L366.199 278.005C366.003 277.692 365.993 277.3 366.171 276.977L374.751 261.433Z" stroke="#FFC700" stroke-opacity="0.15" stroke-width="0.547833" stroke-linecap="round" stroke-linejoin="round"/>
<path d="M255.453 133.199C255.631 132.875 255.972 132.67 256.346 132.66L274.352 132.181C274.726 132.171 275.077 132.358 275.274 132.671L284.699 147.737C284.895 148.05 284.906 148.442 284.727 148.765L276.147 164.309C275.969 164.633 275.628 164.838 275.253 164.848L257.248 165.327C256.873 165.337 256.522 165.15 256.326 164.837L246.901 149.771C246.705 149.458 246.694 149.066 246.872 148.743L255.453 133.199Z" stroke="#FFC700" stroke-opacity="0.11" stroke-width="0.547833" stroke-linecap="round" stroke-linejoin="round"/>
<path d="M346.378 278.533C346.557 278.209 346.898 278.004 347.272 277.994L365.277 277.515C365.652 277.505 366.003 277.692 366.199 278.006L375.625 293.071C375.821 293.384 375.831 293.776 375.653 294.099L367.073 309.643C366.894 309.967 366.554 310.172 366.179 310.182L348.174 310.661C347.799 310.671 347.448 310.484 347.252 310.171L337.827 295.105C337.631 294.792 337.62 294.4 337.798 294.077L346.378 278.533Z" stroke="#FFC700" stroke-opacity="0.08" stroke-width="0.547833" stroke-linecap="round" stroke-linejoin="round"/>
<path d="M316.978 262.764C317.156 262.44 317.497 262.235 317.871 262.225L335.877 261.746C336.251 261.736 336.603 261.923 336.799 262.236L346.224 277.302C346.42 277.615 346.431 278.007 346.252 278.33L337.672 293.874C337.494 294.198 337.153 294.403 336.778 294.413L318.773 294.892C318.398 294.902 318.047 294.715 317.851 294.401L308.426 279.336C308.23 279.023 308.219 278.631 308.397 278.308L316.978 262.764Z" stroke="#FFC700" stroke-opacity="0.11" stroke-width="0.547833" stroke-linecap="round" stroke-linejoin="round"/>
<path d="M407.903 408.098C408.082 407.774 408.423 407.569 408.797 407.559L426.802 407.08C427.177 407.07 427.528 407.257 427.724 407.57L437.15 422.636C437.346 422.949 437.356 423.341 437.178 423.664L428.598 439.208C428.419 439.532 428.079 439.737 427.704 439.747L409.699 440.226C409.324 440.236 408.973 440.049 408.777 439.736L399.352 424.67C399.156 424.357 399.145 423.965 399.323 423.642L407.903 408.098Z" stroke="#FFC700" stroke-opacity="0.08" stroke-width="0.547833" stroke-linecap="round" stroke-linejoin="round"/>
<path d="M231.86 314.063C232.038 313.74 232.379 313.535 232.753 313.525L250.759 313.046C251.133 313.036 251.484 313.223 251.68 313.536L261.106 328.601C261.302 328.914 261.313 329.307 261.134 329.63L252.554 345.174C252.376 345.497 252.035 345.703 251.66 345.712L233.655 346.191C233.28 346.201 232.929 346.014 232.733 345.701L223.308 330.636C223.112 330.323 223.101 329.93 223.279 329.607L231.86 314.063Z" stroke="#FFC700" stroke-opacity="0.11" stroke-width="0.547833" stroke-linecap="round" stroke-linejoin="round"/>
<path d="M322.785 459.397C322.964 459.074 323.305 458.869 323.679 458.859L341.684 458.38C342.059 458.37 342.41 458.557 342.606 458.87L352.032 473.935C352.228 474.248 352.238 474.641 352.06 474.964L343.48 490.508C343.301 490.831 342.961 491.037 342.586 491.046L324.581 491.525C324.206 491.535 323.855 491.348 323.659 491.035L314.234 475.97C314.038 475.657 314.027 475.264 314.205 474.941L322.785 459.397Z" stroke="#FFC700" stroke-opacity="0.15" stroke-width="0.547833" stroke-linecap="round" stroke-linejoin="round"/>
<path d="M146.741 365.363C146.919 365.04 147.26 364.834 147.634 364.825L165.64 364.346C166.014 364.336 166.366 364.523 166.562 364.836L175.987 379.901C176.183 380.214 176.194 380.607 176.016 380.93L167.435 396.474C167.257 396.797 166.916 397.002 166.542 397.012L148.536 397.491C148.162 397.501 147.81 397.314 147.614 397.001L138.189 381.936C137.993 381.622 137.982 381.23 138.161 380.907L146.741 365.363Z" stroke="#FFC700" stroke-opacity="0.11" stroke-width="0.547833" stroke-linecap="round" stroke-linejoin="round"/>
<path d="M237.667 510.697C237.845 510.374 238.186 510.169 238.56 510.159L256.566 509.68C256.94 509.67 257.292 509.857 257.488 510.17L266.913 525.235C267.109 525.548 267.12 525.941 266.941 526.264L258.361 541.808C258.183 542.131 257.842 542.336 257.468 542.346L239.462 542.825C239.088 542.835 238.736 542.648 238.54 542.335L229.115 527.27C228.919 526.957 228.908 526.564 229.087 526.241L237.667 510.697Z" stroke="#FFC700" stroke-opacity="0.11" stroke-width="0.547833" stroke-linecap="round" stroke-linejoin="round"/>
<path d="M315.083 197.286C315.262 196.963 315.603 196.758 315.977 196.748L333.982 196.269C334.357 196.259 334.708 196.446 334.904 196.759L344.33 211.824C344.526 212.137 344.536 212.53 344.358 212.853L335.778 228.397C335.599 228.72 335.259 228.926 334.884 228.935L316.879 229.414C316.504 229.424 316.153 229.237 315.957 228.924L306.532 213.859C306.336 213.546 306.325 213.153 306.503 212.83L315.083 197.286Z" stroke="#FFC700" stroke-opacity="0.11" stroke-width="0.547833" stroke-linecap="round" stroke-linejoin="round"/>
<path d="M406.009 342.62C406.188 342.297 406.528 342.092 406.903 342.082L424.908 341.603C425.283 341.593 425.634 341.78 425.83 342.093L435.255 357.158C435.451 357.471 435.462 357.864 435.284 358.187L426.704 373.731C426.525 374.054 426.185 374.26 425.81 374.269L407.805 374.748C407.43 374.758 407.079 374.571 406.883 374.258L397.457 359.193C397.261 358.88 397.251 358.487 397.429 358.164L406.009 342.62Z" stroke="#FFC700" stroke-opacity="0.15" stroke-width="0.547833" stroke-linecap="round" stroke-linejoin="round"/>
<path d="M230.02 248.673C230.198 248.35 230.539 248.144 230.913 248.134L248.919 247.656C249.293 247.646 249.645 247.833 249.841 248.146L259.266 263.211C259.462 263.524 259.473 263.916 259.294 264.24L250.714 279.784C250.536 280.107 250.195 280.312 249.821 280.322L231.815 280.801C231.441 280.811 231.089 280.624 230.893 280.311L221.468 265.246C221.272 264.932 221.261 264.54 221.44 264.217L230.02 248.673Z" stroke="#FFC700" stroke-opacity="0.11" stroke-width="0.547833" stroke-linecap="round" stroke-linejoin="round"/>
<path d="M320.946 394.007C321.124 393.684 321.465 393.478 321.839 393.469L339.845 392.99C340.219 392.98 340.571 393.167 340.767 393.48L350.192 408.545C350.388 408.858 350.399 409.25 350.22 409.574L341.64 425.118C341.462 425.441 341.121 425.646 340.746 425.656L322.741 426.135C322.366 426.145 322.015 425.958 321.819 425.645L312.394 410.58C312.198 410.266 312.187 409.874 312.365 409.551L320.946 394.007Z" stroke="#FFC700" stroke-opacity="0.15" stroke-width="0.547833" stroke-linecap="round" stroke-linejoin="round"/>
<path d="M144.847 299.885C145.026 299.562 145.366 299.357 145.741 299.347L163.746 298.868C164.121 298.858 164.472 299.045 164.668 299.358L174.094 314.423C174.29 314.736 174.3 315.129 174.122 315.452L165.542 330.996C165.363 331.319 165.023 331.525 164.648 331.534L146.643 332.013C146.268 332.023 145.917 331.836 145.721 331.523L136.296 316.458C136.1 316.145 136.089 315.752 136.267 315.429L144.847 299.885Z" stroke="#FFC700" stroke-opacity="0.11" stroke-width="0.547833" stroke-linecap="round" stroke-linejoin="round"/>
<path d="M235.773 445.219C235.952 444.896 236.292 444.691 236.667 444.681L254.672 444.202C255.047 444.192 255.398 444.379 255.594 444.692L265.019 459.757C265.215 460.07 265.226 460.463 265.048 460.786L256.468 476.33C256.289 476.653 255.948 476.859 255.574 476.869L237.569 477.347C237.194 477.357 236.843 477.17 236.647 476.857L227.221 461.792C227.025 461.479 227.015 461.087 227.193 460.763L235.773 445.219Z" stroke="#FFC700" stroke-opacity="0.11" stroke-width="0.547833" stroke-linecap="round" stroke-linejoin="round"/>
<path d="M59.7295 351.185C59.9079 350.861 60.2486 350.656 60.623 350.646L78.6285 350.167C79.0029 350.157 79.3544 350.344 79.5504 350.657L88.9757 365.723C89.1717 366.036 89.1824 366.428 89.0041 366.751L80.4238 382.295C80.2455 382.619 79.9048 382.824 79.5303 382.834L61.5248 383.313C61.1504 383.323 60.7989 383.136 60.6029 382.822L51.1777 367.757C50.9817 367.444 50.9708 367.052 51.1493 366.729L59.7295 351.185Z" stroke="#FFC700" stroke-opacity="0.11" stroke-width="0.547833" stroke-linecap="round" stroke-linejoin="round"/>
<path d="M150.655 496.519C150.834 496.195 151.174 495.99 151.549 495.98L169.554 495.501C169.929 495.491 170.28 495.678 170.476 495.992L179.902 511.057C180.097 511.37 180.108 511.762 179.93 512.085L171.35 527.629C171.171 527.953 170.831 528.158 170.456 528.168L152.451 528.647C152.076 528.657 151.725 528.47 151.529 528.157L142.103 513.091C141.907 512.778 141.897 512.386 142.075 512.063L150.655 496.519Z" stroke="#FFC700" stroke-opacity="0.11" stroke-width="0.547833" stroke-linecap="round" stroke-linejoin="round"/>
<path d="M56.8434 252.898C57.0218 252.574 57.3626 252.369 57.737 252.359L75.7425 251.88C76.1169 251.87 76.4684 252.057 76.6644 252.371L86.0896 267.436C86.2856 267.749 86.2964 268.141 86.118 268.464L77.5378 284.008C77.3594 284.332 77.0187 284.537 76.6443 284.547L58.6388 285.026C58.2643 285.036 57.9129 284.849 57.7169 284.536L48.2916 269.47C48.0956 269.157 48.0848 268.765 48.2632 268.442L56.8434 252.898Z" stroke="#FFC700" stroke-opacity="0.11" stroke-width="0.547833" stroke-linecap="round" stroke-linejoin="round"/>
<path d="M85.2166 235.798C85.395 235.474 85.7357 235.269 86.1101 235.259L104.116 234.78C104.49 234.77 104.842 234.957 105.038 235.27L114.463 250.336C114.659 250.649 114.67 251.041 114.491 251.364L105.911 266.908C105.733 267.232 105.392 267.437 105.017 267.447L87.012 267.926C86.6375 267.936 86.286 267.749 86.0901 267.436L76.6648 252.37C76.4688 252.057 76.4579 251.665 76.6364 251.342L85.2166 235.798Z" stroke="#FFC700" stroke-opacity="0.11" stroke-width="0.547833" stroke-linecap="round" stroke-linejoin="round"/>
<path d="M170.389 184.585C170.568 184.262 170.908 184.057 171.283 184.047L189.288 183.568C189.663 183.558 190.014 183.745 190.21 184.058L199.635 199.123C199.831 199.436 199.842 199.829 199.664 200.152L191.083 215.696C190.905 216.019 190.564 216.225 190.19 216.234L172.184 216.713C171.81 216.723 171.459 216.536 171.263 216.223L161.837 201.158C161.641 200.845 161.63 200.452 161.809 200.129L170.389 184.585Z" stroke="#FFC700" stroke-opacity="0.11" stroke-width="0.547833" stroke-linecap="round" stroke-linejoin="round"/>
<path d="M147.769 398.232C147.948 397.909 148.288 397.703 148.663 397.693L166.668 397.214C167.043 397.205 167.394 397.391 167.59 397.705L177.015 412.77C177.211 413.083 177.222 413.475 177.044 413.799L168.464 429.343C168.285 429.666 167.944 429.871 167.57 429.881L149.565 430.36C149.19 430.37 148.839 430.183 148.643 429.87L139.217 414.805C139.021 414.491 139.011 414.099 139.189 413.776L147.769 398.232Z" stroke="#FFC700" stroke-opacity="0.11" stroke-width="0.547833" stroke-linecap="round" stroke-linejoin="round"/>
<path d="M176.142 381.132C176.321 380.808 176.662 380.603 177.036 380.593L195.041 380.114C195.416 380.104 195.767 380.291 195.963 380.605L205.389 395.67C205.585 395.983 205.595 396.375 205.417 396.698L196.837 412.242C196.658 412.566 196.318 412.771 195.943 412.781L177.938 413.26C177.563 413.27 177.212 413.083 177.016 412.77L167.591 397.704C167.395 397.391 167.384 396.999 167.562 396.676L176.142 381.132Z" stroke="#FFC700" stroke-opacity="0.11" stroke-width="0.547833" stroke-linecap="round" stroke-linejoin="round"/>
<path d="M261.315 329.919C261.493 329.596 261.834 329.391 262.208 329.381L280.214 328.902C280.588 328.892 280.94 329.079 281.136 329.392L290.561 344.457C290.757 344.771 290.768 345.163 290.59 345.486L282.009 361.03C281.831 361.353 281.49 361.559 281.116 361.569L263.11 362.047C262.736 362.057 262.384 361.87 262.188 361.557L252.763 346.492C252.567 346.179 252.556 345.787 252.735 345.463L261.315 329.919Z" stroke="#FFC700" stroke-opacity="0.11" stroke-width="0.547833" stroke-linecap="round" stroke-linejoin="round"/>
<path d="M142.016 201.685C142.195 201.362 142.535 201.157 142.91 201.147L160.915 200.668C161.29 200.658 161.641 200.845 161.837 201.158L171.262 216.223C171.458 216.537 171.469 216.929 171.291 217.252L162.711 232.796C162.532 233.119 162.191 233.325 161.817 233.335L143.812 233.813C143.437 233.823 143.086 233.636 142.89 233.323L133.464 218.258C133.268 217.945 133.258 217.553 133.436 217.229L142.016 201.685Z" stroke="#FFC700" stroke-opacity="0.11" stroke-width="0.547833" stroke-linecap="round" stroke-linejoin="round"/>
<path d="M232.942 347.019C233.12 346.696 233.461 346.491 233.836 346.481L251.841 346.002C252.215 345.992 252.567 346.179 252.763 346.492L262.188 361.557C262.384 361.871 262.395 362.263 262.217 362.586L253.636 378.13C253.458 378.453 253.117 378.659 252.743 378.669L234.737 379.147C234.363 379.157 234.011 378.97 233.816 378.657L224.39 363.592C224.194 363.279 224.183 362.887 224.362 362.563L232.942 347.019Z" stroke="#FFC700" stroke-opacity="0.11" stroke-width="0.547833" stroke-linecap="round" stroke-linejoin="round"/>
<path d="M227.08 150.298C227.258 149.975 227.599 149.77 227.973 149.76L245.979 149.281C246.353 149.271 246.705 149.458 246.901 149.771L256.326 164.836C256.522 165.15 256.533 165.542 256.354 165.865L247.774 181.409C247.596 181.733 247.255 181.938 246.881 181.948L228.875 182.427C228.501 182.437 228.149 182.25 227.953 181.936L218.528 166.871C218.332 166.558 218.321 166.166 218.5 165.842L227.08 150.298Z" stroke="#FFC700" stroke-opacity="0.11" stroke-width="0.547833" stroke-linecap="round" stroke-linejoin="round"/>
<path d="M318.006 295.633C318.184 295.309 318.525 295.104 318.899 295.094L336.905 294.615C337.279 294.605 337.631 294.792 337.827 295.105L347.252 310.171C347.448 310.484 347.459 310.876 347.28 311.199L338.7 326.743C338.522 327.067 338.181 327.272 337.807 327.282L319.801 327.761C319.427 327.771 319.075 327.584 318.879 327.27L309.454 312.205C309.258 311.892 309.247 311.5 309.426 311.177L318.006 295.633Z" stroke="#FFC700" stroke-opacity="0.11" stroke-width="0.547833" stroke-linecap="round" stroke-linejoin="round"/>
<path d="M312.198 98.9989C312.376 98.6757 312.717 98.4703 313.092 98.4604L331.097 97.9815C331.472 97.9716 331.823 98.1584 332.019 98.4718L341.444 113.537C341.64 113.85 341.651 114.242 341.473 114.566L332.892 130.11C332.714 130.433 332.373 130.638 331.999 130.648L313.993 131.127C313.619 131.137 313.268 130.95 313.072 130.637L303.646 115.572C303.45 115.258 303.439 114.866 303.618 114.543L312.198 98.9989Z" stroke="#FFC700" stroke-opacity="0.11" stroke-width="0.547833" stroke-linecap="round" stroke-linejoin="round"/>
<path d="M285.791 181.691C285.969 181.368 286.31 181.162 286.685 181.152L304.69 180.674C305.064 180.664 305.416 180.85 305.612 181.164L315.037 196.229C315.233 196.542 315.244 196.934 315.066 197.258L306.485 212.802C306.307 213.125 305.966 213.33 305.592 213.34L287.586 213.819C287.212 213.829 286.86 213.642 286.665 213.329L277.239 198.264C277.043 197.95 277.032 197.558 277.211 197.235L285.791 181.691Z" stroke="#FFC700" stroke-opacity="0.11" stroke-width="0.547833" stroke-linecap="round" stroke-linejoin="round"/>
<path d="M200.673 232.991C200.851 232.668 201.192 232.462 201.566 232.452L219.572 231.973C219.946 231.963 220.298 232.15 220.494 232.464L229.919 247.529C230.115 247.842 230.126 248.234 229.947 248.557L221.367 264.102C221.189 264.425 220.848 264.63 220.474 264.64L202.468 265.119C202.094 265.129 201.742 264.942 201.546 264.629L192.121 249.563C191.925 249.25 191.914 248.858 192.093 248.535L200.673 232.991Z" stroke="#FFC700" stroke-opacity="0.11" stroke-width="0.547833" stroke-linecap="round" stroke-linejoin="round"/>
<path d="M115.428 284.088C115.606 283.765 115.947 283.56 116.322 283.55L134.327 283.071C134.702 283.061 135.053 283.248 135.249 283.561L144.674 298.626C144.87 298.939 144.881 299.332 144.703 299.655L136.122 315.199C135.944 315.522 135.603 315.728 135.229 315.737L117.223 316.216C116.849 316.226 116.498 316.039 116.302 315.726L106.876 300.661C106.68 300.348 106.669 299.955 106.848 299.632L115.428 284.088Z" stroke="#FFC700" stroke-opacity="0.11" stroke-width="0.547833" stroke-linecap="round" stroke-linejoin="round"/>
<path d="M403.124 244.333C403.302 244.01 403.643 243.804 404.017 243.794L422.023 243.316C422.397 243.306 422.749 243.492 422.945 243.806L432.37 258.871C432.566 259.184 432.577 259.576 432.398 259.9L423.818 275.444C423.64 275.767 423.299 275.972 422.925 275.982L404.919 276.461C404.545 276.471 404.193 276.284 403.997 275.971L394.572 260.906C394.376 260.592 394.365 260.2 394.544 259.877L403.124 244.333Z" stroke="#FFC700" stroke-opacity="0.15" stroke-width="0.547833" stroke-linecap="round" stroke-linejoin="round"/>
<path d="M376.717 327.025C376.895 326.702 377.236 326.496 377.61 326.487L395.616 326.008C395.99 325.998 396.342 326.185 396.538 326.498L405.963 341.563C406.159 341.876 406.17 342.269 405.991 342.592L397.411 358.136C397.233 358.459 396.892 358.664 396.518 358.674L378.512 359.153C378.138 359.163 377.786 358.976 377.59 358.663L368.165 343.598C367.969 343.284 367.958 342.892 368.137 342.569L376.717 327.025Z" stroke="#FFC700" stroke-opacity="0.15" stroke-width="0.547833" stroke-linecap="round" stroke-linejoin="round"/>
<path d="M291.599 378.325C291.777 378.001 292.118 377.796 292.492 377.786L310.498 377.307C310.872 377.297 311.223 377.484 311.419 377.798L320.845 392.863C321.041 393.176 321.051 393.568 320.873 393.891L312.293 409.435C312.115 409.759 311.774 409.964 311.399 409.974L293.394 410.453C293.019 410.463 292.668 410.276 292.472 409.963L283.047 394.897C282.851 394.584 282.84 394.192 283.018 393.869L291.599 378.325Z" stroke="#FFC700" stroke-opacity="0.15" stroke-width="0.547833" stroke-linecap="round" stroke-linejoin="round"/>
<path d="M206.354 429.422C206.532 429.099 206.873 428.894 207.247 428.884L225.253 428.405C225.627 428.395 225.979 428.582 226.175 428.895L235.6 443.96C235.796 444.273 235.807 444.666 235.629 444.989L227.048 460.533C226.87 460.856 226.529 461.062 226.155 461.071L208.149 461.55C207.775 461.56 207.423 461.373 207.227 461.06L197.802 445.995C197.606 445.682 197.595 445.289 197.774 444.966L206.354 429.422Z" stroke="#FFC700" stroke-opacity="0.15" stroke-width="0.547833" stroke-linecap="round" stroke-linejoin="round"/>
<path d="M343.456 180.186C343.635 179.863 343.975 179.658 344.35 179.648L362.355 179.169C362.73 179.159 363.081 179.346 363.277 179.659L372.702 194.724C372.898 195.037 372.909 195.43 372.731 195.753L364.151 211.297C363.972 211.62 363.631 211.826 363.257 211.835L345.252 212.314C344.877 212.324 344.526 212.137 344.33 211.824L334.904 196.759C334.708 196.446 334.698 196.053 334.876 195.73L343.456 180.186Z" stroke="#FFC700" stroke-opacity="0.11" stroke-width="0.547833" stroke-linecap="round" stroke-linejoin="round"/>
<path d="M434.382 325.52C434.56 325.197 434.901 324.992 435.276 324.982L453.281 324.503C453.655 324.493 454.007 324.68 454.203 324.993L463.628 340.058C463.824 340.372 463.835 340.764 463.657 341.087L455.076 356.631C454.898 356.954 454.557 357.16 454.183 357.17L436.177 357.648C435.803 357.658 435.451 357.471 435.255 357.158L425.83 342.093C425.634 341.78 425.623 341.388 425.802 341.064L434.382 325.52Z" stroke="#FFC700" stroke-opacity="0.08" stroke-width="0.547833" stroke-linecap="round" stroke-linejoin="round"/>
<path d="M258.392 231.573C258.571 231.25 258.912 231.044 259.286 231.035L277.291 230.556C277.666 230.546 278.017 230.733 278.213 231.046L287.639 246.111C287.835 246.424 287.845 246.816 287.667 247.14L279.087 262.684C278.908 263.007 278.568 263.212 278.193 263.222L260.188 263.701C259.813 263.711 259.462 263.524 259.266 263.211L249.841 248.146C249.645 247.832 249.634 247.44 249.812 247.117L258.392 231.573Z" stroke="#FFC700" stroke-opacity="0.11" stroke-width="0.547833" stroke-linecap="round" stroke-linejoin="round"/>
<path d="M349.318 376.907C349.497 376.584 349.837 376.378 350.212 376.369L368.217 375.89C368.592 375.88 368.943 376.067 369.139 376.38L378.565 391.445C378.761 391.758 378.771 392.151 378.593 392.474L370.013 408.018C369.834 408.341 369.494 408.546 369.119 408.556L351.114 409.035C350.739 409.045 350.388 408.858 350.192 408.545L340.767 393.48C340.571 393.166 340.56 392.774 340.738 392.451L349.318 376.907Z" stroke="#FFC700" stroke-opacity="0.15" stroke-width="0.547833" stroke-linecap="round" stroke-linejoin="round"/>
<path d="M173.22 282.785C173.398 282.462 173.739 282.257 174.114 282.247L192.119 281.768C192.494 281.758 192.845 281.945 193.041 282.258L202.466 297.323C202.662 297.637 202.673 298.029 202.495 298.352L193.914 313.896C193.736 314.219 193.395 314.425 193.021 314.435L175.015 314.913C174.641 314.923 174.29 314.736 174.094 314.423L164.668 299.358C164.472 299.045 164.461 298.653 164.64 298.329L173.22 282.785Z" stroke="#FFC700" stroke-opacity="0.11" stroke-width="0.547833" stroke-linecap="round" stroke-linejoin="round"/>
<path d="M264.146 428.119C264.324 427.796 264.665 427.591 265.039 427.581L283.045 427.102C283.419 427.092 283.771 427.279 283.967 427.592L293.392 442.657C293.588 442.971 293.599 443.363 293.421 443.686L284.84 459.23C284.662 459.553 284.321 459.759 283.947 459.769L265.941 460.247C265.567 460.257 265.215 460.07 265.019 459.757L255.594 444.692C255.398 444.379 255.387 443.987 255.566 443.663L264.146 428.119Z" stroke="#FFC700" stroke-opacity="0.15" stroke-width="0.547833" stroke-linecap="round" stroke-linejoin="round"/>
<path d="M88.1023 334.085C88.2807 333.762 88.6214 333.556 88.9958 333.546L107.001 333.067C107.376 333.057 107.727 333.244 107.923 333.558L117.348 348.623C117.544 348.936 117.555 349.328 117.377 349.651L108.797 365.195C108.618 365.519 108.278 365.724 107.903 365.734L89.8976 366.213C89.5231 366.223 89.1717 366.036 88.9757 365.723L79.5504 350.657C79.3544 350.344 79.3436 349.952 79.522 349.629L88.1023 334.085Z" stroke="#FFC700" stroke-opacity="0.11" stroke-width="0.547833" stroke-linecap="round" stroke-linejoin="round"/>
<path d="M179.028 479.419C179.206 479.096 179.547 478.89 179.922 478.88L197.927 478.401C198.302 478.391 198.653 478.578 198.849 478.892L208.274 493.957C208.47 494.27 208.481 494.662 208.303 494.986L199.722 510.53C199.544 510.853 199.203 511.058 198.829 511.068L180.823 511.547C180.449 511.557 180.098 511.37 179.902 511.057L170.476 495.992C170.28 495.678 170.269 495.286 170.448 494.963L179.028 479.419Z" stroke="#FFC700" stroke-opacity="0.11" stroke-width="0.547833" stroke-linecap="round" stroke-linejoin="round"/>
<path d="M86.1903 268.58C86.3687 268.257 86.7094 268.052 87.0838 268.042L105.089 267.563C105.464 267.553 105.815 267.74 106.011 268.053L115.436 283.118C115.632 283.431 115.643 283.824 115.465 284.147L106.885 299.691C106.706 300.014 106.366 300.219 105.991 300.229L87.9856 300.708C87.6111 300.718 87.2597 300.531 87.0637 300.218L77.6385 285.153C77.4424 284.84 77.4316 284.447 77.6101 284.124L86.1903 268.58Z" stroke="#FFC700" stroke-opacity="0.11" stroke-width="0.547833" stroke-linecap="round" stroke-linejoin="round"/>
<path d="M177.116 413.914C177.294 413.591 177.635 413.386 178.01 413.376L196.015 412.897C196.39 412.887 196.741 413.074 196.937 413.387L206.362 428.452C206.558 428.765 206.569 429.158 206.391 429.481L197.81 445.025C197.632 445.348 197.291 445.554 196.917 445.563L178.911 446.042C178.537 446.052 178.186 445.865 177.99 445.552L168.564 430.487C168.368 430.174 168.357 429.781 168.536 429.458L177.116 413.914Z" stroke="#FFC700" stroke-opacity="0.11" stroke-width="0.547833" stroke-linecap="round" stroke-linejoin="round"/>
<path d="M171.363 217.368C171.541 217.044 171.882 216.839 172.257 216.829L190.262 216.35C190.637 216.34 190.988 216.527 191.184 216.84L200.609 231.906C200.805 232.219 200.816 232.611 200.638 232.934L192.057 248.478C191.879 248.802 191.538 249.007 191.164 249.017L173.158 249.496C172.784 249.506 172.433 249.319 172.237 249.005L162.811 233.94C162.615 233.627 162.604 233.235 162.783 232.912L171.363 217.368Z" stroke="#FFC700" stroke-opacity="0.11" stroke-width="0.547833" stroke-linecap="round" stroke-linejoin="round"/>
<path d="M262.289 362.702C262.467 362.378 262.808 362.173 263.182 362.163L281.188 361.684C281.562 361.674 281.914 361.861 282.11 362.175L291.535 377.24C291.731 377.553 291.742 377.945 291.563 378.268L282.983 393.812C282.805 394.136 282.464 394.341 282.09 394.351L264.084 394.83C263.71 394.84 263.358 394.653 263.162 394.34L253.737 379.274C253.541 378.961 253.53 378.569 253.709 378.246L262.289 362.702Z" stroke="#FFC700" stroke-opacity="0.11" stroke-width="0.547833" stroke-linecap="round" stroke-linejoin="round"/>
<path d="M256.427 165.981C256.605 165.657 256.946 165.452 257.32 165.442L275.326 164.963C275.7 164.953 276.052 165.14 276.248 165.454L285.673 180.519C285.869 180.832 285.88 181.224 285.701 181.547L277.121 197.091C276.943 197.415 276.602 197.62 276.228 197.63L258.222 198.109C257.848 198.119 257.496 197.932 257.3 197.619L247.875 182.553C247.679 182.24 247.668 181.848 247.847 181.525L256.427 165.981Z" stroke="#FFC700" stroke-opacity="0.11" stroke-width="0.547833" stroke-linecap="round" stroke-linejoin="round"/>
<path d="M347.353 311.315C347.531 310.992 347.872 310.786 348.246 310.776L366.252 310.297C366.626 310.288 366.978 310.474 367.174 310.788L376.599 325.853C376.795 326.166 376.806 326.558 376.627 326.882L368.047 342.426C367.869 342.749 367.528 342.954 367.153 342.964L349.148 343.443C348.773 343.453 348.422 343.266 348.226 342.953L338.801 327.888C338.605 327.574 338.594 327.182 338.772 326.859L347.353 311.315Z" stroke="#FFC700" stroke-opacity="0.15" stroke-width="0.547833" stroke-linecap="round" stroke-linejoin="round"/>
<path d="M341.545 114.681C341.723 114.358 342.064 114.152 342.439 114.143L360.444 113.664C360.818 113.654 361.17 113.841 361.366 114.154L370.791 129.219C370.987 129.532 370.998 129.925 370.82 130.248L362.239 145.792C362.061 146.115 361.72 146.32 361.346 146.33L343.34 146.809C342.966 146.819 342.614 146.632 342.419 146.319L332.993 131.254C332.797 130.94 332.786 130.548 332.965 130.225L341.545 114.681Z" stroke="#FFC700" stroke-opacity="0.11" stroke-width="0.547833" stroke-linecap="round" stroke-linejoin="round"/>
<path d="M432.471 260.015C432.649 259.692 432.99 259.487 433.364 259.477L451.37 258.998C451.744 258.988 452.096 259.175 452.292 259.488L461.717 274.553C461.913 274.866 461.924 275.259 461.745 275.582L453.165 291.126C452.987 291.449 452.646 291.655 452.272 291.664L434.266 292.143C433.892 292.153 433.54 291.966 433.344 291.653L423.919 276.588C423.723 276.275 423.712 275.882 423.891 275.559L432.471 260.015Z" stroke="#FFC700" stroke-opacity="0.15" stroke-width="0.547833" stroke-linecap="round" stroke-linejoin="round"/>
<path d="M372.803 195.868C372.981 195.545 373.322 195.34 373.697 195.33L391.702 194.851C392.076 194.841 392.428 195.028 392.624 195.341L402.049 210.406C402.245 210.72 402.256 211.112 402.078 211.435L393.497 226.979C393.319 227.302 392.978 227.508 392.604 227.518L374.598 227.997C374.224 228.006 373.872 227.82 373.676 227.506L364.251 212.441C364.055 212.128 364.044 211.736 364.223 211.412L372.803 195.868Z" stroke="#FFC700" stroke-opacity="0.11" stroke-width="0.547833" stroke-linecap="round" stroke-linejoin="round"/>
<path d="M463.729 341.203C463.907 340.879 464.248 340.674 464.622 340.664L482.628 340.185C483.002 340.175 483.354 340.362 483.55 340.675L492.975 355.741C493.171 356.054 493.182 356.446 493.003 356.769L484.423 372.313C484.245 372.637 483.904 372.842 483.53 372.852L465.524 373.331C465.15 373.341 464.798 373.154 464.602 372.841L455.177 357.775C454.981 357.462 454.97 357.07 455.149 356.747L463.729 341.203Z" stroke="#FFC700" stroke-opacity="0.08" stroke-width="0.547833" stroke-linecap="round" stroke-linejoin="round"/>
<path d="M287.739 247.255C287.918 246.932 288.258 246.727 288.633 246.717L306.638 246.238C307.013 246.228 307.364 246.415 307.56 246.728L316.986 261.793C317.182 262.107 317.192 262.499 317.014 262.822L308.434 278.366C308.255 278.689 307.915 278.895 307.54 278.905L289.535 279.383C289.16 279.393 288.809 279.207 288.613 278.893L279.188 263.828C278.992 263.515 278.981 263.123 279.159 262.799L287.739 247.255Z" stroke="#FFC700" stroke-opacity="0.11" stroke-width="0.547833" stroke-linecap="round" stroke-linejoin="round"/>
<path d="M378.665 392.589C378.844 392.266 379.184 392.061 379.559 392.051L397.564 391.572C397.939 391.562 398.29 391.749 398.486 392.062L407.911 407.127C408.107 407.441 408.118 407.833 407.94 408.156L399.36 423.7C399.181 424.023 398.84 424.229 398.466 424.239L380.461 424.717C380.086 424.727 379.735 424.541 379.539 424.227L370.113 409.162C369.917 408.849 369.907 408.457 370.085 408.133L378.665 392.589Z" stroke="#FFC700" stroke-opacity="0.08" stroke-width="0.547833" stroke-linecap="round" stroke-linejoin="round"/>
<path d="M202.567 298.468C202.745 298.144 203.086 297.939 203.461 297.929L221.466 297.45C221.84 297.44 222.192 297.627 222.388 297.94L231.813 313.006C232.009 313.319 232.02 313.711 231.842 314.034L223.261 329.578C223.083 329.902 222.742 330.107 222.368 330.117L204.362 330.596C203.988 330.606 203.636 330.419 203.44 330.105L194.015 315.04C193.819 314.727 193.808 314.335 193.987 314.012L202.567 298.468Z" stroke="#FFC700" stroke-opacity="0.11" stroke-width="0.547833" stroke-linecap="round" stroke-linejoin="round"/>
<path d="M293.493 443.802C293.671 443.478 294.012 443.273 294.386 443.263L312.392 442.784C312.766 442.774 313.118 442.961 313.314 443.274L322.739 458.34C322.935 458.653 322.946 459.045 322.767 459.368L314.187 474.912C314.009 475.236 313.668 475.441 313.294 475.451L295.288 475.93C294.914 475.94 294.562 475.753 294.366 475.44L284.941 460.374C284.745 460.061 284.734 459.669 284.913 459.346L293.493 443.802Z" stroke="#FFC700" stroke-opacity="0.15" stroke-width="0.547833" stroke-linecap="round" stroke-linejoin="round"/>
<path d="M117.449 349.767C117.627 349.444 117.968 349.238 118.343 349.228L136.348 348.75C136.723 348.74 137.074 348.927 137.27 349.24L146.695 364.305C146.891 364.618 146.902 365.01 146.724 365.334L138.143 380.878C137.965 381.201 137.624 381.406 137.25 381.416L119.244 381.895C118.87 381.905 118.519 381.718 118.323 381.405L108.897 366.34C108.701 366.026 108.69 365.634 108.869 365.311L117.449 349.767Z" stroke="#FFC700" stroke-opacity="0.11" stroke-width="0.547833" stroke-linecap="round" stroke-linejoin="round"/>
<path d="M208.375 495.101C208.553 494.778 208.894 494.573 209.268 494.563L227.274 494.084C227.648 494.074 228 494.261 228.196 494.574L237.621 509.639C237.817 509.952 237.828 510.345 237.65 510.668L229.069 526.212C228.891 526.535 228.55 526.74 228.176 526.75L210.17 527.229C209.796 527.239 209.444 527.052 209.248 526.739L199.823 511.674C199.627 511.361 199.616 510.968 199.795 510.645L208.375 495.101Z" stroke="#FFC700" stroke-opacity="0.11" stroke-width="0.547833" stroke-linecap="round" stroke-linejoin="round"/>
<path d="M87.0553 301.188C87.2337 300.865 87.5745 300.659 87.9489 300.65L105.954 300.171C106.329 300.161 106.68 300.348 106.876 300.661L116.302 315.726C116.498 316.039 116.508 316.431 116.33 316.755L107.75 332.299C107.571 332.622 107.231 332.827 106.856 332.837L88.8507 333.316C88.4762 333.326 88.1248 333.139 87.9288 332.826L78.5035 317.761C78.3075 317.447 78.2967 317.055 78.4751 316.732L87.0553 301.188Z" stroke="#FFC700" stroke-opacity="0.11" stroke-width="0.547833" stroke-linecap="round" stroke-linejoin="round"/>
<path d="M177.981 446.522C178.16 446.199 178.5 445.993 178.875 445.984L196.88 445.505C197.255 445.495 197.606 445.682 197.802 445.995L207.227 461.06C207.423 461.373 207.434 461.766 207.256 462.089L198.676 477.633C198.497 477.956 198.156 478.161 197.782 478.171L179.777 478.65C179.402 478.66 179.051 478.473 178.855 478.16L169.429 463.095C169.233 462.781 169.222 462.389 169.401 462.066L177.981 446.522Z" stroke="#FFC700" stroke-opacity="0.11" stroke-width="0.547833" stroke-linecap="round" stroke-linejoin="round"/>
<path d="M172.228 249.975C172.407 249.652 172.747 249.447 173.122 249.437L191.127 248.958C191.502 248.948 191.853 249.135 192.049 249.448L201.474 264.513C201.67 264.827 201.681 265.219 201.503 265.542L192.922 281.086C192.744 281.41 192.403 281.615 192.029 281.625L174.023 282.104C173.649 282.114 173.298 281.927 173.102 281.613L163.676 266.548C163.48 266.235 163.469 265.843 163.648 265.519L172.228 249.975Z" stroke="#FFC700" stroke-opacity="0.11" stroke-width="0.547833" stroke-linecap="round" stroke-linejoin="round"/>
<path d="M263.154 395.31C263.332 394.986 263.673 394.781 264.047 394.771L282.053 394.292C282.427 394.282 282.779 394.469 282.975 394.782L292.4 409.848C292.596 410.161 292.607 410.553 292.429 410.876L283.848 426.42C283.67 426.744 283.329 426.949 282.955 426.959L264.949 427.438C264.575 427.448 264.223 427.261 264.027 426.947L254.602 411.882C254.406 411.569 254.395 411.177 254.574 410.854L263.154 395.31Z" stroke="#FFC700" stroke-opacity="0.11" stroke-width="0.547833" stroke-linecap="round" stroke-linejoin="round"/>
<path d="M257.292 198.589C257.47 198.265 257.811 198.06 258.185 198.05L276.191 197.571C276.565 197.561 276.917 197.748 277.113 198.061L286.538 213.127C286.734 213.44 286.745 213.832 286.566 214.155L277.986 229.699C277.808 230.023 277.467 230.228 277.093 230.238L259.087 230.717C258.713 230.727 258.361 230.54 258.165 230.227L248.74 215.161C248.544 214.848 248.533 214.456 248.712 214.133L257.292 198.589Z" stroke="#FFC700" stroke-opacity="0.11" stroke-width="0.547833" stroke-linecap="round" stroke-linejoin="round"/>
<path d="M348.218 343.923C348.396 343.6 348.737 343.394 349.111 343.384L367.117 342.905C367.491 342.895 367.843 343.082 368.039 343.396L377.464 358.461C377.66 358.774 377.671 359.166 377.492 359.489L368.912 375.034C368.734 375.357 368.393 375.562 368.019 375.572L350.013 376.051C349.639 376.061 349.287 375.874 349.091 375.561L339.666 360.495C339.47 360.182 339.459 359.79 339.637 359.467L348.218 343.923Z" stroke="#FFC700" stroke-opacity="0.15" stroke-width="0.547833" stroke-linecap="round" stroke-linejoin="round"/>
<path d="M342.41 147.289C342.588 146.966 342.929 146.76 343.304 146.75L361.309 146.272C361.684 146.262 362.035 146.448 362.231 146.762L371.656 161.827C371.852 162.14 371.863 162.532 371.685 162.856L363.104 178.4C362.926 178.723 362.585 178.928 362.211 178.938L344.205 179.417C343.831 179.427 343.48 179.24 343.284 178.927L333.858 163.862C333.662 163.548 333.651 163.156 333.83 162.833L342.41 147.289Z" stroke="#FFC700" stroke-opacity="0.11" stroke-width="0.547833" stroke-linecap="round" stroke-linejoin="round"/>
<path d="M433.336 292.623C433.514 292.3 433.855 292.094 434.229 292.085L452.235 291.606C452.609 291.596 452.961 291.783 453.157 292.096L462.582 307.161C462.778 307.474 462.789 307.867 462.611 308.19L454.03 323.734C453.852 324.057 453.511 324.262 453.137 324.272L435.131 324.751C434.757 324.761 434.405 324.574 434.209 324.261L424.784 309.196C424.588 308.882 424.577 308.49 424.756 308.167L433.336 292.623Z" stroke="#FFC700" stroke-opacity="0.15" stroke-width="0.547833" stroke-linecap="round" stroke-linejoin="round"/>
<path d="M373.668 228.476C373.847 228.153 374.187 227.948 374.562 227.938L392.567 227.459C392.942 227.449 393.293 227.636 393.489 227.949L402.914 243.014C403.11 243.328 403.121 243.72 402.943 244.043L394.362 259.587C394.184 259.91 393.843 260.116 393.469 260.126L375.463 260.604C375.089 260.614 374.738 260.427 374.542 260.114L365.116 245.049C364.92 244.736 364.909 244.344 365.088 244.02L373.668 228.476Z" stroke="#FFC700" stroke-opacity="0.11" stroke-width="0.547833" stroke-linecap="round" stroke-linejoin="round"/>
<path d="M464.594 373.81C464.772 373.487 465.113 373.282 465.487 373.272L483.493 372.793C483.867 372.783 484.219 372.97 484.415 373.283L493.84 388.348C494.036 388.662 494.047 389.054 493.869 389.377L485.288 404.921C485.11 405.244 484.769 405.45 484.395 405.46L466.389 405.939C466.015 405.948 465.663 405.762 465.467 405.448L456.042 390.383C455.846 390.07 455.835 389.678 456.014 389.354L464.594 373.81Z" stroke="#FFC700" stroke-opacity="0.08" stroke-width="0.547833" stroke-linecap="round" stroke-linejoin="round"/>
<path d="M288.604 279.863C288.783 279.54 289.124 279.335 289.498 279.325L307.503 278.846C307.878 278.836 308.229 279.023 308.425 279.336L317.851 294.401C318.047 294.714 318.057 295.107 317.879 295.43L309.299 310.974C309.12 311.297 308.78 311.503 308.405 311.512L290.4 311.991C290.025 312.001 289.674 311.814 289.478 311.501L280.053 296.436C279.857 296.123 279.846 295.73 280.024 295.407L288.604 279.863Z" stroke="#FFC700" stroke-opacity="0.11" stroke-width="0.547833" stroke-linecap="round" stroke-linejoin="round"/>
<path d="M379.53 425.197C379.709 424.874 380.049 424.669 380.424 424.659L398.429 424.18C398.804 424.17 399.155 424.357 399.351 424.67L408.776 439.735C408.972 440.049 408.983 440.441 408.805 440.764L400.225 456.308C400.046 456.631 399.706 456.837 399.331 456.847L381.326 457.325C380.951 457.335 380.6 457.148 380.404 456.835L370.978 441.77C370.782 441.457 370.772 441.065 370.95 440.741L379.53 425.197Z" stroke="#FFC700" stroke-opacity="0.08" stroke-width="0.547833" stroke-linecap="round" stroke-linejoin="round"/>
<path d="M203.432 331.075C203.61 330.752 203.951 330.547 204.326 330.537L222.331 330.058C222.705 330.048 223.057 330.235 223.253 330.548L232.678 345.613C232.874 345.927 232.885 346.319 232.707 346.642L224.126 362.186C223.948 362.509 223.607 362.715 223.233 362.725L205.227 363.204C204.853 363.213 204.501 363.027 204.306 362.713L194.88 347.648C194.684 347.335 194.673 346.943 194.852 346.619L203.432 331.075Z" stroke="#FFC700" stroke-opacity="0.11" stroke-width="0.547833" stroke-linecap="round" stroke-linejoin="round"/>
<path d="M294.358 476.41C294.536 476.086 294.877 475.881 295.251 475.871L313.257 475.392C313.631 475.382 313.983 475.569 314.179 475.882L323.604 490.948C323.8 491.261 323.811 491.653 323.632 491.976L315.052 507.52C314.874 507.844 314.533 508.049 314.159 508.059L296.153 508.538C295.779 508.548 295.427 508.361 295.231 508.047L285.806 492.982C285.61 492.669 285.599 492.277 285.778 491.954L294.358 476.41Z" stroke="#FFC700" stroke-opacity="0.08" stroke-width="0.547833" stroke-linecap="round" stroke-linejoin="round"/>
<path d="M118.314 382.375C118.493 382.052 118.833 381.846 119.208 381.836L137.213 381.357C137.588 381.348 137.939 381.534 138.135 381.848L147.56 396.913C147.756 397.226 147.767 397.618 147.589 397.942L139.009 413.486C138.83 413.809 138.489 414.014 138.115 414.024L120.11 414.503C119.735 414.513 119.384 414.326 119.188 414.013L109.762 398.948C109.566 398.634 109.556 398.242 109.734 397.919L118.314 382.375Z" stroke="#FFC700" stroke-opacity="0.11" stroke-width="0.547833" stroke-linecap="round" stroke-linejoin="round"/>
<path d="M209.24 527.709C209.418 527.386 209.759 527.18 210.134 527.17L228.139 526.692C228.513 526.682 228.865 526.869 229.061 527.182L238.486 542.247C238.682 542.56 238.693 542.952 238.515 543.276L229.934 558.82C229.756 559.143 229.415 559.348 229.041 559.358L211.035 559.837C210.661 559.847 210.309 559.66 210.113 559.347L200.688 544.282C200.492 543.968 200.481 543.576 200.66 543.253L209.24 527.709Z" stroke="#FFC700" stroke-opacity="0.11" stroke-width="0.547833" stroke-linecap="round" stroke-linejoin="round"/>
<path d="M58.6826 318.288C58.861 317.965 59.2017 317.759 59.5761 317.749L77.5816 317.27C77.956 317.261 78.3075 317.447 78.5035 317.761L87.9288 332.826C88.1248 333.139 88.1356 333.531 87.9572 333.855L79.377 349.399C79.1986 349.722 78.8579 349.927 78.4834 349.937L60.478 350.416C60.1035 350.426 59.752 350.239 59.5561 349.926L50.1308 334.861C49.9348 334.547 49.9239 334.155 50.1024 333.832L58.6826 318.288Z" stroke="#FFC700" stroke-opacity="0.11" stroke-width="0.547833" stroke-linecap="round" stroke-linejoin="round"/>
<path d="M149.608 463.622C149.787 463.299 150.128 463.093 150.502 463.083L168.507 462.605C168.882 462.595 169.233 462.781 169.429 463.095L178.855 478.16C179.051 478.473 179.061 478.865 178.883 479.189L170.303 494.733C170.124 495.056 169.784 495.261 169.409 495.271L151.404 495.75C151.029 495.76 150.678 495.573 150.482 495.26L141.057 480.195C140.861 479.881 140.85 479.489 141.028 479.166L149.608 463.622Z" stroke="#FFC700" stroke-opacity="0.11" stroke-width="0.547833" stroke-linecap="round" stroke-linejoin="round"/>
<path d="M143.855 267.075C144.034 266.752 144.374 266.547 144.749 266.537L162.754 266.058C163.129 266.048 163.48 266.235 163.676 266.548L173.102 281.613C173.298 281.927 173.308 282.319 173.13 282.642L164.55 298.186C164.371 298.509 164.031 298.715 163.656 298.725L145.651 299.203C145.276 299.213 144.925 299.026 144.729 298.713L135.304 283.648C135.108 283.335 135.097 282.943 135.275 282.619L143.855 267.075Z" stroke="#FFC700" stroke-opacity="0.11" stroke-width="0.547833" stroke-linecap="round" stroke-linejoin="round"/>
<path d="M234.781 412.409C234.96 412.086 235.3 411.881 235.675 411.871L253.68 411.392C254.055 411.382 254.406 411.569 254.602 411.882L264.027 426.947C264.223 427.261 264.234 427.653 264.056 427.976L255.476 443.52C255.297 443.843 254.956 444.049 254.582 444.059L236.577 444.537C236.202 444.547 235.851 444.361 235.655 444.047L226.229 428.982C226.033 428.669 226.023 428.277 226.201 427.953L234.781 412.409Z" stroke="#FFC700" stroke-opacity="0.11" stroke-width="0.547833" stroke-linecap="round" stroke-linejoin="round"/>
<path d="M228.919 215.689C229.098 215.365 229.438 215.16 229.813 215.15L247.818 214.671C248.193 214.661 248.544 214.848 248.74 215.161L258.165 230.227C258.361 230.54 258.372 230.932 258.194 231.255L249.613 246.799C249.435 247.123 249.094 247.328 248.72 247.338L230.714 247.817C230.34 247.827 229.989 247.64 229.793 247.327L220.367 232.261C220.171 231.948 220.16 231.556 220.339 231.233L228.919 215.689Z" stroke="#FFC700" stroke-opacity="0.11" stroke-width="0.547833" stroke-linecap="round" stroke-linejoin="round"/>
<path d="M319.845 361.023C320.023 360.699 320.364 360.494 320.738 360.484L338.744 360.005C339.118 359.995 339.47 360.182 339.666 360.495L349.091 375.561C349.287 375.874 349.298 376.266 349.12 376.589L340.539 392.133C340.361 392.457 340.02 392.662 339.646 392.672L321.64 393.151C321.266 393.161 320.914 392.974 320.718 392.661L311.293 377.595C311.097 377.282 311.086 376.89 311.265 376.567L319.845 361.023Z" stroke="#FFC700" stroke-opacity="0.15" stroke-width="0.547833" stroke-linecap="round" stroke-linejoin="round"/>
<path d="M314.037 164.389C314.216 164.066 314.556 163.86 314.931 163.85L332.936 163.372C333.311 163.362 333.662 163.548 333.858 163.862L343.284 178.927C343.48 179.24 343.49 179.632 343.312 179.956L334.732 195.5C334.553 195.823 334.213 196.028 333.838 196.038L315.833 196.517C315.458 196.527 315.107 196.34 314.911 196.027L305.486 180.962C305.29 180.648 305.279 180.256 305.457 179.933L314.037 164.389Z" stroke="#FFC700" stroke-opacity="0.11" stroke-width="0.547833" stroke-linecap="round" stroke-linejoin="round"/>
<path d="M404.963 309.723C405.142 309.4 405.482 309.194 405.857 309.184L423.862 308.706C424.237 308.696 424.588 308.882 424.784 309.196L434.209 324.261C434.405 324.574 434.416 324.966 434.238 325.29L425.658 340.834C425.479 341.157 425.138 341.362 424.764 341.372L406.759 341.851C406.384 341.861 406.033 341.674 405.837 341.361L396.411 326.296C396.215 325.982 396.205 325.59 396.383 325.267L404.963 309.723Z" stroke="#FFC700" stroke-opacity="0.15" stroke-width="0.547833" stroke-linecap="round" stroke-linejoin="round"/>
<path d="M345.295 245.576C345.474 245.253 345.815 245.048 346.189 245.038L364.194 244.559C364.569 244.549 364.92 244.736 365.116 245.049L374.542 260.114C374.738 260.428 374.748 260.82 374.57 261.143L365.99 276.687C365.811 277.01 365.471 277.216 365.096 277.226L347.091 277.704C346.716 277.714 346.365 277.527 346.169 277.214L336.744 262.149C336.548 261.836 336.537 261.444 336.715 261.12L345.295 245.576Z" stroke="#FFC700" stroke-opacity="0.11" stroke-width="0.547833" stroke-linecap="round" stroke-linejoin="round"/>
<path d="M436.221 390.91C436.4 390.587 436.74 390.382 437.115 390.372L455.12 389.893C455.495 389.883 455.846 390.07 456.042 390.383L465.467 405.448C465.663 405.762 465.674 406.154 465.496 406.477L456.916 422.021C456.737 422.344 456.396 422.55 456.022 422.56L438.017 423.038C437.642 423.048 437.291 422.861 437.095 422.548L427.669 407.483C427.473 407.17 427.463 406.778 427.641 406.454L436.221 390.91Z" stroke="#FFC700" stroke-opacity="0.08" stroke-width="0.547833" stroke-linecap="round" stroke-linejoin="round"/>
<path d="M260.232 296.963C260.41 296.64 260.751 296.435 261.125 296.425L279.131 295.946C279.505 295.936 279.857 296.123 280.053 296.436L289.478 311.501C289.674 311.814 289.685 312.207 289.506 312.53L280.926 328.074C280.748 328.397 280.407 328.603 280.032 328.612L262.027 329.091C261.653 329.101 261.301 328.914 261.105 328.601L251.68 313.536C251.484 313.223 251.473 312.83 251.651 312.507L260.232 296.963Z" stroke="#FFC700" stroke-opacity="0.11" stroke-width="0.547833" stroke-linecap="round" stroke-linejoin="round"/>
<path d="M351.158 442.297C351.336 441.974 351.677 441.769 352.051 441.759L370.057 441.28C370.431 441.27 370.782 441.457 370.978 441.77L380.404 456.835C380.6 457.148 380.61 457.541 380.432 457.864L371.852 473.408C371.673 473.731 371.333 473.937 370.958 473.946L352.953 474.425C352.578 474.435 352.227 474.248 352.031 473.935L342.606 458.87C342.41 458.557 342.399 458.164 342.577 457.841L351.158 442.297Z" stroke="#FFC700" stroke-opacity="0.08" stroke-width="0.547833" stroke-linecap="round" stroke-linejoin="round"/>
<path d="M175.059 348.175C175.238 347.852 175.578 347.647 175.953 347.637L193.958 347.158C194.333 347.148 194.684 347.335 194.88 347.648L204.306 362.713C204.501 363.027 204.512 363.419 204.334 363.742L195.754 379.286C195.575 379.609 195.235 379.815 194.86 379.825L176.855 380.303C176.48 380.313 176.129 380.126 175.933 379.813L166.507 364.748C166.311 364.435 166.301 364.043 166.479 363.719L175.059 348.175Z" stroke="#FFC700" stroke-opacity="0.11" stroke-width="0.547833" stroke-linecap="round" stroke-linejoin="round"/>
<path d="M265.985 493.509C266.164 493.186 266.504 492.981 266.879 492.971L284.884 492.492C285.259 492.482 285.61 492.669 285.806 492.982L295.231 508.047C295.427 508.361 295.438 508.753 295.26 509.076L286.679 524.62C286.501 524.943 286.16 525.149 285.786 525.159L267.78 525.638C267.406 525.647 267.055 525.461 266.859 525.147L257.433 510.082C257.237 509.769 257.226 509.377 257.405 509.053L265.985 493.509Z" stroke="#FFC700" stroke-opacity="0.11" stroke-width="0.547833" stroke-linecap="round" stroke-linejoin="round"/>
<path d="M89.9414 399.475C90.1198 399.152 90.4606 398.946 90.835 398.936L108.84 398.457C109.215 398.447 109.566 398.634 109.762 398.948L119.188 414.013C119.384 414.326 119.394 414.718 119.216 415.041L110.636 430.586C110.457 430.909 110.117 431.114 109.742 431.124L91.7368 431.603C91.3623 431.613 91.0109 431.426 90.8149 431.113L81.3896 416.047C81.1936 415.734 81.1828 415.342 81.3612 415.019L89.9414 399.475Z" stroke="#FFC700" stroke-opacity="0.11" stroke-width="0.547833" stroke-linecap="round" stroke-linejoin="round"/>
<path d="M180.867 544.809C181.046 544.486 181.386 544.28 181.761 544.27L199.766 543.791C200.141 543.782 200.492 543.968 200.688 544.282L210.113 559.347C210.309 559.66 210.32 560.052 210.142 560.376L201.562 575.92C201.383 576.243 201.043 576.448 200.668 576.458L182.663 576.937C182.288 576.947 181.937 576.76 181.741 576.447L172.315 561.382C172.119 561.068 172.109 560.676 172.287 560.353L180.867 544.809Z" stroke="#FFC700" stroke-opacity="0.11" stroke-width="0.547833" stroke-linecap="round" stroke-linejoin="round"/>
</svg>
