<svg width="360" height="395" viewBox="0 0 360 395" fill="none" xmlns="http://www.w3.org/2000/svg">
<path d="M12.2864 78.9553C12.6604 78.9337 13.0169 79.127 13.2214 79.4624L23.0561 95.5901C23.2606 95.9254 23.2822 96.352 23.1127 96.709L14.9615 113.876C14.7921 114.232 14.4571 114.466 14.0831 114.487L-3.90277 115.526C-4.27677 115.548 -4.63333 115.354 -4.83778 115.019L-14.6725 98.8914C-14.877 98.556 -14.8985 98.1294 -14.7291 97.7724L-6.57789 80.606C-6.40837 80.2489 -6.07351 80.0157 -5.69946 79.9941L12.2864 78.9553Z" stroke="#AA5507" stroke-opacity="0.1" stroke-width="0.547833" stroke-linecap="round" stroke-linejoin="round"/>
<path d="M179.945 -38.2416C180.319 -38.2632 180.676 -38.0699 180.88 -37.7345L190.715 -21.6068C190.92 -21.2715 190.941 -20.8449 190.772 -20.4879L182.621 -3.32136C182.451 -2.96445 182.116 -2.73121 181.742 -2.70953L163.756 -1.67072C163.382 -1.64905 163.026 -1.84243 162.821 -2.17784L152.987 -18.3055C152.782 -18.6409 152.761 -19.0675 152.93 -19.4245L161.081 -36.5909C161.251 -36.948 161.586 -37.1812 161.96 -37.2028L179.945 -38.2416Z" stroke="#AA5507" stroke-opacity="0.1" stroke-width="0.547833" stroke-linecap="round" stroke-linejoin="round"/>
<path d="M101.311 127.364C101.685 127.342 102.041 127.536 102.246 127.871L112.081 143.999C112.285 144.334 112.307 144.761 112.137 145.118L103.986 162.284C103.817 162.641 103.482 162.874 103.108 162.896L85.1218 163.935C84.7478 163.956 84.3912 163.763 84.1867 163.428L74.3521 147.3C74.1475 146.965 74.126 146.538 74.2955 146.181L82.4466 129.015C82.6162 128.658 82.951 128.424 83.3251 128.403L101.311 127.364Z" stroke="#AA5507" stroke-opacity="0.1" stroke-width="0.547833" stroke-linecap="round" stroke-linejoin="round"/>
<path d="M269.064 9.96828C269.438 9.94666 269.795 10.14 269.999 10.4754L279.834 26.6031C280.039 26.9384 280.06 27.365 279.891 27.722L271.74 44.8885C271.57 45.2455 271.235 45.4787 270.861 45.5004L252.875 46.5392C252.501 46.5609 252.145 46.3675 251.94 46.0321L242.106 29.9044C241.901 29.569 241.879 29.1424 242.049 28.7854L250.2 11.619C250.37 11.2619 250.704 11.0287 251.079 11.0071L269.064 9.96828Z" stroke="#AA5507" stroke-opacity="0.1" stroke-width="0.547833" stroke-linecap="round" stroke-linejoin="round"/>
<path d="M190.43 175.574C190.804 175.552 191.16 175.746 191.365 176.081L201.2 192.209C201.404 192.544 201.426 192.971 201.256 193.328L193.105 210.494C192.936 210.851 192.601 211.084 192.227 211.106L174.241 212.145C173.867 212.167 173.51 211.973 173.306 211.638L163.471 195.51C163.267 195.175 163.245 194.748 163.414 194.391L171.566 177.225C171.735 176.868 172.07 176.634 172.444 176.613L190.43 175.574Z" stroke="#AA5507" stroke-opacity="0.09" stroke-width="0.547833" stroke-linecap="round" stroke-linejoin="round"/>
<path d="M358.136 58.2775C358.51 58.2559 358.867 58.4493 359.071 58.7847L368.906 74.9123C369.11 75.2477 369.132 75.6743 368.962 76.0313L360.811 93.1978C360.642 93.5547 360.307 93.788 359.933 93.8096L341.947 94.8484C341.573 94.8701 341.216 94.6767 341.012 94.3413L331.177 78.2137C330.973 77.8782 330.951 77.4516 331.121 77.0947L339.272 59.9282C339.441 59.5712 339.776 59.338 340.15 59.3164L358.136 58.2775Z" stroke="#AA5507" stroke-opacity="0.1" stroke-width="0.547833" stroke-linecap="round" stroke-linejoin="round"/>
<path d="M279.502 223.883C279.876 223.862 280.232 224.055 280.437 224.39L290.271 240.518C290.476 240.853 290.498 241.28 290.328 241.637L282.177 258.803C282.007 259.16 281.672 259.394 281.298 259.415L263.313 260.454C262.939 260.476 262.582 260.282 262.378 259.947L252.543 243.819C252.338 243.484 252.317 243.057 252.486 242.7L260.637 225.534C260.807 225.177 261.142 224.944 261.516 224.922L279.502 223.883Z" stroke="#AA5507" stroke-opacity="0.09" stroke-width="0.547833" stroke-linecap="round" stroke-linejoin="round"/>
<path d="M303.99 132.995C304.364 132.973 304.72 133.167 304.925 133.502L314.759 149.63C314.964 149.965 314.985 150.392 314.816 150.749L306.665 167.915C306.495 168.272 306.16 168.505 305.786 168.527L287.801 169.566C287.426 169.588 287.07 169.394 286.865 169.059L277.031 152.931C276.826 152.596 276.805 152.169 276.974 151.812L285.125 134.646C285.295 134.289 285.63 134.055 286.004 134.034L303.99 132.995Z" stroke="#AA5507" stroke-opacity="0.1" stroke-width="0.547833" stroke-linecap="round" stroke-linejoin="round"/>
<path d="M225.355 298.601C225.729 298.579 226.086 298.772 226.29 299.108L236.125 315.235C236.329 315.571 236.351 315.997 236.181 316.354L228.03 333.521C227.861 333.878 227.526 334.111 227.152 334.133L209.166 335.172C208.792 335.193 208.435 335 208.231 334.664L198.396 318.537C198.192 318.201 198.17 317.775 198.34 317.418L206.491 300.251C206.66 299.894 206.995 299.661 207.369 299.639L225.355 298.601Z" stroke="#AA5507" stroke-opacity="0.06" stroke-width="0.547833" stroke-linecap="round" stroke-linejoin="round"/>
<path d="M214.871 84.7851C215.245 84.7635 215.601 84.9569 215.806 85.2922L225.64 101.42C225.845 101.755 225.867 102.182 225.697 102.539L217.546 119.705C217.376 120.062 217.041 120.296 216.667 120.317L198.682 121.356C198.308 121.378 197.951 121.184 197.747 120.849L187.912 104.721C187.707 104.386 187.686 103.959 187.855 103.602L196.006 86.4358C196.176 86.0788 196.511 85.8455 196.885 85.8239L214.871 84.7851Z" stroke="#AA5507" stroke-opacity="0.1" stroke-width="0.547833" stroke-linecap="round" stroke-linejoin="round"/>
<path d="M136.236 250.391C136.61 250.369 136.967 250.562 137.171 250.898L147.006 267.026C147.21 267.361 147.232 267.787 147.063 268.144L138.911 285.311C138.742 285.668 138.407 285.901 138.033 285.923L120.047 286.962C119.673 286.983 119.316 286.79 119.112 286.454L109.277 270.327C109.073 269.991 109.051 269.565 109.221 269.208L117.372 252.041C117.541 251.684 117.876 251.451 118.25 251.43L136.236 250.391Z" stroke="#AA5507" stroke-opacity="0.09" stroke-width="0.547833" stroke-linecap="round" stroke-linejoin="round"/>
<path d="M125.846 36.3768C126.22 36.3552 126.577 36.5485 126.781 36.8839L136.616 53.0116C136.821 53.347 136.842 53.7735 136.673 54.1306L128.522 71.297C128.352 71.654 128.017 71.8872 127.643 71.9089L109.657 72.9477C109.283 72.9694 108.927 72.776 108.722 72.4406L98.8876 56.3129C98.6831 55.9775 98.6615 55.5509 98.831 55.194L106.982 38.0275C107.152 37.6705 107.487 37.4372 107.861 37.4156L125.846 36.3768Z" stroke="#AA5507" stroke-opacity="0.1" stroke-width="0.547833" stroke-linecap="round" stroke-linejoin="round"/>
<path d="M47.212 201.982C47.586 201.961 47.9426 202.154 48.147 202.49L57.9818 218.617C58.1862 218.953 58.2079 219.379 58.0383 219.736L49.8872 236.903C49.7177 237.26 49.3828 237.493 49.0088 237.514L31.0229 238.553C30.6489 238.575 30.2923 238.382 30.0879 238.046L20.2532 221.918C20.0487 221.583 20.0271 221.156 20.1966 220.8L28.3478 203.633C28.5173 203.276 28.8521 203.043 29.2262 203.021L47.212 201.982Z" stroke="#AA5507" stroke-opacity="0.09" stroke-width="0.547833" stroke-linecap="round" stroke-linejoin="round"/>
<path d="M36.7751 -11.9322C37.1491 -11.9539 37.5057 -11.7605 37.7102 -11.4251L47.5449 4.70257C47.7493 5.03793 47.771 5.46452 47.6015 5.82153L39.4503 22.988C39.2808 23.3449 38.9459 23.5782 38.5719 23.5999L20.586 24.6387C20.212 24.6603 19.8554 24.467 19.651 24.1316L9.8163 8.00388C9.61178 7.66844 9.59023 7.24185 9.75971 6.88494L17.9109 -10.2816C18.0804 -10.6386 18.4152 -10.8718 18.7893 -10.8934L36.7751 -11.9322Z" stroke="#AA5507" stroke-opacity="0.1" stroke-width="0.547833" stroke-linecap="round" stroke-linejoin="round"/>
<path d="M41.9769 95.0584C42.3509 95.0368 42.7075 95.2302 42.9119 95.5656L52.7467 111.693C52.9511 112.029 52.9728 112.455 52.8032 112.812L44.6521 129.979C44.4826 130.336 44.1477 130.569 43.7737 130.591L25.7878 131.629C25.4138 131.651 25.0572 131.458 24.8528 131.122L15.0181 114.995C14.8136 114.659 14.792 114.233 14.9615 113.876L23.1127 96.7091C23.2822 96.3521 23.617 96.1189 23.9911 96.0972L41.9769 95.0584Z" stroke="#AA5507" stroke-opacity="0.1" stroke-width="0.547833" stroke-linecap="round" stroke-linejoin="round"/>
<path d="M209.636 -22.1385C210.01 -22.1602 210.367 -21.9668 210.571 -21.6314L220.406 -5.50373C220.61 -5.16837 220.632 -4.74178 220.462 -4.38477L212.311 12.7817C212.142 13.1386 211.807 13.3719 211.433 13.3936L193.447 14.4324C193.073 14.454 192.716 14.2607 192.512 13.9253L182.677 -2.20242C182.473 -2.53786 182.451 -2.96445 182.621 -3.32136L190.772 -20.4879C190.941 -20.8449 191.276 -21.0781 191.65 -21.0997L209.636 -22.1385Z" stroke="#AA5507" stroke-opacity="0.1" stroke-width="0.547833" stroke-linecap="round" stroke-linejoin="round"/>
<path d="M131.002 143.467C131.376 143.445 131.732 143.639 131.937 143.974L141.771 160.102C141.976 160.437 141.997 160.864 141.828 161.221L133.677 178.387C133.507 178.744 133.172 178.977 132.798 178.999L114.812 180.038C114.438 180.06 114.082 179.866 113.877 179.531L104.043 163.403C103.838 163.068 103.817 162.641 103.986 162.284L112.137 145.118C112.307 144.761 112.642 144.527 113.016 144.506L131.002 143.467Z" stroke="#AA5507" stroke-opacity="0.1" stroke-width="0.547833" stroke-linecap="round" stroke-linejoin="round"/>
<path d="M298.755 26.0714C299.129 26.0497 299.486 26.2431 299.69 26.5785L309.525 42.7062C309.729 43.0415 309.751 43.4681 309.581 43.8251L301.43 60.9916C301.261 61.3485 300.926 61.5818 300.552 61.6035L282.566 62.6423C282.192 62.6639 281.835 62.4706 281.631 62.1352L271.796 46.0075C271.592 45.672 271.57 45.2455 271.74 44.8885L279.891 27.722C280.06 27.365 280.395 27.1318 280.769 27.1102L298.755 26.0714Z" stroke="#AA5507" stroke-opacity="0.1" stroke-width="0.547833" stroke-linecap="round" stroke-linejoin="round"/>
<path d="M220.121 191.677C220.494 191.655 220.851 191.849 221.056 192.184L230.89 208.312C231.095 208.647 231.116 209.074 230.947 209.431L222.796 226.597C222.626 226.954 222.291 227.187 221.917 227.209L203.931 228.248C203.557 228.27 203.201 228.076 202.996 227.741L193.162 211.613C192.957 211.278 192.936 210.851 193.105 210.494L201.256 193.328C201.426 192.971 201.761 192.737 202.135 192.716L220.121 191.677Z" stroke="#AA5507" stroke-opacity="0.09" stroke-width="0.547833" stroke-linecap="round" stroke-linejoin="round"/>
<path d="M387.827 74.3807C388.201 74.3591 388.557 74.5525 388.762 74.8878L398.597 91.0155C398.801 91.3509 398.823 91.7774 398.653 92.1345L390.502 109.301C390.333 109.658 389.998 109.891 389.624 109.913L371.638 110.952C371.264 110.973 370.907 110.78 370.703 110.444L360.868 94.3168C360.664 93.9814 360.642 93.5548 360.811 93.1979L368.963 76.0314C369.132 75.6744 369.467 75.4411 369.841 75.4195L387.827 74.3807Z" stroke="#AA5507" stroke-opacity="0.1" stroke-width="0.547833" stroke-linecap="round" stroke-linejoin="round"/>
<path d="M302.208 97.4307C302.582 97.4091 302.939 97.6025 303.143 97.9379L312.978 114.066C313.183 114.401 313.204 114.827 313.035 115.185L304.884 132.351C304.714 132.708 304.379 132.941 304.005 132.963L286.019 134.002C285.645 134.023 285.289 133.83 285.084 133.495L275.25 117.367C275.045 117.031 275.024 116.605 275.193 116.248L283.344 99.0814C283.514 98.7244 283.849 98.4912 284.223 98.4696L302.208 97.4307Z" stroke="#AA5507" stroke-opacity="0.1" stroke-width="0.547833" stroke-linecap="round" stroke-linejoin="round"/>
<path d="M213.137 49.1214C213.511 49.0998 213.867 49.2932 214.072 49.6286L223.906 65.7562C224.111 66.0916 224.132 66.5182 223.963 66.8752L215.812 84.0417C215.642 84.3986 215.307 84.6318 214.933 84.6535L196.948 85.6923C196.573 85.714 196.217 85.5206 196.012 85.1852L186.178 69.0575C185.973 68.7221 185.952 68.2955 186.121 67.9386L194.272 50.7721C194.442 50.4151 194.777 50.1818 195.151 50.1602L213.137 49.1214Z" stroke="#AA5507" stroke-opacity="0.1" stroke-width="0.547833" stroke-linecap="round" stroke-linejoin="round"/>
<path d="M124.174 0.581685C124.548 0.560062 124.905 0.753443 125.109 1.08882L134.944 17.2165C135.148 17.5518 135.17 17.9784 135 18.3354L126.849 35.5019C126.68 35.8589 126.345 36.0921 125.971 36.1138L107.985 37.1526C107.611 37.1743 107.254 36.9809 107.05 36.6455L97.2153 20.5178C97.0107 20.1824 96.9892 19.7558 97.1587 19.3989L105.31 2.23236C105.479 1.87535 105.814 1.6421 106.188 1.6205L124.174 0.581685Z" stroke="#AA5507" stroke-opacity="0.1" stroke-width="0.547833" stroke-linecap="round" stroke-linejoin="round"/>
<path d="M309.192 239.986C309.566 239.965 309.923 240.158 310.127 240.493L319.962 256.621C320.167 256.956 320.188 257.383 320.019 257.74L311.867 274.907C311.698 275.263 311.363 275.497 310.989 275.518L293.003 276.557C292.629 276.579 292.273 276.385 292.068 276.05L282.234 259.922C282.029 259.587 282.007 259.16 282.177 258.803L290.328 241.637C290.498 241.28 290.832 241.047 291.207 241.025L309.192 239.986Z" stroke="#AA5507" stroke-opacity="0.09" stroke-width="0.547833" stroke-linecap="round" stroke-linejoin="round"/>
<path d="M223.574 263.036C223.948 263.015 224.305 263.208 224.509 263.543L234.344 279.671C234.548 280.006 234.57 280.433 234.4 280.79L226.249 297.957C226.08 298.314 225.745 298.547 225.371 298.568L207.385 299.607C207.011 299.629 206.654 299.436 206.45 299.1L196.615 282.972C196.411 282.637 196.389 282.21 196.559 281.854L204.71 264.687C204.879 264.33 205.214 264.097 205.588 264.075L223.574 263.036Z" stroke="#AA5507" stroke-opacity="0.09" stroke-width="0.547833" stroke-linecap="round" stroke-linejoin="round"/>
<path d="M134.502 214.727C134.876 214.705 135.233 214.899 135.437 215.234L145.272 231.362C145.476 231.697 145.498 232.124 145.328 232.481L137.177 249.647C137.008 250.004 136.673 250.237 136.299 250.259L118.313 251.298C117.939 251.32 117.582 251.126 117.378 250.791L107.543 234.663C107.339 234.328 107.317 233.901 107.487 233.544L115.638 216.378C115.807 216.021 116.142 215.787 116.516 215.766L134.502 214.727Z" stroke="#AA5507" stroke-opacity="0.09" stroke-width="0.547833" stroke-linecap="round" stroke-linejoin="round"/>
<path d="M45.5396 166.187C45.9136 166.166 46.2701 166.359 46.4746 166.694L56.3093 182.822C56.5138 183.157 56.5354 183.584 56.3659 183.941L48.2147 201.108C48.0453 201.464 47.7103 201.698 47.3363 201.719L29.3504 202.758C28.9764 202.78 28.6199 202.586 28.4154 202.251L18.5807 186.123C18.3762 185.788 18.3547 185.361 18.5241 185.004L26.6753 167.838C26.8448 167.481 27.1797 167.248 27.5537 167.226L45.5396 166.187Z" stroke="#AA5507" stroke-opacity="0.09" stroke-width="0.547833" stroke-linecap="round" stroke-linejoin="round"/>
<path d="M333.68 149.098C334.054 149.077 334.411 149.27 334.615 149.605L344.45 165.733C344.654 166.068 344.676 166.495 344.507 166.852L336.355 184.018C336.186 184.375 335.851 184.609 335.477 184.63L317.491 185.669C317.117 185.691 316.76 185.497 316.556 185.162L306.721 169.034C306.517 168.699 306.495 168.272 306.665 167.915L314.816 150.749C314.985 150.392 315.32 150.159 315.694 150.137L333.68 149.098Z" stroke="#AA5507" stroke-opacity="0.1" stroke-width="0.547833" stroke-linecap="round" stroke-linejoin="round"/>
<path d="M255.046 314.704C255.42 314.682 255.776 314.876 255.981 315.211L265.815 331.339C266.02 331.674 266.042 332.101 265.872 332.458L257.721 349.624C257.551 349.981 257.216 350.214 256.842 350.236L238.857 351.275C238.483 351.296 238.126 351.103 237.922 350.768L228.087 334.64C227.882 334.304 227.861 333.878 228.03 333.521L236.181 316.354C236.351 315.997 236.686 315.764 237.06 315.743L255.046 314.704Z" stroke="#AA5507" stroke-opacity="0.06" stroke-width="0.547833" stroke-linecap="round" stroke-linejoin="round"/>
<path d="M244.561 100.888C244.935 100.867 245.292 101.06 245.496 101.395L255.331 117.523C255.536 117.858 255.557 118.285 255.388 118.642L247.236 135.808C247.067 136.165 246.732 136.399 246.358 136.42L228.372 137.459C227.998 137.481 227.642 137.287 227.437 136.952L217.602 120.824C217.398 120.489 217.376 120.062 217.546 119.705L225.697 102.539C225.867 102.182 226.201 101.949 226.575 101.927L244.561 100.888Z" stroke="#AA5507" stroke-opacity="0.1" stroke-width="0.547833" stroke-linecap="round" stroke-linejoin="round"/>
<path d="M165.927 266.494C166.301 266.472 166.657 266.665 166.862 267.001L176.696 283.129C176.901 283.464 176.923 283.89 176.753 284.247L168.602 301.414C168.432 301.771 168.097 302.004 167.723 302.026L149.738 303.065C149.364 303.086 149.007 302.893 148.803 302.558L138.968 286.43C138.763 286.094 138.742 285.668 138.911 285.311L147.062 268.144C147.232 267.787 147.567 267.554 147.941 267.533L165.927 266.494Z" stroke="#AA5507" stroke-opacity="0.09" stroke-width="0.547833" stroke-linecap="round" stroke-linejoin="round"/>
<path d="M155.537 52.4799C155.911 52.4583 156.268 52.6516 156.472 52.987L166.307 69.1147C166.511 69.45 166.533 69.8766 166.363 70.2336L158.212 87.4001C158.043 87.757 157.708 87.9903 157.334 88.012L139.348 89.0508C138.974 89.0724 138.617 88.8791 138.413 88.5437L128.578 72.416C128.374 72.0805 128.352 71.654 128.522 71.297L136.673 54.1306C136.842 53.7735 137.177 53.5403 137.551 53.5187L155.537 52.4799Z" stroke="#AA5507" stroke-opacity="0.1" stroke-width="0.547833" stroke-linecap="round" stroke-linejoin="round"/>
<path d="M76.9026 218.085C77.2766 218.064 77.6331 218.257 77.8376 218.593L87.6723 234.72C87.8768 235.056 87.8984 235.482 87.7289 235.839L79.5777 253.006C79.4083 253.363 79.0733 253.596 78.6993 253.617L60.7134 254.656C60.3394 254.678 59.9829 254.485 59.7784 254.149L49.9437 238.022C49.7392 237.686 49.7177 237.259 49.8871 236.903L58.0383 219.736C58.2078 219.379 58.5427 219.146 58.9167 219.124L76.9026 218.085Z" stroke="#AA5507" stroke-opacity="0.09" stroke-width="0.547833" stroke-linecap="round" stroke-linejoin="round"/>
<path d="M66.4657 4.17086C66.8397 4.14923 67.1962 4.34262 67.4007 4.67799L77.2354 20.8057C77.4399 21.141 77.4615 21.5676 77.292 21.9246L69.1408 39.0911C68.9714 39.448 68.6364 39.6813 68.2624 39.7029L50.2765 40.7418C49.9025 40.7634 49.546 40.57 49.3415 40.2346L39.5069 24.107C39.3023 23.7715 39.2808 23.3449 39.4503 22.988L47.6014 5.82153C47.7709 5.46452 48.1058 5.23128 48.4799 5.20967L66.4657 4.17086Z" stroke="#AA5507" stroke-opacity="0.1" stroke-width="0.547833" stroke-linecap="round" stroke-linejoin="round"/>
<path d="M-12.1687 169.776C-11.7947 169.755 -11.4382 169.948 -11.2337 170.284L-1.39897 186.411C-1.19449 186.747 -1.17286 187.173 -1.34238 187.53L-9.49355 204.697C-9.66302 205.054 -9.99796 205.287 -10.372 205.309L-28.3578 206.347C-28.7319 206.369 -29.0884 206.176 -29.2929 205.84L-39.1275 189.713C-39.3321 189.377 -39.3536 188.951 -39.1841 188.594L-31.033 171.427C-30.8634 171.07 -30.5286 170.837 -30.1545 170.815L-12.1687 169.776Z" stroke="#AA5507" stroke-opacity="0.1" stroke-width="0.547833" stroke-linecap="round" stroke-linejoin="round"/>
<path d="M40.2428 59.3946C40.6168 59.373 40.9733 59.5664 41.1778 59.9017L51.0125 76.0294C51.217 76.3648 51.2386 76.7914 51.0691 77.1484L42.9179 94.3149C42.7485 94.6718 42.4135 94.905 42.0395 94.9267L24.0536 95.9655C23.6796 95.9872 23.3231 95.7938 23.1186 95.4584L13.284 79.3307C13.0794 78.9953 13.0579 78.5687 13.2274 78.2118L21.3785 61.0453C21.548 60.6883 21.8829 60.455 22.257 60.4334L40.2428 59.3946Z" stroke="#AA5507" stroke-opacity="0.1" stroke-width="0.547833" stroke-linecap="round" stroke-linejoin="round"/>
<path d="M129.267 107.803C129.641 107.782 129.998 107.975 130.202 108.31L140.037 124.438C140.242 124.773 140.263 125.2 140.094 125.557L131.942 142.723C131.773 143.08 131.438 143.314 131.064 143.335L113.078 144.374C112.704 144.396 112.348 144.202 112.143 143.867L102.308 127.739C102.104 127.404 102.082 126.977 102.252 126.62L110.403 109.454C110.573 109.097 110.907 108.864 111.281 108.842L129.267 107.803Z" stroke="#AA5507" stroke-opacity="0.1" stroke-width="0.547833" stroke-linecap="round" stroke-linejoin="round"/>
<path d="M297.021 -9.59239C297.395 -9.61401 297.751 -9.42063 297.956 -9.08526L307.791 7.04242C307.995 7.37777 308.017 7.80436 307.847 8.16138L299.696 25.3279C299.526 25.6848 299.192 25.918 298.818 25.9397L280.832 26.9785C280.458 27.0002 280.101 26.8068 279.897 26.4714L270.062 10.3437C269.857 10.0083 269.836 9.58169 270.005 9.22478L278.157 -7.94171C278.326 -8.29872 278.661 -8.53197 279.035 -8.55357L297.021 -9.59239Z" stroke="#AA5507" stroke-opacity="0.1" stroke-width="0.547833" stroke-linecap="round" stroke-linejoin="round"/>
<path d="M218.386 156.013C218.76 155.992 219.117 156.185 219.321 156.52L229.156 172.648C229.361 172.983 229.382 173.41 229.213 173.767L221.062 190.933C220.892 191.29 220.557 191.524 220.183 191.545L202.197 192.584C201.823 192.606 201.467 192.412 201.262 192.077L191.428 175.949C191.223 175.614 191.201 175.187 191.371 174.83L199.522 157.664C199.692 157.307 200.026 157.074 200.401 157.052L218.386 156.013Z" stroke="#AA5507" stroke-opacity="0.1" stroke-width="0.547833" stroke-linecap="round" stroke-linejoin="round"/>
<path d="M386.093 38.7169C386.467 38.6953 386.823 38.8886 387.028 39.224L396.862 55.3517C397.067 55.687 397.088 56.1136 396.919 56.4706L388.768 73.6371C388.598 73.994 388.263 74.2273 387.889 74.249L369.903 75.2878C369.529 75.3094 369.173 75.1161 368.968 74.7807L359.134 58.653C358.929 58.3175 358.908 57.891 359.077 57.534L367.228 40.3676C367.398 40.0105 367.733 39.7773 368.107 39.7557L386.093 38.7169Z" stroke="#AA5507" stroke-opacity="0.1" stroke-width="0.547833" stroke-linecap="round" stroke-linejoin="round"/>
<path d="M307.458 204.322C307.832 204.301 308.189 204.494 308.393 204.83L318.228 220.957C318.432 221.293 318.454 221.719 318.284 222.076L310.133 239.243C309.964 239.6 309.629 239.833 309.255 239.855L291.269 240.893C290.895 240.915 290.538 240.722 290.334 240.386L280.499 224.259C280.295 223.923 280.273 223.497 280.443 223.14L288.594 205.973C288.763 205.616 289.098 205.383 289.472 205.361L307.458 204.322Z" stroke="#AA5507" stroke-opacity="0.09" stroke-width="0.547833" stroke-linecap="round" stroke-linejoin="round"/>
<path d="M356.402 22.6137C356.776 22.5921 357.132 22.7855 357.337 23.1209L367.172 39.2485C367.376 39.5839 367.398 40.0105 367.228 40.3675L359.077 57.534C358.908 57.8909 358.573 58.1241 358.199 58.1458L340.213 59.1846C339.839 59.2063 339.482 59.0129 339.278 58.6775L329.443 42.5498C329.239 42.2144 329.217 41.7878 329.386 41.4309L337.538 24.2644C337.707 23.9074 338.042 23.6741 338.416 23.6525L356.402 22.6137Z" stroke="#AA5507" stroke-opacity="0.1" stroke-width="0.547833" stroke-linecap="round" stroke-linejoin="round"/>
<path d="M277.767 188.219C278.141 188.198 278.498 188.391 278.702 188.726L288.537 204.854C288.742 205.189 288.763 205.616 288.594 205.973L280.443 223.14C280.273 223.496 279.938 223.73 279.564 223.751L261.578 224.79C261.204 224.812 260.848 224.619 260.643 224.283L250.809 208.155C250.604 207.82 250.583 207.393 250.752 207.036L258.903 189.87C259.073 189.513 259.408 189.28 259.782 189.258L277.767 188.219Z" stroke="#AA5507" stroke-opacity="0.09" stroke-width="0.547833" stroke-linecap="round" stroke-linejoin="round"/>
<path d="M276.08 152.457C276.454 152.435 276.811 152.629 277.015 152.964L286.85 169.092C287.055 169.427 287.076 169.854 286.907 170.211L278.756 187.377C278.586 187.734 278.251 187.967 277.877 187.989L259.891 189.028C259.517 189.05 259.161 188.856 258.956 188.521L249.122 172.393C248.917 172.058 248.896 171.631 249.065 171.274L257.216 154.108C257.386 153.751 257.721 153.517 258.095 153.496L276.08 152.457Z" stroke="#AA5507" stroke-opacity="0.1" stroke-width="0.547833" stroke-linecap="round" stroke-linejoin="round"/>
<path d="M197.446 318.063C197.82 318.041 198.176 318.234 198.381 318.57L208.216 334.697C208.42 335.033 208.442 335.459 208.272 335.816L200.121 352.983C199.952 353.34 199.617 353.573 199.243 353.595L181.257 354.633C180.883 354.655 180.526 354.462 180.322 354.126L170.487 337.999C170.283 337.663 170.261 337.237 170.431 336.88L178.582 319.713C178.751 319.356 179.086 319.123 179.46 319.101L197.446 318.063Z" stroke="#AA5507" stroke-opacity="0.06" stroke-width="0.547833" stroke-linecap="round" stroke-linejoin="round"/>
<path d="M187.009 104.148C187.383 104.126 187.739 104.32 187.944 104.655L197.779 120.783C197.983 121.118 198.005 121.545 197.835 121.902L189.684 139.068C189.514 139.425 189.18 139.658 188.806 139.68L170.82 140.719C170.446 140.74 170.089 140.547 169.885 140.212L160.05 124.084C159.845 123.748 159.824 123.322 159.993 122.965L168.145 105.798C168.314 105.441 168.649 105.208 169.023 105.187L187.009 104.148Z" stroke="#AA5507" stroke-opacity="0.1" stroke-width="0.547833" stroke-linecap="round" stroke-linejoin="round"/>
<path d="M108.374 269.753C108.748 269.732 109.105 269.925 109.309 270.261L119.144 286.388C119.349 286.724 119.37 287.15 119.201 287.507L111.05 304.674C110.88 305.031 110.545 305.264 110.171 305.285L92.1852 306.324C91.8112 306.346 91.4547 306.153 91.2502 305.817L81.4155 289.689C81.211 289.354 81.1895 288.927 81.3589 288.571L89.5101 271.404C89.6796 271.047 90.0145 270.814 90.3885 270.792L108.374 269.753Z" stroke="#AA5507" stroke-opacity="0.09" stroke-width="0.547833" stroke-linecap="round" stroke-linejoin="round"/>
<path d="M97.9366 55.8383C98.3106 55.8167 98.6672 56.0101 98.8716 56.3455L108.706 72.4731C108.911 72.8085 108.932 73.2351 108.763 73.5921L100.612 90.7586C100.442 91.1155 100.107 91.3487 99.7334 91.3704L81.7475 92.4092C81.3735 92.4309 81.0169 92.2375 80.8125 91.9021L70.9778 75.7744C70.7733 75.439 70.7517 75.0124 70.9212 74.6555L79.0724 57.489C79.2419 57.132 79.5767 56.8988 79.9508 56.8772L97.9366 55.8383Z" stroke="#AA5507" stroke-opacity="0.1" stroke-width="0.547833" stroke-linecap="round" stroke-linejoin="round"/>
<path d="M19.3021 221.444C19.6761 221.422 20.0327 221.616 20.2371 221.951L30.0718 238.079C30.2763 238.414 30.298 238.841 30.1284 239.198L21.9773 256.364C21.8078 256.721 21.4729 256.954 21.0989 256.976L3.11297 258.015C2.73897 258.036 2.38241 257.843 2.17796 257.508L-7.65672 241.38C-7.86124 241.045 -7.88279 240.618 -7.71332 240.261L0.437847 223.095C0.607368 222.738 0.942227 222.504 1.31628 222.483L19.3021 221.444Z" stroke="#AA5507" stroke-opacity="0.1" stroke-width="0.547833" stroke-linecap="round" stroke-linejoin="round"/>
<path d="M331.946 113.434C332.32 113.413 332.677 113.606 332.881 113.942L342.716 130.069C342.92 130.405 342.942 130.831 342.772 131.188L334.621 148.355C334.452 148.712 334.117 148.945 333.743 148.966L315.757 150.005C315.383 150.027 315.026 149.834 314.822 149.498L304.987 133.371C304.783 133.035 304.761 132.608 304.931 132.252L313.082 115.085C313.251 114.728 313.586 114.495 313.96 114.473L331.946 113.434Z" stroke="#AA5507" stroke-opacity="0.1" stroke-width="0.547833" stroke-linecap="round" stroke-linejoin="round"/>
<path d="M253.312 279.04C253.686 279.018 254.042 279.212 254.247 279.547L264.081 295.675C264.286 296.01 264.307 296.437 264.138 296.794L255.987 313.96C255.817 314.317 255.482 314.55 255.108 314.572L237.122 315.611C236.748 315.633 236.392 315.439 236.187 315.104L226.353 298.976C226.148 298.641 226.127 298.214 226.296 297.857L234.447 280.691C234.617 280.334 234.952 280.1 235.326 280.079L253.312 279.04Z" stroke="#AA5507" stroke-opacity="0.09" stroke-width="0.547833" stroke-linecap="round" stroke-linejoin="round"/>
<path d="M242.827 65.2244C243.201 65.2028 243.558 65.3962 243.762 65.7316L253.597 81.8592C253.801 82.1946 253.823 82.6212 253.653 82.9782L245.502 100.145C245.333 100.502 244.998 100.735 244.624 100.757L226.638 101.795C226.264 101.817 225.907 101.624 225.703 101.288L215.868 85.1606C215.664 84.8251 215.642 84.3985 215.812 84.0416L223.963 66.8751C224.132 66.5181 224.467 66.2849 224.841 66.2633L242.827 65.2244Z" stroke="#AA5507" stroke-opacity="0.1" stroke-width="0.547833" stroke-linecap="round" stroke-linejoin="round"/>
<path d="M164.193 230.83C164.567 230.808 164.923 231.002 165.128 231.337L174.962 247.465C175.167 247.8 175.188 248.227 175.019 248.584L166.868 265.75C166.698 266.107 166.363 266.34 165.989 266.362L148.003 267.401C147.629 267.423 147.273 267.229 147.068 266.894L137.234 250.766C137.029 250.431 137.008 250.004 137.177 249.647L145.328 232.481C145.498 232.124 145.833 231.89 146.207 231.869L164.193 230.83Z" stroke="#AA5507" stroke-opacity="0.09" stroke-width="0.547833" stroke-linecap="round" stroke-linejoin="round"/>
<path d="M153.803 16.8161C154.177 16.7945 154.533 16.9879 154.738 17.3233L164.573 33.4509C164.777 33.7863 164.799 34.2129 164.629 34.5699L156.478 51.7364C156.309 52.0933 155.974 52.3265 155.6 52.3482L137.614 53.387C137.24 53.4087 136.883 53.2153 136.679 52.8799L126.844 36.7522C126.639 36.4168 126.618 35.9902 126.787 35.6333L134.939 18.4668C135.108 18.1098 135.443 17.8765 135.817 17.8549L153.803 16.8161Z" stroke="#AA5507" stroke-opacity="0.1" stroke-width="0.547833" stroke-linecap="round" stroke-linejoin="round"/>
<path d="M75.1685 182.422C75.5424 182.4 75.899 182.593 76.1035 182.929L85.9382 199.057C86.1427 199.392 86.1643 199.818 85.9948 200.175L77.8436 217.342C77.6741 217.699 77.3392 217.932 76.9652 217.954L58.9793 218.993C58.6053 219.014 58.2487 218.821 58.0443 218.485L48.2096 202.358C48.0051 202.022 47.9835 201.596 48.153 201.239L56.3042 184.072C56.4737 183.715 56.8086 183.482 57.1826 183.461L75.1685 182.422Z" stroke="#AA5507" stroke-opacity="0.09" stroke-width="0.547833" stroke-linecap="round" stroke-linejoin="round"/>
<path d="M64.7316 -31.493C65.1056 -31.5146 65.4621 -31.3212 65.6666 -30.9858L75.5013 -14.8582C75.7058 -14.5228 75.7274 -14.0962 75.5579 -13.7392L67.4067 3.42729C67.2372 3.78421 66.9023 4.01745 66.5283 4.03912L48.5424 5.07794C48.1684 5.09961 47.8119 4.90623 47.6074 4.57082L37.7727 -11.5568C37.5682 -11.8923 37.5467 -12.3189 37.7161 -12.6758L45.8673 -29.8423C46.0368 -30.1993 46.3717 -30.4325 46.7457 -30.4541L64.7316 -31.493Z" stroke="#AA5507" stroke-opacity="0.1" stroke-width="0.547833" stroke-linecap="round" stroke-linejoin="round"/>
<path d="M-13.9029 134.113C-13.5289 134.091 -13.1724 134.284 -12.9679 134.62L-3.13316 150.747C-2.92869 151.083 -2.90705 151.509 -3.07657 151.866L-11.2277 169.033C-11.3972 169.39 -11.7322 169.623 -12.1062 169.645L-30.092 170.684C-30.466 170.705 -30.8226 170.512 -31.027 170.176L-40.8617 154.049C-41.0662 153.713 -41.0878 153.287 -40.9183 152.93L-32.7672 135.763C-32.5976 135.406 -32.2628 135.173 -31.8887 135.151L-13.9029 134.113Z" stroke="#AA5507" stroke-opacity="0.1" stroke-width="0.547833" stroke-linecap="round" stroke-linejoin="round"/>
<path d="M267.283 -25.5961C267.657 -25.6177 268.014 -25.4244 268.218 -25.089L278.053 -8.96131C278.257 -8.62595 278.279 -8.19936 278.11 -7.84235L269.958 9.32414C269.789 9.68106 269.454 9.9143 269.08 9.93597L251.094 10.9748C250.72 10.9965 250.363 10.8031 250.159 10.4677L240.324 -5.66C240.12 -5.99544 240.098 -6.42203 240.268 -6.77894L248.419 -23.9454C248.588 -24.3024 248.923 -24.5357 249.297 -24.5573L267.283 -25.5961Z" stroke="#AA5507" stroke-opacity="0.1" stroke-width="0.547833" stroke-linecap="round" stroke-linejoin="round"/>
<path d="M69.9334 75.4977C70.3073 75.4761 70.6639 75.6695 70.8684 76.0048L80.7031 92.1325C80.9076 92.4679 80.9292 92.8945 80.7597 93.2515L72.6085 110.418C72.439 110.775 72.1041 111.008 71.7301 111.03L53.7442 112.069C53.3702 112.09 53.0136 111.897 52.8092 111.561L42.9745 95.4338C42.77 95.0984 42.7484 94.6718 42.9179 94.3149L51.0691 77.1484C51.2386 76.7914 51.5735 76.5581 51.9475 76.5365L69.9334 75.4977Z" stroke="#AA5507" stroke-opacity="0.1" stroke-width="0.547833" stroke-linecap="round" stroke-linejoin="round"/>
<path d="M99.6244 91.601C99.9984 91.5794 100.355 91.7728 100.559 92.1082L110.394 108.236C110.599 108.571 110.62 108.998 110.451 109.355L102.3 126.521C102.13 126.878 101.795 127.111 101.421 127.133L83.4352 128.172C83.0612 128.194 82.7047 128 82.5002 127.665L72.6655 111.537C72.461 111.202 72.4395 110.775 72.6089 110.418L80.7601 93.2517C80.9296 92.8947 81.2645 92.6615 81.6385 92.6398L99.6244 91.601Z" stroke="#AA5507" stroke-opacity="0.1" stroke-width="0.547833" stroke-linecap="round" stroke-linejoin="round"/>
<path d="M188.649 140.009C189.023 139.988 189.379 140.181 189.584 140.517L199.418 156.644C199.623 156.98 199.645 157.406 199.475 157.763L191.324 174.93C191.154 175.287 190.819 175.52 190.445 175.542L172.46 176.58C172.086 176.602 171.729 176.409 171.525 176.073L161.69 159.946C161.485 159.61 161.464 159.184 161.633 158.827L169.784 141.66C169.954 141.303 170.289 141.07 170.663 141.048L188.649 140.009Z" stroke="#AA5507" stroke-opacity="0.1" stroke-width="0.547833" stroke-linecap="round" stroke-linejoin="round"/>
<path d="M237.592 -41.6993C237.966 -41.7209 238.323 -41.5275 238.527 -41.1921L248.362 -25.0645C248.567 -24.7291 248.588 -24.3025 248.419 -23.9455L240.268 -6.779C240.098 -6.42209 239.763 -6.18885 239.389 -6.16718L221.403 -5.12836C221.029 -5.10669 220.673 -5.30007 220.468 -5.63548L210.634 -21.7631C210.429 -22.0986 210.408 -22.5252 210.577 -22.8821L218.728 -40.0486C218.898 -40.4056 219.233 -40.6388 219.607 -40.6604L237.592 -41.6993Z" stroke="#AA5507" stroke-opacity="0.1" stroke-width="0.547833" stroke-linecap="round" stroke-linejoin="round"/>
<path d="M158.958 123.906C159.332 123.885 159.689 124.078 159.893 124.413L169.728 140.541C169.932 140.876 169.954 141.303 169.784 141.66L161.633 158.827C161.464 159.184 161.129 159.417 160.755 159.438L142.769 160.477C142.395 160.499 142.038 160.306 141.834 159.97L131.999 143.842C131.795 143.507 131.773 143.08 131.943 142.723L140.094 125.557C140.263 125.2 140.598 124.967 140.972 124.945L158.958 123.906Z" stroke="#AA5507" stroke-opacity="0.1" stroke-width="0.547833" stroke-linecap="round" stroke-linejoin="round"/>
<path d="M326.711 6.5107C327.085 6.48908 327.442 6.68246 327.646 7.01783L337.481 23.1455C337.686 23.4809 337.707 23.9075 337.538 24.2645L329.386 41.431C329.217 41.7879 328.882 42.0211 328.508 42.0428L310.522 43.0816C310.148 43.1033 309.792 42.9099 309.587 42.5745L299.752 26.4468C299.548 26.1114 299.526 25.6848 299.696 25.3279L307.847 8.16138C308.017 7.80436 308.351 7.57112 308.725 7.54952L326.711 6.5107Z" stroke="#AA5507" stroke-opacity="0.1" stroke-width="0.547833" stroke-linecap="round" stroke-linejoin="round"/>
<path d="M248.077 172.116C248.451 172.095 248.807 172.288 249.012 172.623L258.847 188.751C259.051 189.086 259.073 189.513 258.903 189.87L250.752 207.037C250.583 207.393 250.248 207.627 249.874 207.648L231.888 208.687C231.514 208.709 231.157 208.515 230.953 208.18L221.118 192.052C220.914 191.717 220.892 191.29 221.061 190.933L229.213 173.767C229.382 173.41 229.717 173.177 230.091 173.155L248.077 172.116Z" stroke="#AA5507" stroke-opacity="0.09" stroke-width="0.547833" stroke-linecap="round" stroke-linejoin="round"/>
<path d="M330.165 77.8699C330.539 77.8483 330.895 78.0417 331.1 78.377L340.934 94.5047C341.139 94.8401 341.16 95.2666 340.991 95.6237L332.84 112.79C332.67 113.147 332.335 113.38 331.961 113.402L313.975 114.441C313.601 114.462 313.245 114.269 313.04 113.934L303.206 97.806C303.001 97.4706 302.98 97.044 303.149 96.6871L311.3 79.5206C311.47 79.1636 311.805 78.9303 312.179 78.9087L330.165 77.8699Z" stroke="#AA5507" stroke-opacity="0.1" stroke-width="0.547833" stroke-linecap="round" stroke-linejoin="round"/>
<path d="M241.093 29.5606C241.467 29.539 241.823 29.7324 242.028 30.0678L251.862 46.1954C252.067 46.5308 252.089 46.9574 251.919 47.3144L243.768 64.4809C243.598 64.8378 243.264 65.071 242.89 65.0927L224.904 66.1315C224.53 66.1532 224.173 65.9598 223.969 65.6244L214.134 49.4967C213.929 49.1613 213.908 48.7347 214.077 48.3778L222.228 31.2113C222.398 30.8543 222.733 30.621 223.107 30.5994L241.093 29.5606Z" stroke="#AA5507" stroke-opacity="0.1" stroke-width="0.547833" stroke-linecap="round" stroke-linejoin="round"/>
<path d="M152.131 -18.979C152.505 -19.0006 152.861 -18.8072 153.066 -18.4719L162.9 -2.34418C163.105 -2.00882 163.126 -1.58223 162.957 -1.22522L154.806 15.9413C154.636 16.2982 154.301 16.5314 153.927 16.5531L135.941 17.5919C135.567 17.6136 135.211 17.4202 135.006 17.0848L125.172 0.957128C124.967 0.621686 124.946 0.195097 125.115 -0.161816L133.266 -17.3283C133.436 -17.6853 133.771 -17.9186 134.145 -17.9402L152.131 -18.979Z" stroke="#AA5507" stroke-opacity="0.1" stroke-width="0.547833" stroke-linecap="round" stroke-linejoin="round"/>
<path d="M337.148 220.425C337.522 220.404 337.879 220.597 338.084 220.933L347.918 237.06C348.123 237.396 348.144 237.822 347.975 238.179L339.824 255.346C339.654 255.703 339.319 255.936 338.945 255.958L320.959 256.996C320.585 257.018 320.229 256.825 320.024 256.489L310.19 240.362C309.985 240.026 309.964 239.6 310.133 239.243L318.284 222.076C318.454 221.719 318.789 221.486 319.163 221.464L337.148 220.425Z" stroke="#AA5507" stroke-opacity="0.09" stroke-width="0.547833" stroke-linecap="round" stroke-linejoin="round"/>
<path d="M251.53 243.475C251.904 243.454 252.261 243.647 252.465 243.983L262.3 260.11C262.504 260.446 262.526 260.872 262.356 261.229L254.205 278.396C254.036 278.753 253.701 278.986 253.327 279.008L235.341 280.046C234.967 280.068 234.61 279.875 234.406 279.539L224.571 263.412C224.367 263.076 224.345 262.65 224.515 262.293L232.666 245.126C232.835 244.769 233.17 244.536 233.544 244.514L251.53 243.475Z" stroke="#AA5507" stroke-opacity="0.09" stroke-width="0.547833" stroke-linecap="round" stroke-linejoin="round"/>
<path d="M162.458 195.166C162.832 195.145 163.189 195.338 163.393 195.673L173.228 211.801C173.432 212.136 173.454 212.563 173.285 212.92L165.133 230.086C164.964 230.443 164.629 230.677 164.255 230.698L146.269 231.737C145.895 231.759 145.539 231.565 145.334 231.23L135.499 215.102C135.295 214.767 135.273 214.34 135.443 213.983L143.594 196.817C143.763 196.46 144.098 196.227 144.472 196.205L162.458 195.166Z" stroke="#AA5507" stroke-opacity="0.09" stroke-width="0.547833" stroke-linecap="round" stroke-linejoin="round"/>
<path d="M73.496 146.627C73.87 146.605 74.2265 146.798 74.431 147.134L84.2657 163.261C84.4702 163.597 84.4918 164.023 84.3223 164.38L76.1711 181.547C76.0017 181.904 75.6667 182.137 75.2927 182.159L57.3068 183.197C56.9328 183.219 56.5763 183.026 56.3718 182.69L46.5372 166.563C46.3326 166.227 46.3111 165.801 46.4806 165.444L54.6317 148.277C54.8012 147.92 55.1361 147.687 55.5102 147.665L73.496 146.627Z" stroke="#AA5507" stroke-opacity="0.09" stroke-width="0.547833" stroke-linecap="round" stroke-linejoin="round"/>
<path d="M361.637 129.537C362.011 129.516 362.367 129.709 362.572 130.045L372.406 146.172C372.611 146.508 372.632 146.934 372.463 147.291L364.312 164.458C364.142 164.815 363.807 165.048 363.433 165.07L345.447 166.108C345.073 166.13 344.717 165.937 344.512 165.601L334.678 149.474C334.473 149.138 334.452 148.712 334.621 148.355L342.772 131.188C342.942 130.831 343.277 130.598 343.651 130.576L361.637 129.537Z" stroke="#AA5507" stroke-opacity="0.1" stroke-width="0.547833" stroke-linecap="round" stroke-linejoin="round"/>
<path d="M283.002 295.143C283.376 295.121 283.733 295.315 283.937 295.65L293.772 311.778C293.976 312.113 293.998 312.54 293.828 312.897L285.677 330.063C285.508 330.42 285.173 330.653 284.799 330.675L266.813 331.714C266.439 331.736 266.082 331.542 265.878 331.207L256.043 315.079C255.839 314.744 255.817 314.317 255.987 313.96L264.138 296.794C264.307 296.437 264.642 296.204 265.016 296.182L283.002 295.143Z" stroke="#AA5507" stroke-opacity="0.06" stroke-width="0.547833" stroke-linecap="round" stroke-linejoin="round"/>
<path d="M272.518 81.3275C272.892 81.3059 273.248 81.4993 273.453 81.8347L283.287 97.9623C283.492 98.2977 283.514 98.7243 283.344 99.0813L275.193 116.248C275.023 116.605 274.688 116.838 274.314 116.86L256.329 117.898C255.955 117.92 255.598 117.727 255.394 117.391L245.559 101.264C245.354 100.928 245.333 100.502 245.502 100.145L253.653 82.9782C253.823 82.6212 254.158 82.388 254.532 82.3663L272.518 81.3275Z" stroke="#AA5507" stroke-opacity="0.1" stroke-width="0.547833" stroke-linecap="round" stroke-linejoin="round"/>
<path d="M193.883 246.933C194.257 246.912 194.614 247.105 194.818 247.44L204.653 263.568C204.857 263.903 204.879 264.33 204.709 264.687L196.558 281.853C196.389 282.21 196.054 282.444 195.68 282.465L177.694 283.504C177.32 283.526 176.963 283.332 176.759 282.997L166.924 266.869C166.72 266.534 166.698 266.107 166.868 265.75L175.019 248.584C175.188 248.227 175.523 247.994 175.897 247.972L193.883 246.933Z" stroke="#AA5507" stroke-opacity="0.09" stroke-width="0.547833" stroke-linecap="round" stroke-linejoin="round"/>
<path d="M183.494 32.9192C183.868 32.8976 184.224 33.091 184.429 33.4263L194.263 49.554C194.468 49.8894 194.489 50.316 194.32 50.673L186.169 67.8395C185.999 68.1964 185.664 68.4296 185.29 68.4513L167.304 69.4901C166.93 69.5118 166.574 69.3184 166.369 68.983L156.535 52.8553C156.33 52.5199 156.309 52.0933 156.478 51.7364L164.629 34.5699C164.799 34.2129 165.134 33.9796 165.508 33.958L183.494 32.9192Z" stroke="#AA5507" stroke-opacity="0.1" stroke-width="0.547833" stroke-linecap="round" stroke-linejoin="round"/>
<path d="M104.859 198.525C105.233 198.503 105.59 198.696 105.794 199.032L115.629 215.16C115.833 215.495 115.855 215.921 115.685 216.279L107.534 233.445C107.365 233.802 107.03 234.035 106.656 234.057L88.6699 235.096C88.2959 235.117 87.9393 234.924 87.7348 234.589L77.9002 218.461C77.6956 218.125 77.6741 217.699 77.8436 217.342L85.9947 200.175C86.1643 199.818 86.4991 199.585 86.8732 199.564L104.859 198.525Z" stroke="#AA5507" stroke-opacity="0.09" stroke-width="0.547833" stroke-linecap="round" stroke-linejoin="round"/>
<path d="M94.4221 -15.3899C94.7961 -15.4115 95.1527 -15.2181 95.3571 -14.8827L105.192 1.24493C105.396 1.58029 105.418 2.00688 105.248 2.36389L97.0973 19.5304C96.9278 19.8873 96.5929 20.1205 96.2188 20.1422L78.233 21.181C77.859 21.2027 77.5024 21.0093 77.298 20.6739L67.4633 4.54624C67.2588 4.2108 67.2372 3.78421 67.4067 3.42729L75.5578 -13.7392C75.7274 -14.0962 76.0622 -14.3295 76.4363 -14.3511L94.4221 -15.3899Z" stroke="#AA5507" stroke-opacity="0.1" stroke-width="0.547833" stroke-linecap="round" stroke-linejoin="round"/>
<path d="M15.7877 150.216C16.1617 150.194 16.5183 150.387 16.7227 150.723L26.5575 166.851C26.7619 167.186 26.7836 167.612 26.614 167.969L18.4629 185.136C18.2934 185.493 17.9585 185.726 17.5845 185.748L-0.401425 186.787C-0.775431 186.808 -1.13198 186.615 -1.33644 186.28L-11.1711 170.152C-11.3756 169.816 -11.3972 169.39 -11.2277 169.033L-3.07655 151.866C-2.90703 151.509 -2.57217 151.276 -2.19812 151.255L15.7877 150.216Z" stroke="#AA5507" stroke-opacity="0.1" stroke-width="0.547833" stroke-linecap="round" stroke-linejoin="round"/>
<path d="M71.6675 111.161C72.0415 111.14 72.398 111.333 72.6025 111.669L82.4372 127.796C82.6417 128.132 82.6633 128.558 82.4938 128.915L74.3426 146.082C74.1732 146.439 73.8382 146.672 73.4642 146.694L55.4783 147.732C55.1043 147.754 54.7478 147.561 54.5433 147.225L44.7086 131.098C44.5041 130.762 44.4826 130.336 44.652 129.979L52.8032 112.812C52.9727 112.455 53.3076 112.222 53.6816 112.2L71.6675 111.161Z" stroke="#AA5507" stroke-opacity="0.1" stroke-width="0.547833" stroke-linecap="round" stroke-linejoin="round"/>
<path d="M239.327 -6.03544C239.701 -6.05706 240.057 -5.86368 240.262 -5.52831L250.096 10.5994C250.301 10.9347 250.323 11.3613 250.153 11.7183L242.002 28.8848C241.832 29.2417 241.497 29.475 241.123 29.4966L223.138 30.5355C222.764 30.5571 222.407 30.3637 222.203 30.0283L212.368 13.9007C212.163 13.5652 212.142 13.1386 212.311 12.7817L220.462 -4.38476C220.632 -4.74178 220.967 -4.97502 221.341 -4.99663L239.327 -6.03544Z" stroke="#AA5507" stroke-opacity="0.1" stroke-width="0.547833" stroke-linecap="round" stroke-linejoin="round"/>
<path d="M160.692 159.57C161.066 159.548 161.423 159.742 161.627 160.077L171.462 176.205C171.666 176.54 171.688 176.967 171.518 177.324L163.367 194.49C163.198 194.847 162.863 195.08 162.489 195.102L144.503 196.141C144.129 196.163 143.772 195.969 143.568 195.634L133.733 179.506C133.529 179.171 133.507 178.744 133.677 178.387L141.828 161.221C141.997 160.864 142.332 160.63 142.706 160.609L160.692 159.57Z" stroke="#AA5507" stroke-opacity="0.09" stroke-width="0.547833" stroke-linecap="round" stroke-linejoin="round"/>
<path d="M328.446 42.1745C328.82 42.1528 329.176 42.3462 329.381 42.6816L339.215 58.8093C339.42 59.1446 339.441 59.5712 339.272 59.9282L331.121 77.0947C330.951 77.4516 330.616 77.6849 330.242 77.7065L312.256 78.7454C311.882 78.767 311.526 78.5736 311.321 78.2382L301.487 62.1106C301.282 61.7751 301.261 61.3485 301.43 60.9916L309.581 43.8251C309.751 43.4681 310.086 43.2349 310.46 43.2133L328.446 42.1745Z" stroke="#AA5507" stroke-opacity="0.1" stroke-width="0.547833" stroke-linecap="round" stroke-linejoin="round"/>
<path d="M249.811 207.78C250.185 207.758 250.542 207.952 250.746 208.287L260.581 224.415C260.785 224.75 260.807 225.177 260.637 225.534L252.486 242.7C252.317 243.057 251.982 243.29 251.608 243.312L233.622 244.351C233.248 244.373 232.891 244.179 232.687 243.844L222.852 227.716C222.648 227.381 222.626 226.954 222.796 226.597L230.947 209.431C231.116 209.074 231.451 208.84 231.825 208.819L249.811 207.78Z" stroke="#AA5507" stroke-opacity="0.09" stroke-width="0.547833" stroke-linecap="round" stroke-linejoin="round"/>
<path d="M338.883 256.089C339.257 256.068 339.613 256.261 339.818 256.596L349.653 272.724C349.857 273.059 349.879 273.486 349.709 273.843L341.558 291.01C341.389 291.366 341.054 291.6 340.68 291.621L322.694 292.66C322.32 292.682 321.963 292.489 321.759 292.153L311.924 276.025C311.719 275.69 311.698 275.263 311.867 274.906L320.019 257.74C320.188 257.383 320.523 257.15 320.897 257.128L338.883 256.089Z" stroke="#AA5507" stroke-opacity="0.09" stroke-width="0.547833" stroke-linecap="round" stroke-linejoin="round"/>
<path d="M363.371 165.201C363.745 165.18 364.101 165.373 364.306 165.708L374.14 181.836C374.345 182.171 374.367 182.598 374.197 182.955L366.046 200.122C365.876 200.478 365.541 200.712 365.167 200.733L347.182 201.772C346.808 201.794 346.451 201.6 346.247 201.265L336.412 185.137C336.207 184.802 336.186 184.375 336.355 184.018L344.506 166.852C344.676 166.495 345.011 166.262 345.385 166.24L363.371 165.201Z" stroke="#AA5507" stroke-opacity="0.09" stroke-width="0.547833" stroke-linecap="round" stroke-linejoin="round"/>
<path d="M284.736 330.807C285.11 330.785 285.467 330.979 285.671 331.314L295.506 347.442C295.711 347.777 295.732 348.204 295.563 348.561L287.412 365.727C287.242 366.084 286.907 366.317 286.533 366.339L268.547 367.378C268.173 367.399 267.817 367.206 267.612 366.871L257.778 350.743C257.573 350.408 257.551 349.981 257.721 349.624L265.872 332.458C266.042 332.101 266.376 331.867 266.751 331.846L284.736 330.807Z" stroke="#AA5507" stroke-opacity="0.06" stroke-width="0.547833" stroke-linecap="round" stroke-linejoin="round"/>
<path d="M274.252 116.991C274.626 116.97 274.982 117.163 275.187 117.498L285.022 133.626C285.226 133.961 285.248 134.388 285.078 134.745L276.927 151.912C276.758 152.268 276.423 152.502 276.049 152.523L258.063 153.562C257.689 153.584 257.332 153.39 257.128 153.055L247.293 136.927C247.088 136.592 247.067 136.165 247.236 135.808L255.388 118.642C255.557 118.285 255.892 118.052 256.266 118.03L274.252 116.991Z" stroke="#AA5507" stroke-opacity="0.1" stroke-width="0.547833" stroke-linecap="round" stroke-linejoin="round"/>
<path d="M195.617 282.597C195.991 282.575 196.348 282.769 196.552 283.104L206.387 299.232C206.592 299.567 206.613 299.994 206.444 300.351L198.293 317.517C198.123 317.874 197.788 318.107 197.414 318.129L179.428 319.168C179.054 319.189 178.698 318.996 178.493 318.661L168.659 302.533C168.454 302.198 168.433 301.771 168.602 301.414L176.753 284.248C176.923 283.891 177.258 283.657 177.632 283.636L195.617 282.597Z" stroke="#AA5507" stroke-opacity="0.06" stroke-width="0.547833" stroke-linecap="round" stroke-linejoin="round"/>
<path d="M185.228 68.583C185.602 68.5613 185.958 68.7547 186.163 69.0901L195.997 85.2178C196.202 85.5531 196.223 85.9797 196.054 86.3367L187.903 103.503C187.733 103.86 187.398 104.093 187.024 104.115L169.039 105.154C168.665 105.176 168.308 104.982 168.103 104.647L158.269 88.5191C158.064 88.1836 158.043 87.757 158.212 87.4001L166.363 70.2336C166.533 69.8766 166.868 69.6434 167.242 69.6218L185.228 68.583Z" stroke="#AA5507" stroke-opacity="0.1" stroke-width="0.547833" stroke-linecap="round" stroke-linejoin="round"/>
<path d="M106.593 234.189C106.967 234.167 107.324 234.36 107.528 234.696L117.363 250.823C117.567 251.159 117.589 251.585 117.419 251.942L109.268 269.109C109.099 269.466 108.764 269.699 108.39 269.721L90.404 270.759C90.03 270.781 89.6734 270.588 89.469 270.252L79.6343 254.125C79.4298 253.789 79.4082 253.363 79.5777 253.006L87.7289 235.839C87.8984 235.482 88.2332 235.249 88.6073 235.227L106.593 234.189Z" stroke="#AA5507" stroke-opacity="0.09" stroke-width="0.547833" stroke-linecap="round" stroke-linejoin="round"/>
<path d="M96.1564 20.2739C96.5304 20.2523 96.8869 20.4457 97.0914 20.7811L106.926 36.9087C107.131 37.2441 107.152 37.6707 106.983 38.0277L98.8315 55.1942C98.662 55.5511 98.3271 55.7844 97.9531 55.806L79.9672 56.8448C79.5932 56.8665 79.2367 56.6731 79.0322 56.3377L69.1975 40.2101C68.993 39.8746 68.9715 39.448 69.1409 39.0911L77.2921 21.9246C77.4616 21.5676 77.7965 21.3344 78.1705 21.3128L96.1564 20.2739Z" stroke="#AA5507" stroke-opacity="0.1" stroke-width="0.547833" stroke-linecap="round" stroke-linejoin="round"/>
<path d="M17.5219 185.88C17.8958 185.858 18.2524 186.051 18.4569 186.387L28.2916 202.514C28.4961 202.85 28.5177 203.276 28.3482 203.633L20.197 220.8C20.0275 221.157 19.6926 221.39 19.3186 221.412L1.3327 222.45C0.958692 222.472 0.602141 222.279 0.397687 221.943L-9.437 205.816C-9.64151 205.48 -9.66306 205.054 -9.49359 204.697L-1.34243 187.53C-1.17291 187.173 -0.838046 186.94 -0.463994 186.918L17.5219 185.88Z" stroke="#AA5507" stroke-opacity="0.1" stroke-width="0.547833" stroke-linecap="round" stroke-linejoin="round"/>
<path d="M122.44 -35.0821C122.814 -35.1037 123.17 -34.9103 123.375 -34.5749L133.21 -18.4473C133.414 -18.1119 133.436 -17.6853 133.266 -17.3283L125.115 -0.161817C124.946 0.195097 124.611 0.428339 124.237 0.450011L106.251 1.48883C105.877 1.5105 105.52 1.31712 105.316 0.98171L95.4811 -15.146C95.2766 -15.4814 95.255 -15.908 95.4245 -16.2649L103.576 -33.4314C103.745 -33.7884 104.08 -34.0217 104.454 -34.0433L122.44 -35.0821Z" stroke="#AA5507" stroke-opacity="0.1" stroke-width="0.547833" stroke-linecap="round" stroke-linejoin="round"/>
<path d="M43.8054 130.524C44.1794 130.502 44.536 130.695 44.7404 131.031L54.5751 147.158C54.7796 147.494 54.8013 147.92 54.6317 148.277L46.4806 165.444C46.3111 165.801 45.9762 166.034 45.6021 166.056L27.6163 167.094C27.2423 167.116 26.8857 166.923 26.6813 166.587L16.8466 150.46C16.6421 150.124 16.6205 149.698 16.79 149.341L24.9411 132.174C25.1107 131.817 25.4455 131.584 25.8196 131.562L43.8054 130.524Z" stroke="#AA5507" stroke-opacity="0.1" stroke-width="0.547833" stroke-linecap="round" stroke-linejoin="round"/>
<path d="M211.465 13.3266C211.838 13.3049 212.195 13.4983 212.4 13.8337L222.234 29.9614C222.439 30.2967 222.46 30.7233 222.291 31.0803L214.14 48.2468C213.97 48.6037 213.635 48.837 213.261 48.8586L195.275 49.8975C194.901 49.9191 194.545 49.7257 194.34 49.3903L184.506 33.2627C184.301 32.9272 184.28 32.5006 184.449 32.1437L192.6 14.9772C192.77 14.6202 193.105 14.387 193.479 14.3654L211.465 13.3266Z" stroke="#AA5507" stroke-opacity="0.1" stroke-width="0.547833" stroke-linecap="round" stroke-linejoin="round"/>
<path d="M132.83 178.932C133.204 178.91 133.561 179.104 133.765 179.439L143.6 195.567C143.804 195.902 143.826 196.329 143.656 196.686L135.505 213.852C135.336 214.209 135.001 214.442 134.627 214.464L116.641 215.503C116.267 215.525 115.91 215.331 115.706 214.996L105.871 198.868C105.667 198.533 105.645 198.106 105.815 197.749L113.966 180.583C114.135 180.226 114.47 179.993 114.844 179.971L132.83 178.932Z" stroke="#AA5507" stroke-opacity="0.09" stroke-width="0.547833" stroke-linecap="round" stroke-linejoin="round"/>
<path d="M300.584 61.5365C300.958 61.5149 301.314 61.7083 301.519 62.0437L311.353 78.1713C311.558 78.5067 311.579 78.9333 311.41 79.2903L303.259 96.4568C303.089 96.8137 302.754 97.0469 302.38 97.0686L284.394 98.1074C284.02 98.1291 283.664 97.9357 283.459 97.6003L273.625 81.4726C273.42 81.1372 273.399 80.7106 273.568 80.3537L281.719 63.1872C281.889 62.8302 282.224 62.5969 282.598 62.5753L300.584 61.5365Z" stroke="#AA5507" stroke-opacity="0.1" stroke-width="0.547833" stroke-linecap="round" stroke-linejoin="round"/>
<path d="M221.949 227.142C222.323 227.12 222.68 227.314 222.884 227.649L232.719 243.777C232.923 244.112 232.945 244.539 232.775 244.896L224.624 262.062C224.455 262.419 224.12 262.652 223.746 262.674L205.76 263.713C205.386 263.735 205.029 263.541 204.825 263.206L194.99 247.078C194.786 246.743 194.764 246.316 194.934 245.959L203.085 228.793C203.254 228.436 203.589 228.202 203.963 228.181L221.949 227.142Z" stroke="#AA5507" stroke-opacity="0.09" stroke-width="0.547833" stroke-linecap="round" stroke-linejoin="round"/>
<path d="M389.655 109.846C390.029 109.824 390.386 110.018 390.59 110.353L400.425 126.481C400.63 126.816 400.651 127.243 400.482 127.6L392.33 144.766C392.161 145.123 391.826 145.356 391.452 145.378L373.466 146.417C373.092 146.438 372.736 146.245 372.531 145.91L362.696 129.782C362.492 129.446 362.47 129.02 362.64 128.663L370.791 111.496C370.961 111.139 371.295 110.906 371.669 110.885L389.655 109.846Z" stroke="#AA5507" stroke-opacity="0.1" stroke-width="0.547833" stroke-linecap="round" stroke-linejoin="round"/>
<path d="M311.021 275.451C311.395 275.43 311.751 275.623 311.956 275.959L321.791 292.086C321.995 292.422 322.017 292.848 321.847 293.205L313.696 310.372C313.526 310.729 313.192 310.962 312.818 310.983L294.832 312.022C294.458 312.044 294.101 311.851 293.897 311.515L284.062 295.387C283.857 295.052 283.836 294.625 284.005 294.269L292.157 277.102C292.326 276.745 292.661 276.512 293.035 276.49L311.021 275.451Z" stroke="#AA5507" stroke-opacity="0.09" stroke-width="0.547833" stroke-linecap="round" stroke-linejoin="round"/>
<path d="M335.509 184.563C335.883 184.542 336.239 184.735 336.444 185.07L346.278 201.198C346.483 201.533 346.505 201.96 346.335 202.317L338.184 219.484C338.014 219.84 337.679 220.074 337.305 220.095L319.32 221.134C318.946 221.156 318.589 220.963 318.385 220.627L308.55 204.499C308.345 204.164 308.324 203.737 308.493 203.38L316.644 186.214C316.814 185.857 317.149 185.624 317.523 185.602L335.509 184.563Z" stroke="#AA5507" stroke-opacity="0.09" stroke-width="0.547833" stroke-linecap="round" stroke-linejoin="round"/>
<path d="M256.874 350.169C257.248 350.147 257.605 350.341 257.809 350.676L267.644 366.804C267.848 367.139 267.87 367.566 267.701 367.923L259.549 385.089C259.38 385.446 259.045 385.679 258.671 385.701L240.685 386.74C240.311 386.761 239.955 386.568 239.75 386.233L229.915 370.105C229.711 369.77 229.689 369.343 229.859 368.986L238.01 351.82C238.18 351.463 238.514 351.229 238.888 351.208L256.874 350.169Z" stroke="#AA5507" stroke-opacity="0.06" stroke-width="0.547833" stroke-linecap="round" stroke-linejoin="round"/>
<path d="M246.39 136.353C246.764 136.332 247.12 136.525 247.325 136.86L257.16 152.988C257.364 153.324 257.386 153.75 257.216 154.107L249.065 171.274C248.895 171.631 248.561 171.864 248.187 171.885L230.201 172.924C229.827 172.946 229.47 172.753 229.266 172.417L219.431 156.289C219.226 155.954 219.205 155.527 219.374 155.171L227.526 138.004C227.695 137.647 228.03 137.414 228.404 137.392L246.39 136.353Z" stroke="#AA5507" stroke-opacity="0.1" stroke-width="0.547833" stroke-linecap="round" stroke-linejoin="round"/>
<path d="M167.755 301.959C168.129 301.937 168.486 302.131 168.69 302.466L178.525 318.594C178.729 318.929 178.751 319.356 178.582 319.713L170.43 336.879C170.261 337.236 169.926 337.469 169.552 337.491L151.566 338.53C151.192 338.552 150.836 338.358 150.631 338.023L140.796 321.895C140.592 321.56 140.57 321.133 140.74 320.776L148.891 303.61C149.06 303.253 149.395 303.019 149.769 302.998L167.755 301.959Z" stroke="#AA5507" stroke-opacity="0.06" stroke-width="0.547833" stroke-linecap="round" stroke-linejoin="round"/>
<path d="M157.366 87.945C157.74 87.9233 158.096 88.1167 158.301 88.4521L168.135 104.58C168.34 104.915 168.361 105.342 168.192 105.699L160.041 122.865C159.871 123.222 159.536 123.455 159.162 123.477L141.176 124.516C140.802 124.538 140.446 124.344 140.241 124.009L130.407 107.881C130.202 107.546 130.181 107.119 130.35 106.762L138.501 89.5956C138.671 89.2386 139.006 89.0054 139.38 88.9838L157.366 87.945Z" stroke="#AA5507" stroke-opacity="0.1" stroke-width="0.547833" stroke-linecap="round" stroke-linejoin="round"/>
<path d="M78.7311 253.551C79.1051 253.529 79.4616 253.722 79.6661 254.058L89.5008 270.185C89.7053 270.521 89.7269 270.947 89.5574 271.304L81.4062 288.471C81.2368 288.828 80.9018 289.061 80.5278 289.083L62.5419 290.122C62.1679 290.143 61.8114 289.95 61.6069 289.614L51.7722 273.487C51.5677 273.151 51.5462 272.725 51.7156 272.368L59.8668 255.201C60.0363 254.844 60.3712 254.611 60.7452 254.589L78.7311 253.551Z" stroke="#AA5507" stroke-opacity="0.09" stroke-width="0.547833" stroke-linecap="round" stroke-linejoin="round"/>
<path d="M68.2943 39.6359C68.6683 39.6143 69.0248 39.8077 69.2293 40.1431L79.064 56.2707C79.2685 56.6061 79.2901 57.0327 79.1206 57.3897L70.9695 74.5562C70.8 74.9131 70.465 75.1464 70.091 75.168L52.1052 76.2068C51.7312 76.2285 51.3746 76.0351 51.1701 75.6997L41.3355 59.5721C41.1309 59.2366 41.1094 58.81 41.2789 58.4531L49.43 41.2866C49.5996 40.9296 49.9344 40.6964 50.3085 40.6748L68.2943 39.6359Z" stroke="#AA5507" stroke-opacity="0.1" stroke-width="0.547833" stroke-linecap="round" stroke-linejoin="round"/>
<path d="M-10.3402 205.242C-9.96622 205.22 -9.60967 205.413 -9.4052 205.749L0.429521 221.876C0.633998 222.212 0.655629 222.638 0.486108 222.995L-7.66506 240.162C-7.83453 240.519 -8.16947 240.752 -8.54347 240.774L-26.5294 241.812C-26.9034 241.834 -27.2599 241.641 -27.4644 241.305L-37.299 225.178C-37.5036 224.842 -37.5251 224.416 -37.3556 224.059L-29.2045 206.892C-29.035 206.535 -28.7001 206.302 -28.326 206.28L-10.3402 205.242Z" stroke="#AA5507" stroke-opacity="0.1" stroke-width="0.547833" stroke-linecap="round" stroke-linejoin="round"/>
<path d="M14.1149 114.42C14.4889 114.399 14.8454 114.592 15.0499 114.928L24.8846 131.055C25.0891 131.391 25.1107 131.817 24.9412 132.174L16.79 149.341C16.6205 149.698 16.2856 149.931 15.9116 149.953L-2.07428 150.991C-2.44828 151.013 -2.80483 150.82 -3.00929 150.484L-12.844 134.357C-13.0485 134.021 -13.07 133.595 -12.9006 133.238L-4.7494 116.071C-4.57988 115.714 -4.24502 115.481 -3.87097 115.459L14.1149 114.42Z" stroke="#AA5507" stroke-opacity="0.1" stroke-width="0.547833" stroke-linecap="round" stroke-linejoin="round"/>
<path d="M181.774 -2.77653C182.148 -2.79815 182.504 -2.60477 182.709 -2.2694L192.544 13.8583C192.748 14.1936 192.77 14.6202 192.6 14.9772L184.449 32.1437C184.28 32.5006 183.945 32.7339 183.571 32.7556L165.585 33.7944C165.211 33.816 164.854 33.6227 164.65 33.2873L154.815 17.1596C154.611 16.8241 154.589 16.3976 154.758 16.0406L162.91 -1.12585C163.079 -1.48287 163.414 -1.71611 163.788 -1.73772L181.774 -2.77653Z" stroke="#AA5507" stroke-opacity="0.1" stroke-width="0.547833" stroke-linecap="round" stroke-linejoin="round"/>
<path d="M103.14 162.829C103.514 162.807 103.87 163.001 104.075 163.336L113.909 179.464C114.114 179.799 114.135 180.226 113.966 180.583L105.815 197.749C105.645 198.106 105.31 198.339 104.936 198.361L86.9504 199.4C86.5764 199.422 86.2198 199.228 86.0154 198.893L76.1807 182.765C75.9762 182.43 75.9546 182.003 76.1241 181.646L84.2752 164.48C84.4448 164.123 84.7796 163.889 85.1537 163.868L103.14 162.829Z" stroke="#AA5507" stroke-opacity="0.09" stroke-width="0.547833" stroke-linecap="round" stroke-linejoin="round"/>
<path d="M270.893 45.4334C271.267 45.4118 271.623 45.6052 271.828 45.9406L281.663 62.0682C281.867 62.4036 281.889 62.8302 281.719 63.1872L273.568 80.3537C273.399 80.7106 273.064 80.9438 272.69 80.9655L254.704 82.0043C254.33 82.026 253.973 81.8326 253.769 81.4972L243.934 65.3695C243.729 65.0341 243.708 64.6075 243.877 64.2506L252.029 47.0841C252.198 46.7271 252.533 46.4939 252.907 46.4722L270.893 45.4334Z" stroke="#AA5507" stroke-opacity="0.1" stroke-width="0.547833" stroke-linecap="round" stroke-linejoin="round"/>
<path d="M192.258 211.039C192.632 211.017 192.989 211.211 193.193 211.546L203.028 227.674C203.233 228.009 203.254 228.436 203.085 228.793L194.934 245.959C194.764 246.316 194.429 246.549 194.055 246.571L176.069 247.61C175.695 247.632 175.339 247.438 175.134 247.103L165.3 230.975C165.095 230.64 165.074 230.213 165.243 229.856L173.394 212.69C173.564 212.333 173.899 212.099 174.273 212.078L192.258 211.039Z" stroke="#AA5507" stroke-opacity="0.09" stroke-width="0.547833" stroke-linecap="round" stroke-linejoin="round"/>
<path d="M359.965 93.7426C360.339 93.721 360.695 93.9144 360.9 94.2498L370.734 110.377C370.939 110.713 370.96 111.139 370.791 111.496L362.64 128.663C362.47 129.02 362.135 129.253 361.761 129.275L343.775 130.314C343.401 130.335 343.045 130.142 342.84 129.806L333.006 113.679C332.801 113.343 332.78 112.917 332.949 112.56L341.1 95.3933C341.27 95.0363 341.605 94.8031 341.979 94.7814L359.965 93.7426Z" stroke="#AA5507" stroke-opacity="0.1" stroke-width="0.547833" stroke-linecap="round" stroke-linejoin="round"/>
<path d="M281.33 259.348C281.704 259.327 282.061 259.52 282.265 259.855L292.1 275.983C292.304 276.318 292.326 276.745 292.157 277.102L284.005 294.268C283.836 294.625 283.501 294.859 283.127 294.88L265.141 295.919C264.767 295.941 264.411 295.747 264.206 295.412L254.371 279.284C254.167 278.949 254.145 278.522 254.315 278.165L262.466 260.999C262.635 260.642 262.97 260.409 263.344 260.387L281.33 259.348Z" stroke="#AA5507" stroke-opacity="0.09" stroke-width="0.547833" stroke-linecap="round" stroke-linejoin="round"/>
<path d="M305.818 168.46C306.192 168.439 306.549 168.632 306.753 168.967L316.588 185.095C316.792 185.43 316.814 185.857 316.644 186.214L308.493 203.381C308.324 203.737 307.989 203.971 307.615 203.992L289.629 205.031C289.255 205.053 288.898 204.859 288.694 204.524L278.859 188.396C278.655 188.061 278.633 187.634 278.803 187.277L286.954 170.111C287.123 169.754 287.458 169.521 287.832 169.499L305.818 168.46Z" stroke="#AA5507" stroke-opacity="0.09" stroke-width="0.547833" stroke-linecap="round" stroke-linejoin="round"/>
<path d="M227.184 334.066C227.558 334.044 227.914 334.238 228.119 334.573L237.953 350.701C238.158 351.036 238.179 351.463 238.01 351.82L229.859 368.986C229.689 369.343 229.354 369.576 228.98 369.598L210.994 370.637C210.62 370.658 210.264 370.465 210.059 370.13L200.225 354.002C200.02 353.666 199.999 353.24 200.168 352.883L208.319 335.716C208.489 335.359 208.824 335.126 209.198 335.105L227.184 334.066Z" stroke="#AA5507" stroke-opacity="0.06" stroke-width="0.547833" stroke-linecap="round" stroke-linejoin="round"/>
<path d="M216.699 120.25C217.073 120.229 217.43 120.422 217.634 120.757L227.469 136.885C227.673 137.22 227.695 137.647 227.526 138.004L219.374 155.171C219.205 155.527 218.87 155.761 218.496 155.782L200.51 156.821C200.136 156.843 199.78 156.649 199.575 156.314L189.74 140.186C189.536 139.851 189.514 139.424 189.684 139.067L197.835 121.901C198.004 121.544 198.339 121.311 198.713 121.289L216.699 120.25Z" stroke="#AA5507" stroke-opacity="0.1" stroke-width="0.547833" stroke-linecap="round" stroke-linejoin="round"/>
<path d="M138.065 285.856C138.439 285.834 138.795 286.028 139 286.363L148.834 302.491C149.039 302.826 149.061 303.253 148.891 303.61L140.74 320.776C140.57 321.133 140.235 321.366 139.861 321.388L121.876 322.427C121.502 322.448 121.145 322.255 120.941 321.92L111.106 305.792C110.901 305.457 110.88 305.03 111.049 304.673L119.2 287.507C119.37 287.15 119.705 286.916 120.079 286.895L138.065 285.856Z" stroke="#AA5507" stroke-opacity="0.06" stroke-width="0.547833" stroke-linecap="round" stroke-linejoin="round"/>
<path d="M127.675 71.8419C128.049 71.8203 128.406 72.0136 128.61 72.349L138.445 88.4767C138.649 88.812 138.671 89.2386 138.501 89.5956L130.35 106.762C130.181 107.119 129.846 107.352 129.472 107.374L111.486 108.413C111.112 108.434 110.755 108.241 110.551 107.906L100.716 91.778C100.512 91.4425 100.49 91.016 100.66 90.659L108.811 73.4926C108.98 73.1355 109.315 72.9023 109.689 72.8807L127.675 71.8419Z" stroke="#AA5507" stroke-opacity="0.1" stroke-width="0.547833" stroke-linecap="round" stroke-linejoin="round"/>
<path d="M49.0405 237.447C49.4145 237.426 49.7711 237.619 49.9755 237.955L59.8103 254.082C60.0147 254.418 60.0364 254.844 59.8668 255.201L51.7157 272.368C51.5462 272.725 51.2113 272.958 50.8373 272.98L32.8514 274.018C32.4774 274.04 32.1208 273.847 31.9164 273.511L22.0817 257.384C21.8772 257.048 21.8556 256.622 22.0251 256.265L30.1763 239.098C30.3458 238.741 30.6806 238.508 31.0547 238.486L49.0405 237.447Z" stroke="#AA5507" stroke-opacity="0.09" stroke-width="0.547833" stroke-linecap="round" stroke-linejoin="round"/>
<path d="M38.6036 23.5329C38.9776 23.5112 39.3342 23.7046 39.5386 24.04L49.3734 40.1677C49.5778 40.503 49.5995 40.9296 49.4299 41.2866L41.2788 58.4531C41.1093 58.81 40.7744 59.0433 40.4004 59.0649L22.4145 60.1038C22.0405 60.1254 21.6839 59.932 21.4795 59.5966L11.6448 43.469C11.4403 43.1335 11.4187 42.7069 11.5882 42.35L19.7394 25.1835C19.9089 24.8265 20.2437 24.5933 20.6178 24.5717L38.6036 23.5329Z" stroke="#AA5507" stroke-opacity="0.1" stroke-width="0.547833" stroke-linecap="round" stroke-linejoin="round"/>
</svg>
