<svg width="360" height="478" viewBox="0 0 360 478" fill="none" xmlns="http://www.w3.org/2000/svg">
<path d="M91.1864 26.6822C91.5604 26.662 91.9169 26.8429 92.1214 27.1567L101.956 42.2469C102.161 42.5607 102.182 42.9599 102.013 43.2939L93.8615 59.3561C93.6921 59.6901 93.3571 59.9083 92.9831 59.9286L74.9972 60.9006C74.6232 60.9209 74.2667 60.7399 74.0622 60.4261L64.2276 45.3359C64.023 45.022 64.0015 44.6229 64.171 44.2889L72.3221 28.2267C72.4916 27.8926 72.8265 27.6744 73.2006 27.6542L91.1864 26.6822Z" stroke="#AA5507" stroke-opacity="0.15" stroke-width="0.547833" stroke-linecap="round" stroke-linejoin="round"/>
<path d="M12.552 181.635C12.926 181.615 13.2825 181.795 13.487 182.109L23.3217 197.199C23.5262 197.513 23.5478 197.912 23.3783 198.246L15.2271 214.309C15.0577 214.643 14.7227 214.861 14.3487 214.881L-3.63715 215.853C-4.01116 215.873 -4.36771 215.692 -4.57216 215.379L-14.4068 200.288C-14.6114 199.975 -14.6329 199.575 -14.4634 199.241L-6.31227 183.179C-6.14275 182.845 -5.80789 182.627 -5.43384 182.607L12.552 181.635Z" stroke="#AA5507" stroke-opacity="0.15" stroke-width="0.547833" stroke-linecap="round" stroke-linejoin="round"/>
<path d="M180.211 71.9768C180.585 71.9565 180.942 72.1375 181.146 72.4513L190.981 87.5415C191.185 87.8553 191.207 88.2544 191.037 88.5885L182.886 104.651C182.717 104.985 182.382 105.203 182.008 105.223L164.022 106.195C163.648 106.215 163.291 106.034 163.087 105.721L153.252 90.6304C153.048 90.3166 153.026 89.9174 153.196 89.5835L161.347 73.5213C161.516 73.1872 161.851 72.969 162.225 72.9488L180.211 71.9768Z" stroke="#AA5507" stroke-opacity="0.15" stroke-width="0.547833" stroke-linecap="round" stroke-linejoin="round"/>
<path d="M101.577 226.929C101.951 226.909 102.307 227.09 102.512 227.404L112.346 242.494C112.551 242.808 112.572 243.207 112.403 243.541L104.252 259.603C104.082 259.937 103.747 260.155 103.373 260.176L85.3874 261.148C85.0134 261.168 84.6568 260.987 84.4524 260.673L74.6177 245.583C74.4132 245.269 74.3916 244.87 74.5611 244.536L82.7123 228.474C82.8818 228.14 83.2166 227.922 83.5907 227.901L101.577 226.929Z" stroke="#AA5507" stroke-opacity="0.15" stroke-width="0.547833" stroke-linecap="round" stroke-linejoin="round"/>
<path d="M269.33 117.085C269.704 117.065 270.06 117.246 270.265 117.56L280.1 132.65C280.304 132.964 280.326 133.363 280.156 133.697L272.005 149.759C271.836 150.093 271.501 150.312 271.127 150.332L253.141 151.304C252.767 151.324 252.41 151.143 252.206 150.829L242.371 135.739C242.167 135.425 242.145 135.026 242.315 134.692L250.466 118.63C250.635 118.296 250.97 118.078 251.344 118.057L269.33 117.085Z" stroke="#AA5507" stroke-opacity="0.15" stroke-width="0.547833" stroke-linecap="round" stroke-linejoin="round"/>
<path d="M190.696 272.038C191.07 272.018 191.426 272.199 191.631 272.513L201.465 287.603C201.67 287.917 201.691 288.316 201.522 288.65L193.371 304.712C193.201 305.046 192.866 305.264 192.492 305.284L174.506 306.256C174.132 306.277 173.776 306.096 173.571 305.782L163.737 290.692C163.532 290.378 163.511 289.979 163.68 289.645L171.831 273.583C172.001 273.249 172.336 273.03 172.71 273.01L190.696 272.038Z" stroke="#AA5507" stroke-opacity="0.12" stroke-width="0.547833" stroke-linecap="round" stroke-linejoin="round"/>
<path d="M358.402 162.287C358.776 162.267 359.132 162.448 359.337 162.762L369.171 177.852C369.376 178.166 369.398 178.565 369.228 178.899L361.077 194.961C360.907 195.295 360.572 195.513 360.198 195.534L342.213 196.506C341.839 196.526 341.482 196.345 341.278 196.031L331.443 180.941C331.238 180.627 331.217 180.228 331.386 179.894L339.537 163.832C339.707 163.498 340.042 163.279 340.416 163.259L358.402 162.287Z" stroke="#AA5507" stroke-opacity="0.15" stroke-width="0.547833" stroke-linecap="round" stroke-linejoin="round"/>
<path d="M279.767 317.24C280.141 317.219 280.498 317.4 280.702 317.714L290.537 332.804C290.742 333.118 290.763 333.517 290.594 333.851L282.442 349.914C282.273 350.248 281.938 350.466 281.564 350.486L263.578 351.458C263.204 351.478 262.848 351.297 262.643 350.984L252.808 335.893C252.604 335.58 252.582 335.18 252.752 334.846L260.903 318.784C261.073 318.45 261.407 318.232 261.781 318.212L279.767 317.24Z" stroke="#AA5507" stroke-opacity="0.12" stroke-width="0.547833" stroke-linecap="round" stroke-linejoin="round"/>
<path d="M304.255 232.198C304.629 232.178 304.986 232.359 305.19 232.673L315.025 247.763C315.229 248.077 315.251 248.476 315.082 248.81L306.93 264.872C306.761 265.206 306.426 265.424 306.052 265.445L288.066 266.417C287.692 266.437 287.336 266.256 287.131 265.942L277.296 250.852C277.092 250.538 277.07 250.139 277.24 249.805L285.391 233.743C285.56 233.409 285.895 233.19 286.269 233.17L304.255 232.198Z" stroke="#AA5507" stroke-opacity="0.15" stroke-width="0.547833" stroke-linecap="round" stroke-linejoin="round"/>
<path d="M225.621 387.151C225.995 387.131 226.351 387.312 226.556 387.625L236.39 402.716C236.595 403.029 236.617 403.429 236.447 403.763L228.296 419.825C228.126 420.159 227.791 420.377 227.417 420.397L209.432 421.369C209.058 421.39 208.701 421.209 208.497 420.895L198.662 405.805C198.457 405.491 198.436 405.092 198.605 404.758L206.756 388.695C206.926 388.361 207.261 388.143 207.635 388.123L225.621 387.151Z" stroke="#AA5507" stroke-opacity="0.08" stroke-width="0.547833" stroke-linecap="round" stroke-linejoin="round"/>
<path d="M215.136 187.09C215.51 187.069 215.867 187.25 216.071 187.564L225.906 202.654C226.111 202.968 226.132 203.367 225.963 203.701L217.812 219.763C217.642 220.097 217.307 220.316 216.933 220.336L198.947 221.308C198.573 221.328 198.217 221.147 198.012 220.833L188.178 205.743C187.973 205.429 187.951 205.03 188.121 204.696L196.272 188.634C196.442 188.3 196.776 188.082 197.151 188.062L215.136 187.09Z" stroke="#AA5507" stroke-opacity="0.15" stroke-width="0.547833" stroke-linecap="round" stroke-linejoin="round"/>
<path d="M136.502 342.042C136.876 342.022 137.232 342.203 137.437 342.517L147.272 357.607C147.476 357.921 147.498 358.32 147.328 358.654L139.177 374.716C139.008 375.05 138.673 375.268 138.299 375.289L120.313 376.261C119.939 376.281 119.582 376.1 119.378 375.786L109.543 360.696C109.338 360.382 109.317 359.983 109.486 359.649L117.638 343.587C117.807 343.253 118.142 343.034 118.516 343.014L136.502 342.042Z" stroke="#AA5507" stroke-opacity="0.12" stroke-width="0.547833" stroke-linecap="round" stroke-linejoin="round"/>
<path d="M126.112 141.795C126.486 141.775 126.843 141.956 127.047 142.27L136.882 157.36C137.086 157.674 137.108 158.073 136.938 158.407L128.787 174.469C128.618 174.803 128.283 175.021 127.909 175.042L109.923 176.014C109.549 176.034 109.192 175.853 108.988 175.539L99.1532 160.449C98.9487 160.135 98.9271 159.736 99.0966 159.402L107.248 143.34C107.417 143.006 107.752 142.787 108.126 142.767L126.112 141.795Z" stroke="#AA5507" stroke-opacity="0.15" stroke-width="0.547833" stroke-linecap="round" stroke-linejoin="round"/>
<path d="M47.4777 296.748C47.8516 296.728 48.2082 296.908 48.4127 297.222L58.2474 312.313C58.4519 312.626 58.4735 313.025 58.304 313.359L50.1528 329.422C49.9833 329.756 49.6484 329.974 49.2744 329.994L31.2885 330.966C30.9145 330.986 30.558 330.806 30.3535 330.492L20.5188 315.401C20.3143 315.088 20.2927 314.688 20.4622 314.354L28.6134 298.292C28.7829 297.958 29.1178 297.74 29.4918 297.72L47.4777 296.748Z" stroke="#AA5507" stroke-opacity="0.12" stroke-width="0.547833" stroke-linecap="round" stroke-linejoin="round"/>
<path d="M37.0408 96.5938C37.4148 96.5735 37.7713 96.7545 37.9758 97.0683L47.8105 112.158C48.015 112.472 48.0366 112.871 47.8671 113.205L39.7159 129.268C39.5464 129.602 39.2115 129.82 38.8375 129.84L20.8516 130.812C20.4776 130.832 20.1211 130.651 19.9166 130.338L10.0819 115.247C9.87741 114.934 9.85586 114.534 10.0253 114.2L18.1765 98.1383C18.346 97.8042 18.6809 97.586 19.0549 97.5657L37.0408 96.5938Z" stroke="#AA5507" stroke-opacity="0.15" stroke-width="0.547833" stroke-linecap="round" stroke-linejoin="round"/>
<path d="M120.877 41.7494C121.251 41.7292 121.608 41.9101 121.812 42.2239L131.647 57.3141C131.851 57.6279 131.873 58.0271 131.703 58.3611L123.552 74.4233C123.383 74.7573 123.048 74.9755 122.674 74.9958L104.688 75.9678C104.314 75.9881 103.957 75.8071 103.753 75.4933L93.9182 60.4031C93.7137 60.0892 93.6922 59.6901 93.8616 59.3561L102.013 43.2939C102.182 42.9599 102.517 42.7416 102.891 42.7214L120.877 41.7494Z" stroke="#AA5507" stroke-opacity="0.15" stroke-width="0.547833" stroke-linecap="round" stroke-linejoin="round"/>
<path d="M42.2426 196.702C42.6165 196.682 42.9731 196.863 43.1776 197.176L53.0123 212.267C53.2168 212.58 53.2384 212.98 53.0689 213.314L44.9177 229.376C44.7482 229.71 44.4133 229.928 44.0393 229.948L26.0534 230.92C25.6794 230.941 25.3228 230.76 25.1184 230.446L15.2837 215.356C15.0792 215.042 15.0576 214.643 15.2271 214.309L23.3783 198.246C23.5478 197.912 23.8827 197.694 24.2567 197.674L42.2426 196.702Z" stroke="#AA5507" stroke-opacity="0.15" stroke-width="0.547833" stroke-linecap="round" stroke-linejoin="round"/>
<path d="M209.902 87.044C210.276 87.0238 210.632 87.2047 210.837 87.5185L220.671 102.609C220.876 102.923 220.897 103.322 220.728 103.656L212.577 119.718C212.407 120.052 212.072 120.27 211.698 120.29L193.712 121.262C193.338 121.283 192.982 121.102 192.777 120.788L182.943 105.698C182.738 105.384 182.717 104.985 182.886 104.651L191.037 88.5885C191.207 88.2544 191.542 88.0362 191.916 88.016L209.902 87.044Z" stroke="#AA5507" stroke-opacity="0.15" stroke-width="0.547833" stroke-linecap="round" stroke-linejoin="round"/>
<path d="M131.267 241.997C131.641 241.976 131.998 242.157 132.202 242.471L142.037 257.561C142.241 257.875 142.263 258.274 142.094 258.608L133.942 274.67C133.773 275.004 133.438 275.223 133.064 275.243L115.078 276.215C114.704 276.235 114.348 276.054 114.143 275.74L104.308 260.65C104.104 260.336 104.082 259.937 104.252 259.603L112.403 243.541C112.572 243.207 112.907 242.989 113.281 242.969L131.267 241.997Z" stroke="#AA5507" stroke-opacity="0.15" stroke-width="0.547833" stroke-linecap="round" stroke-linejoin="round"/>
<path d="M299.021 132.153C299.395 132.132 299.751 132.313 299.956 132.627L309.79 147.717C309.995 148.031 310.016 148.43 309.847 148.764L301.696 164.827C301.526 165.161 301.191 165.379 300.817 165.399L282.831 166.371C282.457 166.391 282.101 166.21 281.896 165.897L272.062 150.806C271.857 150.493 271.836 150.093 272.005 149.759L280.156 133.697C280.326 133.363 280.661 133.145 281.035 133.125L299.021 132.153Z" stroke="#AA5507" stroke-opacity="0.15" stroke-width="0.547833" stroke-linecap="round" stroke-linejoin="round"/>
<path d="M220.386 287.105C220.76 287.085 221.117 287.266 221.321 287.58L231.156 302.67C231.36 302.984 231.382 303.383 231.212 303.717L223.061 319.779C222.892 320.113 222.557 320.331 222.183 320.352L204.197 321.324C203.823 321.344 203.466 321.163 203.262 320.849L193.427 305.759C193.223 305.445 193.201 305.046 193.371 304.712L201.522 288.65C201.691 288.316 202.026 288.097 202.4 288.077L220.386 287.105Z" stroke="#AA5507" stroke-opacity="0.12" stroke-width="0.547833" stroke-linecap="round" stroke-linejoin="round"/>
<path d="M388.093 177.354C388.467 177.334 388.823 177.515 389.028 177.829L398.862 192.919C399.067 193.233 399.088 193.632 398.919 193.966L390.768 210.028C390.598 210.362 390.263 210.581 389.889 210.601L371.903 211.573C371.529 211.593 371.173 211.412 370.968 211.098L361.134 196.008C360.929 195.694 360.908 195.295 361.077 194.961L369.228 178.899C369.398 178.565 369.733 178.347 370.107 178.326L388.093 177.354Z" stroke="#AA5507" stroke-opacity="0.15" stroke-width="0.547833" stroke-linecap="round" stroke-linejoin="round"/>
<path d="M302.474 198.922C302.848 198.901 303.205 199.082 303.409 199.396L313.244 214.486C313.448 214.8 313.47 215.199 313.3 215.533L305.149 231.596C304.98 231.93 304.645 232.148 304.271 232.168L286.285 233.14C285.911 233.16 285.554 232.979 285.35 232.666L275.515 217.575C275.311 217.262 275.289 216.862 275.459 216.528L283.61 200.466C283.779 200.132 284.114 199.914 284.488 199.894L302.474 198.922Z" stroke="#AA5507" stroke-opacity="0.15" stroke-width="0.547833" stroke-linecap="round" stroke-linejoin="round"/>
<path d="M213.402 153.72C213.776 153.7 214.133 153.881 214.337 154.195L224.172 169.285C224.376 169.599 224.398 169.998 224.229 170.332L216.077 186.394C215.908 186.728 215.573 186.946 215.199 186.966L197.213 187.938C196.839 187.959 196.483 187.778 196.278 187.464L186.443 172.374C186.239 172.06 186.217 171.661 186.387 171.327L194.538 155.265C194.708 154.93 195.042 154.712 195.416 154.692L213.402 153.72Z" stroke="#AA5507" stroke-opacity="0.15" stroke-width="0.547833" stroke-linecap="round" stroke-linejoin="round"/>
<path d="M124.44 108.303C124.814 108.283 125.17 108.463 125.375 108.777L135.209 123.867C135.414 124.181 135.436 124.58 135.266 124.914L127.115 140.977C126.945 141.311 126.61 141.529 126.236 141.549L108.251 142.521C107.877 142.541 107.52 142.36 107.316 142.047L97.4809 126.956C97.2763 126.643 97.2548 126.243 97.4243 125.909L105.575 109.847C105.745 109.513 106.08 109.295 106.454 109.275L124.44 108.303Z" stroke="#AA5507" stroke-opacity="0.15" stroke-width="0.547833" stroke-linecap="round" stroke-linejoin="round"/>
<path d="M309.458 332.307C309.832 332.287 310.189 332.468 310.393 332.782L320.228 347.872C320.432 348.186 320.454 348.585 320.284 348.919L312.133 364.981C311.964 365.315 311.629 365.533 311.255 365.553L293.269 366.525C292.895 366.546 292.538 366.365 292.334 366.051L282.499 350.961C282.295 350.647 282.273 350.248 282.443 349.914L290.594 333.852C290.763 333.517 291.098 333.299 291.472 333.279L309.458 332.307Z" stroke="#AA5507" stroke-opacity="0.12" stroke-width="0.547833" stroke-linecap="round" stroke-linejoin="round"/>
<path d="M223.84 353.874C224.214 353.854 224.57 354.035 224.775 354.349L234.609 369.439C234.814 369.753 234.835 370.152 234.666 370.486L226.515 386.548C226.345 386.882 226.01 387.1 225.636 387.121L207.65 388.093C207.276 388.113 206.92 387.932 206.715 387.618L196.881 372.528C196.676 372.214 196.655 371.815 196.824 371.481L204.975 355.419C205.145 355.085 205.48 354.867 205.854 354.846L223.84 353.874Z" stroke="#AA5507" stroke-opacity="0.12" stroke-width="0.547833" stroke-linecap="round" stroke-linejoin="round"/>
<path d="M134.768 308.673C135.142 308.652 135.498 308.833 135.703 309.147L145.537 324.237C145.742 324.551 145.764 324.95 145.594 325.284L137.443 341.347C137.273 341.68 136.938 341.899 136.564 341.919L118.579 342.891C118.205 342.911 117.848 342.73 117.644 342.417L107.809 327.326C107.604 327.012 107.583 326.613 107.752 326.279L115.903 310.217C116.073 309.883 116.408 309.665 116.782 309.645L134.768 308.673Z" stroke="#AA5507" stroke-opacity="0.12" stroke-width="0.547833" stroke-linecap="round" stroke-linejoin="round"/>
<path d="M45.8052 263.255C46.1792 263.235 46.5358 263.416 46.7402 263.73L56.575 278.82C56.7794 279.134 56.8011 279.533 56.6315 279.867L48.4804 295.929C48.3109 296.263 47.976 296.481 47.602 296.502L29.6161 297.474C29.2421 297.494 28.8855 297.313 28.6811 296.999L18.8464 281.909C18.6419 281.595 18.6203 281.196 18.7898 280.862L26.941 264.8C27.1105 264.466 27.4453 264.248 27.8194 264.227L45.8052 263.255Z" stroke="#AA5507" stroke-opacity="0.12" stroke-width="0.547833" stroke-linecap="round" stroke-linejoin="round"/>
<path d="M333.946 247.265C334.32 247.245 334.676 247.426 334.881 247.74L344.716 262.83C344.92 263.144 344.942 263.543 344.772 263.877L336.621 279.939C336.451 280.273 336.117 280.492 335.743 280.512L317.757 281.484C317.383 281.504 317.026 281.323 316.822 281.009L306.987 265.919C306.782 265.605 306.761 265.206 306.93 264.872L315.082 248.81C315.251 248.476 315.586 248.258 315.96 248.237L333.946 247.265Z" stroke="#AA5507" stroke-opacity="0.15" stroke-width="0.547833" stroke-linecap="round" stroke-linejoin="round"/>
<path d="M255.311 402.218C255.685 402.198 256.042 402.379 256.246 402.693L266.081 417.783C266.285 418.097 266.307 418.496 266.138 418.83L257.986 434.892C257.817 435.226 257.482 435.444 257.108 435.464L239.122 436.436C238.748 436.457 238.392 436.276 238.187 435.962L228.352 420.872C228.148 420.558 228.126 420.159 228.296 419.825L236.447 403.763C236.617 403.429 236.951 403.21 237.325 403.19L255.311 402.218Z" stroke="#AA5507" stroke-opacity="0.08" stroke-width="0.547833" stroke-linecap="round" stroke-linejoin="round"/>
<path d="M244.827 202.157C245.201 202.137 245.557 202.317 245.762 202.631L255.597 217.722C255.801 218.035 255.823 218.434 255.653 218.768L247.502 234.831C247.333 235.165 246.998 235.383 246.624 235.403L228.638 236.375C228.264 236.395 227.907 236.214 227.703 235.901L217.868 220.81C217.664 220.497 217.642 220.097 217.811 219.763L225.963 203.701C226.132 203.367 226.467 203.149 226.841 203.129L244.827 202.157Z" stroke="#AA5507" stroke-opacity="0.15" stroke-width="0.547833" stroke-linecap="round" stroke-linejoin="round"/>
<path d="M166.192 357.109C166.566 357.089 166.923 357.27 167.127 357.584L176.962 372.674C177.167 372.988 177.188 373.387 177.019 373.721L168.868 389.783C168.698 390.117 168.363 390.335 167.989 390.356L150.003 391.328C149.629 391.348 149.273 391.167 149.068 390.853L139.234 375.763C139.029 375.449 139.007 375.05 139.177 374.716L147.328 358.654C147.498 358.32 147.832 358.102 148.207 358.081L166.192 357.109Z" stroke="#AA5507" stroke-opacity="0.12" stroke-width="0.547833" stroke-linecap="round" stroke-linejoin="round"/>
<path d="M155.803 156.862C156.177 156.842 156.533 157.023 156.738 157.337L166.572 172.427C166.777 172.741 166.799 173.14 166.629 173.474L158.478 189.536C158.308 189.87 157.973 190.089 157.599 190.109L139.614 191.081C139.24 191.101 138.883 190.92 138.679 190.606L128.844 175.516C128.639 175.202 128.618 174.803 128.787 174.469L136.938 158.407C137.108 158.073 137.443 157.855 137.817 157.834L155.803 156.862Z" stroke="#AA5507" stroke-opacity="0.15" stroke-width="0.547833" stroke-linecap="round" stroke-linejoin="round"/>
<path d="M77.1682 311.815C77.5422 311.795 77.8987 311.976 78.1032 312.289L87.9379 327.38C88.1424 327.693 88.164 328.093 87.9945 328.427L79.8434 344.489C79.6739 344.823 79.3389 345.041 78.9649 345.061L60.9791 346.033C60.6051 346.054 60.2485 345.873 60.0441 345.559L50.2094 330.469C50.0048 330.155 49.9833 329.756 50.1528 329.422L58.3039 313.359C58.4735 313.025 58.8083 312.807 59.1824 312.787L77.1682 311.815Z" stroke="#AA5507" stroke-opacity="0.12" stroke-width="0.547833" stroke-linecap="round" stroke-linejoin="round"/>
<path d="M66.7313 111.661C67.1053 111.641 67.4619 111.822 67.6663 112.135L77.501 127.226C77.7055 127.539 77.7272 127.939 77.5576 128.273L69.4065 144.335C69.237 144.669 68.9021 144.887 68.5281 144.907L50.5422 145.879C50.1682 145.9 49.8116 145.719 49.6072 145.405L39.7725 130.315C39.568 130.001 39.5464 129.602 39.7159 129.268L47.867 113.205C48.0366 112.871 48.3714 112.653 48.7455 112.633L66.7313 111.661Z" stroke="#AA5507" stroke-opacity="0.15" stroke-width="0.547833" stroke-linecap="round" stroke-linejoin="round"/>
<path d="M-11.9031 266.614C-11.5291 266.593 -11.1725 266.774 -10.9681 267.088L-1.13335 282.178C-0.928875 282.492 -0.907244 282.891 -1.07676 283.225L-9.22793 299.287C-9.3974 299.621 -9.73234 299.84 -10.1063 299.86L-28.0922 300.832C-28.4662 300.852 -28.8228 300.671 -29.0272 300.357L-38.8619 285.267C-39.0664 284.953 -39.088 284.554 -38.9185 284.22L-30.7674 268.158C-30.5978 267.824 -30.263 267.606 -29.8889 267.586L-11.9031 266.614Z" stroke="#AA5507" stroke-opacity="0.15" stroke-width="0.547833" stroke-linecap="round" stroke-linejoin="round"/>
<path d="M119.143 8.3798C119.517 8.35957 119.873 8.54051 120.078 8.85431L129.913 23.9445C130.117 24.2583 130.139 24.6575 129.969 24.9915L121.818 41.0537C121.648 41.3877 121.314 41.6059 120.94 41.6262L102.954 42.5982C102.58 42.6185 102.223 42.4375 102.019 42.1237L92.184 27.0335C91.9795 26.7196 91.9579 26.3205 92.1274 25.9865L100.279 9.92429C100.448 9.59024 100.783 9.372 101.157 9.35179L119.143 8.3798Z" stroke="#AA5507" stroke-opacity="0.15" stroke-width="0.547833" stroke-linecap="round" stroke-linejoin="round"/>
<path d="M40.5084 163.332C40.8824 163.312 41.239 163.493 41.4434 163.807L51.2781 178.897C51.4826 179.211 51.5043 179.61 51.3347 179.944L43.1836 196.006C43.0141 196.34 42.6792 196.558 42.3052 196.579L24.3193 197.551C23.9453 197.571 23.5887 197.39 23.3843 197.076L13.5496 181.986C13.3451 181.672 13.3235 181.273 13.493 180.939L21.6441 164.877C21.8137 164.543 22.1485 164.325 22.5226 164.304L40.5084 163.332Z" stroke="#AA5507" stroke-opacity="0.15" stroke-width="0.547833" stroke-linecap="round" stroke-linejoin="round"/>
<path d="M208.167 53.6744C208.541 53.6542 208.898 53.8351 209.102 54.1489L218.937 69.2391C219.142 69.5529 219.163 69.952 218.994 70.2861L210.843 86.3483C210.673 86.6823 210.338 86.9005 209.964 86.9208L191.978 87.8928C191.604 87.913 191.248 87.7321 191.043 87.4183L181.209 72.3281C181.004 72.0142 180.983 71.615 181.152 71.2811L189.303 55.2189C189.473 54.8848 189.808 54.6666 190.182 54.6464L208.167 53.6744Z" stroke="#AA5507" stroke-opacity="0.15" stroke-width="0.547833" stroke-linecap="round" stroke-linejoin="round"/>
<path d="M129.533 208.627C129.907 208.607 130.263 208.788 130.468 209.101L140.303 224.192C140.507 224.505 140.529 224.905 140.359 225.239L132.208 241.301C132.039 241.635 131.704 241.853 131.33 241.873L113.344 242.845C112.97 242.866 112.613 242.685 112.409 242.371L102.574 227.281C102.37 226.967 102.348 226.568 102.518 226.234L110.669 210.171C110.838 209.837 111.173 209.619 111.547 209.599L129.533 208.627Z" stroke="#AA5507" stroke-opacity="0.15" stroke-width="0.547833" stroke-linecap="round" stroke-linejoin="round"/>
<path d="M297.286 98.7831C297.66 98.7629 298.017 98.9438 298.221 99.2576L308.056 114.348C308.261 114.662 308.282 115.061 308.113 115.395L299.962 131.457C299.792 131.791 299.457 132.009 299.083 132.029L281.097 133.001C280.723 133.022 280.367 132.841 280.162 132.527L270.328 117.437C270.123 117.123 270.101 116.724 270.271 116.39L278.422 100.328C278.592 99.9935 278.926 99.7753 279.301 99.7551L297.286 98.7831Z" stroke="#AA5507" stroke-opacity="0.15" stroke-width="0.547833" stroke-linecap="round" stroke-linejoin="round"/>
<path d="M218.652 253.736C219.026 253.715 219.383 253.896 219.587 254.21L229.422 269.3C229.626 269.614 229.648 270.013 229.478 270.347L221.327 286.41C221.158 286.744 220.823 286.962 220.449 286.982L202.463 287.954C202.089 287.974 201.732 287.793 201.528 287.48L191.693 272.389C191.489 272.075 191.467 271.676 191.637 271.342L199.788 255.28C199.957 254.946 200.292 254.728 200.666 254.708L218.652 253.736Z" stroke="#AA5507" stroke-opacity="0.15" stroke-width="0.547833" stroke-linecap="round" stroke-linejoin="round"/>
<path d="M386.358 143.985C386.732 143.965 387.089 144.145 387.293 144.459L397.128 159.549C397.332 159.863 397.354 160.262 397.184 160.596L389.033 176.659C388.864 176.993 388.529 177.211 388.155 177.231L370.169 178.203C369.795 178.223 369.438 178.042 369.234 177.729L359.399 162.638C359.195 162.325 359.173 161.925 359.343 161.591L367.494 145.529C367.663 145.195 367.998 144.977 368.372 144.957L386.358 143.985Z" stroke="#AA5507" stroke-opacity="0.15" stroke-width="0.547833" stroke-linecap="round" stroke-linejoin="round"/>
<path d="M307.724 298.937C308.098 298.917 308.454 299.098 308.659 299.412L318.493 314.502C318.698 314.816 318.719 315.215 318.55 315.549L310.399 331.611C310.229 331.945 309.894 332.163 309.52 332.184L291.534 333.156C291.16 333.176 290.804 332.995 290.599 332.681L280.765 317.591C280.56 317.277 280.539 316.878 280.708 316.544L288.859 300.482C289.029 300.148 289.364 299.93 289.738 299.909L307.724 298.937Z" stroke="#AA5507" stroke-opacity="0.12" stroke-width="0.547833" stroke-linecap="round" stroke-linejoin="round"/>
<path d="M356.667 128.917C357.041 128.897 357.398 129.078 357.602 129.392L367.437 144.482C367.642 144.796 367.663 145.195 367.494 145.529L359.343 161.591C359.173 161.925 358.838 162.144 358.464 162.164L340.478 163.136C340.104 163.156 339.748 162.975 339.543 162.661L329.709 147.571C329.504 147.257 329.483 146.858 329.652 146.524L337.803 130.462C337.973 130.128 338.308 129.91 338.682 129.889L356.667 128.917Z" stroke="#AA5507" stroke-opacity="0.15" stroke-width="0.547833" stroke-linecap="round" stroke-linejoin="round"/>
<path d="M278.033 283.87C278.407 283.85 278.764 284.031 278.968 284.345L288.803 299.435C289.007 299.749 289.029 300.148 288.859 300.482L280.708 316.544C280.539 316.878 280.204 317.096 279.83 317.116L261.844 318.088C261.47 318.109 261.113 317.928 260.909 317.614L251.074 302.524C250.87 302.21 250.848 301.811 251.018 301.477L259.169 285.415C259.338 285.081 259.673 284.862 260.047 284.842L278.033 283.87Z" stroke="#AA5507" stroke-opacity="0.12" stroke-width="0.547833" stroke-linecap="round" stroke-linejoin="round"/>
<path d="M276.346 250.408C276.72 250.388 277.077 250.569 277.281 250.883L287.116 265.973C287.32 266.287 287.342 266.686 287.172 267.02L279.021 283.082C278.852 283.416 278.517 283.634 278.143 283.655L260.157 284.627C259.783 284.647 259.426 284.466 259.222 284.152L249.387 269.062C249.183 268.748 249.161 268.349 249.331 268.015L257.482 251.953C257.651 251.619 257.986 251.4 258.36 251.38L276.346 250.408Z" stroke="#AA5507" stroke-opacity="0.15" stroke-width="0.547833" stroke-linecap="round" stroke-linejoin="round"/>
<path d="M197.712 405.361C198.086 405.341 198.442 405.521 198.647 405.835L208.481 420.926C208.686 421.239 208.707 421.638 208.538 421.972L200.387 438.035C200.217 438.369 199.882 438.587 199.508 438.607L181.522 439.579C181.148 439.599 180.792 439.419 180.587 439.105L170.753 424.014C170.548 423.701 170.527 423.301 170.696 422.967L178.847 406.905C179.017 406.571 179.352 406.353 179.726 406.333L197.712 405.361Z" stroke="#AA5507" stroke-opacity="0.08" stroke-width="0.547833" stroke-linecap="round" stroke-linejoin="round"/>
<path d="M187.274 205.207C187.648 205.186 188.005 205.367 188.209 205.681L198.044 220.771C198.249 221.085 198.27 221.484 198.101 221.818L189.95 237.881C189.78 238.215 189.445 238.433 189.071 238.453L171.085 239.425C170.711 239.445 170.355 239.264 170.15 238.951L160.316 223.86C160.111 223.546 160.09 223.147 160.259 222.813L168.41 206.751C168.58 206.417 168.915 206.199 169.289 206.179L187.274 205.207Z" stroke="#AA5507" stroke-opacity="0.15" stroke-width="0.547833" stroke-linecap="round" stroke-linejoin="round"/>
<path d="M108.64 360.159C109.014 360.139 109.371 360.32 109.575 360.634L119.41 375.724C119.614 376.038 119.636 376.437 119.466 376.771L111.315 392.833C111.146 393.167 110.811 393.385 110.437 393.406L92.4509 394.378C92.0769 394.398 91.7203 394.217 91.5159 393.903L81.6812 378.813C81.4767 378.499 81.4551 378.1 81.6246 377.766L89.7757 361.704C89.9453 361.37 90.2801 361.151 90.6542 361.131L108.64 360.159Z" stroke="#AA5507" stroke-opacity="0.12" stroke-width="0.547833" stroke-linecap="round" stroke-linejoin="round"/>
<path d="M98.2023 160.005C98.5763 159.985 98.9328 160.166 99.1373 160.479L108.972 175.57C109.176 175.883 109.198 176.282 109.029 176.617L100.877 192.679C100.708 193.013 100.373 193.231 99.999 193.251L82.0131 194.223C81.6391 194.243 81.2826 194.063 81.0781 193.749L71.2434 178.658C71.0389 178.345 71.0174 177.945 71.1868 177.612L79.338 161.549C79.5075 161.215 79.8424 160.997 80.2164 160.977L98.2023 160.005Z" stroke="#AA5507" stroke-opacity="0.15" stroke-width="0.547833" stroke-linecap="round" stroke-linejoin="round"/>
<path d="M19.5678 314.957C19.9417 314.937 20.2983 315.118 20.5028 315.432L30.3375 330.522C30.542 330.836 30.5636 331.235 30.3941 331.569L22.2429 347.631C22.0734 347.965 21.7385 348.184 21.3645 348.204L3.3786 349.176C3.00459 349.196 2.64804 349.015 2.44359 348.701L-7.3911 333.611C-7.59561 333.297 -7.61716 332.898 -7.44769 332.564L0.703472 316.502C0.872993 316.168 1.20785 315.95 1.5819 315.929L19.5678 314.957Z" stroke="#AA5507" stroke-opacity="0.15" stroke-width="0.547833" stroke-linecap="round" stroke-linejoin="round"/>
<path d="M332.212 213.896C332.586 213.876 332.942 214.057 333.147 214.37L342.981 229.461C343.186 229.774 343.208 230.174 343.038 230.508L334.887 246.57C334.717 246.904 334.382 247.122 334.008 247.142L316.023 248.114C315.649 248.135 315.292 247.954 315.088 247.64L305.253 232.55C305.048 232.236 305.027 231.837 305.196 231.503L313.347 215.44C313.517 215.106 313.852 214.888 314.226 214.868L332.212 213.896Z" stroke="#AA5507" stroke-opacity="0.15" stroke-width="0.547833" stroke-linecap="round" stroke-linejoin="round"/>
<path d="M253.577 368.848C253.951 368.828 254.308 369.009 254.512 369.323L264.347 384.413C264.551 384.727 264.573 385.126 264.403 385.46L256.252 401.522C256.083 401.856 255.748 402.075 255.374 402.095L237.388 403.067C237.014 403.087 236.657 402.906 236.453 402.592L226.618 387.502C226.414 387.188 226.392 386.789 226.562 386.455L234.713 370.393C234.882 370.059 235.217 369.841 235.591 369.82L253.577 368.848Z" stroke="#AA5507" stroke-opacity="0.12" stroke-width="0.547833" stroke-linecap="round" stroke-linejoin="round"/>
<path d="M243.093 168.787C243.467 168.767 243.823 168.948 244.028 169.262L253.862 184.352C254.067 184.666 254.088 185.065 253.919 185.399L245.768 201.461C245.598 201.795 245.263 202.013 244.889 202.034L226.903 203.006C226.529 203.026 226.173 202.845 225.968 202.531L216.134 187.441C215.929 187.127 215.908 186.728 216.077 186.394L224.228 170.332C224.398 169.998 224.733 169.779 225.107 169.759L243.093 168.787Z" stroke="#AA5507" stroke-opacity="0.15" stroke-width="0.547833" stroke-linecap="round" stroke-linejoin="round"/>
<path d="M164.458 323.74C164.832 323.72 165.189 323.9 165.393 324.214L175.228 339.305C175.432 339.618 175.454 340.017 175.285 340.351L167.133 356.414C166.964 356.748 166.629 356.966 166.255 356.986L148.269 357.958C147.895 357.978 147.539 357.798 147.334 357.484L137.499 342.393C137.295 342.08 137.273 341.68 137.443 341.346L145.594 325.284C145.763 324.95 146.098 324.732 146.472 324.712L164.458 323.74Z" stroke="#AA5507" stroke-opacity="0.12" stroke-width="0.547833" stroke-linecap="round" stroke-linejoin="round"/>
<path d="M154.068 123.493C154.442 123.473 154.799 123.654 155.003 123.967L164.838 139.058C165.043 139.371 165.064 139.77 164.895 140.105L156.744 156.167C156.574 156.501 156.239 156.719 155.865 156.739L137.879 157.711C137.505 157.731 137.149 157.551 136.944 157.237L127.11 142.146C126.905 141.833 126.884 141.433 127.053 141.1L135.204 125.037C135.374 124.703 135.709 124.485 136.083 124.465L154.068 123.493Z" stroke="#AA5507" stroke-opacity="0.15" stroke-width="0.547833" stroke-linecap="round" stroke-linejoin="round"/>
<path d="M75.4341 278.445C75.8081 278.425 76.1646 278.606 76.3691 278.92L86.2038 294.01C86.4083 294.324 86.4299 294.723 86.2604 295.057L78.1092 311.119C77.9398 311.453 77.6048 311.671 77.2308 311.692L59.2449 312.664C58.8709 312.684 58.5144 312.503 58.3099 312.189L48.4752 297.099C48.2707 296.785 48.2492 296.386 48.4186 296.052L56.5698 279.99C56.7393 279.656 57.0742 279.438 57.4482 279.417L75.4341 278.445Z" stroke="#AA5507" stroke-opacity="0.12" stroke-width="0.547833" stroke-linecap="round" stroke-linejoin="round"/>
<path d="M64.9972 78.2914C65.3712 78.2711 65.7277 78.4521 65.9322 78.7659L75.7669 93.8561C75.9714 94.1699 75.993 94.569 75.8235 94.9031L67.6723 110.965C67.5029 111.299 67.1679 111.517 66.7939 111.538L48.808 112.51C48.434 112.53 48.0775 112.349 47.873 112.035L38.0383 96.945C37.8338 96.6312 37.8123 96.232 37.9818 95.8981L46.1329 79.8359C46.3024 79.5018 46.6373 79.2836 47.0113 79.2634L64.9972 78.2914Z" stroke="#AA5507" stroke-opacity="0.15" stroke-width="0.547833" stroke-linecap="round" stroke-linejoin="round"/>
<path d="M-13.6373 233.244C-13.2633 233.224 -12.9067 233.405 -12.7023 233.718L-2.86754 248.809C-2.66307 249.122 -2.64144 249.522 -2.81096 249.856L-10.9621 265.918C-11.1316 266.252 -11.4665 266.47 -11.8405 266.49L-29.8264 267.462C-30.2004 267.483 -30.557 267.302 -30.7614 266.988L-40.5961 251.898C-40.8006 251.584 -40.8222 251.185 -40.6527 250.851L-32.5015 234.788C-32.332 234.454 -31.9972 234.236 -31.6231 234.216L-13.6373 233.244Z" stroke="#AA5507" stroke-opacity="0.15" stroke-width="0.547833" stroke-linecap="round" stroke-linejoin="round"/>
<path d="M148.833 23.447C149.207 23.4268 149.564 23.6077 149.769 23.9215L159.603 39.0118C159.808 39.3255 159.829 39.7247 159.66 40.0587L151.509 56.1209C151.339 56.4549 151.004 56.6731 150.63 56.6934L132.644 57.6654C132.27 57.6857 131.914 57.5047 131.709 57.1909L121.875 42.1007C121.67 41.7868 121.649 41.3877 121.818 41.0537L129.969 24.9915C130.139 24.6575 130.474 24.4392 130.848 24.419L148.833 23.447Z" stroke="#AA5507" stroke-opacity="0.15" stroke-width="0.547833" stroke-linecap="round" stroke-linejoin="round"/>
<path d="M178.525 38.5145C178.899 38.4942 179.255 38.6752 179.46 38.989L189.294 54.0792C189.499 54.393 189.52 54.7921 189.351 55.1262L181.2 71.1884C181.03 71.5223 180.695 71.7406 180.321 71.7609L162.335 72.7328C161.961 72.7531 161.605 72.5722 161.4 72.2584L151.566 57.1681C151.361 56.8543 151.34 56.4551 151.509 56.1212L159.66 40.059C159.83 39.7249 160.165 39.5067 160.539 39.4865L178.525 38.5145Z" stroke="#AA5507" stroke-opacity="0.15" stroke-width="0.547833" stroke-linecap="round" stroke-linejoin="round"/>
<path d="M267.549 83.8089C267.923 83.7887 268.279 83.9696 268.484 84.2834L278.319 99.3736C278.523 99.6874 278.545 100.087 278.375 100.421L270.224 116.483C270.055 116.817 269.72 117.035 269.346 117.055L251.36 118.027C250.986 118.048 250.629 117.867 250.425 117.553L240.59 102.463C240.385 102.149 240.364 101.75 240.533 101.416L248.685 85.3534C248.854 85.0193 249.189 84.8011 249.563 84.7809L267.549 83.8089Z" stroke="#AA5507" stroke-opacity="0.15" stroke-width="0.547833" stroke-linecap="round" stroke-linejoin="round"/>
<path d="M70.199 178.4C70.573 178.379 70.9295 178.56 71.134 178.874L80.9687 193.964C81.1732 194.278 81.1948 194.677 81.0253 195.011L72.8741 211.073C72.7046 211.407 72.3697 211.626 71.9957 211.646L54.0098 212.618C53.6358 212.638 53.2793 212.457 53.0748 212.143L43.2401 197.053C43.0356 196.739 43.0141 196.34 43.1835 196.006L51.3347 179.944C51.5042 179.61 51.8391 179.392 52.2131 179.372L70.199 178.4Z" stroke="#AA5507" stroke-opacity="0.15" stroke-width="0.547833" stroke-linecap="round" stroke-linejoin="round"/>
<path d="M99.89 193.467C100.264 193.447 100.621 193.628 100.825 193.942L110.66 209.032C110.864 209.346 110.886 209.745 110.716 210.079L102.565 226.141C102.396 226.475 102.061 226.693 101.687 226.713L83.7009 227.685C83.3269 227.706 82.9703 227.525 82.7659 227.211L72.9312 212.121C72.7267 211.807 72.7051 211.408 72.8746 211.074L81.0257 195.011C81.1953 194.677 81.5301 194.459 81.9042 194.439L99.89 193.467Z" stroke="#AA5507" stroke-opacity="0.15" stroke-width="0.547833" stroke-linecap="round" stroke-linejoin="round"/>
<path d="M188.914 238.761C189.288 238.741 189.645 238.922 189.849 239.236L199.684 254.326C199.889 254.64 199.91 255.039 199.741 255.373L191.589 271.435C191.42 271.769 191.085 271.988 190.711 272.008L172.725 272.98C172.351 273 171.995 272.819 171.79 272.505L161.955 257.415C161.751 257.101 161.729 256.702 161.899 256.368L170.05 240.306C170.22 239.972 170.554 239.754 170.928 239.733L188.914 238.761Z" stroke="#AA5507" stroke-opacity="0.15" stroke-width="0.547833" stroke-linecap="round" stroke-linejoin="round"/>
<path d="M237.858 68.7416C238.232 68.7214 238.589 68.9023 238.793 69.2161L248.628 84.3063C248.832 84.6201 248.854 85.0193 248.684 85.3533L240.533 101.416C240.364 101.749 240.029 101.968 239.655 101.988L221.669 102.96C221.295 102.98 220.938 102.799 220.734 102.485L210.899 87.3953C210.695 87.0814 210.673 86.6823 210.843 86.3483L218.994 70.2861C219.163 69.9521 219.498 69.7338 219.872 69.7136L237.858 68.7416Z" stroke="#AA5507" stroke-opacity="0.15" stroke-width="0.547833" stroke-linecap="round" stroke-linejoin="round"/>
<path d="M159.224 223.694C159.598 223.674 159.954 223.855 160.159 224.169L169.993 239.259C170.198 239.573 170.219 239.972 170.05 240.306L161.899 256.368C161.729 256.702 161.394 256.92 161.02 256.941L143.034 257.913C142.66 257.933 142.304 257.752 142.099 257.438L132.265 242.348C132.06 242.034 132.039 241.635 132.208 241.301L140.359 225.239C140.529 224.905 140.864 224.686 141.238 224.666L159.224 223.694Z" stroke="#AA5507" stroke-opacity="0.15" stroke-width="0.547833" stroke-linecap="round" stroke-linejoin="round"/>
<path d="M326.977 113.85C327.351 113.83 327.707 114.011 327.912 114.325L337.747 129.415C337.951 129.729 337.973 130.128 337.803 130.462L329.652 146.524C329.483 146.858 329.148 147.076 328.774 147.097L310.788 148.069C310.414 148.089 310.057 147.908 309.853 147.594L300.018 132.504C299.814 132.19 299.792 131.791 299.961 131.457L308.113 115.395C308.282 115.061 308.617 114.843 308.991 114.822L326.977 113.85Z" stroke="#AA5507" stroke-opacity="0.15" stroke-width="0.547833" stroke-linecap="round" stroke-linejoin="round"/>
<path d="M248.343 268.803C248.717 268.783 249.073 268.964 249.278 269.277L259.112 284.368C259.317 284.681 259.338 285.081 259.169 285.415L251.018 301.477C250.848 301.811 250.513 302.029 250.139 302.049L232.153 303.021C231.779 303.042 231.423 302.861 231.218 302.547L221.384 287.457C221.179 287.143 221.158 286.744 221.327 286.41L229.478 270.347C229.648 270.013 229.983 269.795 230.357 269.775L248.343 268.803Z" stroke="#AA5507" stroke-opacity="0.12" stroke-width="0.547833" stroke-linecap="round" stroke-linejoin="round"/>
<path d="M330.43 180.619C330.804 180.599 331.161 180.78 331.365 181.094L341.2 196.184C341.404 196.498 341.426 196.897 341.257 197.231L333.105 213.293C332.936 213.627 332.601 213.845 332.227 213.866L314.241 214.838C313.867 214.858 313.511 214.677 313.306 214.363L303.471 199.273C303.267 198.959 303.245 198.56 303.415 198.226L311.566 182.164C311.735 181.83 312.07 181.611 312.444 181.591L330.43 180.619Z" stroke="#AA5507" stroke-opacity="0.15" stroke-width="0.547833" stroke-linecap="round" stroke-linejoin="round"/>
<path d="M241.358 135.417C241.732 135.397 242.089 135.578 242.293 135.892L252.128 150.982C252.333 151.296 252.354 151.695 252.185 152.029L244.034 168.091C243.864 168.425 243.529 168.644 243.155 168.664L225.169 169.636C224.795 169.656 224.439 169.475 224.234 169.161L214.4 154.071C214.195 153.757 214.173 153.358 214.343 153.024L222.494 136.962C222.664 136.628 222.999 136.41 223.373 136.389L241.358 135.417Z" stroke="#AA5507" stroke-opacity="0.15" stroke-width="0.547833" stroke-linecap="round" stroke-linejoin="round"/>
<path d="M152.396 90.0003C152.77 89.9801 153.127 90.1611 153.331 90.4749L163.166 105.565C163.37 105.879 163.392 106.278 163.222 106.612L155.071 122.674C154.902 123.008 154.567 123.226 154.193 123.247L136.207 124.219C135.833 124.239 135.476 124.058 135.272 123.744L125.437 108.654C125.233 108.34 125.211 107.941 125.381 107.607L133.532 91.5448C133.701 91.2108 134.036 90.9925 134.41 90.9723L152.396 90.0003Z" stroke="#AA5507" stroke-opacity="0.15" stroke-width="0.547833" stroke-linecap="round" stroke-linejoin="round"/>
<path d="M337.414 314.004C337.788 313.984 338.145 314.165 338.349 314.479L348.184 329.569C348.388 329.883 348.41 330.282 348.24 330.616L340.089 346.678C339.92 347.012 339.585 347.231 339.211 347.251L321.225 348.223C320.851 348.243 320.494 348.062 320.29 347.748L310.455 332.658C310.251 332.344 310.229 331.945 310.399 331.611L318.55 315.549C318.719 315.215 319.054 314.997 319.428 314.976L337.414 314.004Z" stroke="#AA5507" stroke-opacity="0.12" stroke-width="0.547833" stroke-linecap="round" stroke-linejoin="round"/>
<path d="M251.796 335.572C252.17 335.552 252.526 335.732 252.731 336.046L262.565 351.136C262.77 351.45 262.792 351.849 262.622 352.183L254.471 368.246C254.301 368.58 253.966 368.798 253.592 368.818L235.607 369.79C235.233 369.81 234.876 369.629 234.672 369.316L224.837 354.225C224.632 353.912 224.611 353.512 224.78 353.178L232.931 337.116C233.101 336.782 233.436 336.564 233.81 336.544L251.796 335.572Z" stroke="#AA5507" stroke-opacity="0.12" stroke-width="0.547833" stroke-linecap="round" stroke-linejoin="round"/>
<path d="M162.724 290.37C163.098 290.35 163.454 290.531 163.659 290.845L173.494 305.935C173.698 306.249 173.72 306.648 173.55 306.982L165.399 323.044C165.23 323.378 164.895 323.596 164.521 323.616L146.535 324.588C146.161 324.609 145.804 324.428 145.6 324.114L135.765 309.024C135.561 308.71 135.539 308.311 135.708 307.977L143.86 291.915C144.029 291.58 144.364 291.362 144.738 291.342L162.724 290.37Z" stroke="#AA5507" stroke-opacity="0.12" stroke-width="0.547833" stroke-linecap="round" stroke-linejoin="round"/>
<path d="M73.7616 244.953C74.1356 244.933 74.4921 245.114 74.6966 245.427L84.5313 260.518C84.7358 260.831 84.7574 261.231 84.5879 261.565L76.4367 277.627C76.2673 277.961 75.9323 278.179 75.5583 278.199L57.5724 279.171C57.1984 279.192 56.8419 279.011 56.6374 278.697L46.8027 263.607C46.5982 263.293 46.5767 262.894 46.7462 262.56L54.8973 246.497C55.0668 246.163 55.4017 245.945 55.7758 245.925L73.7616 244.953Z" stroke="#AA5507" stroke-opacity="0.12" stroke-width="0.547833" stroke-linecap="round" stroke-linejoin="round"/>
<path d="M361.902 228.963C362.276 228.943 362.633 229.124 362.837 229.438L372.672 244.528C372.876 244.842 372.898 245.241 372.729 245.575L364.577 261.637C364.408 261.971 364.073 262.189 363.699 262.21L345.713 263.181C345.339 263.202 344.983 263.021 344.778 262.707L334.943 247.617C334.739 247.303 334.717 246.904 334.887 246.57L343.038 230.508C343.207 230.174 343.542 229.955 343.916 229.935L361.902 228.963Z" stroke="#AA5507" stroke-opacity="0.15" stroke-width="0.547833" stroke-linecap="round" stroke-linejoin="round"/>
<path d="M283.268 383.916C283.642 383.895 283.998 384.076 284.203 384.39L294.037 399.48C294.242 399.794 294.264 400.193 294.094 400.527L285.943 416.59C285.773 416.924 285.438 417.142 285.064 417.162L267.079 418.134C266.705 418.154 266.348 417.973 266.144 417.66L256.309 402.569C256.104 402.255 256.083 401.856 256.252 401.522L264.403 385.46C264.573 385.126 264.908 384.908 265.282 384.888L283.268 383.916Z" stroke="#AA5507" stroke-opacity="0.08" stroke-width="0.547833" stroke-linecap="round" stroke-linejoin="round"/>
<path d="M272.783 183.854C273.157 183.834 273.514 184.015 273.718 184.329L283.553 199.419C283.758 199.733 283.779 200.132 283.61 200.466L275.458 216.528C275.289 216.862 274.954 217.08 274.58 217.101L256.594 218.073C256.22 218.093 255.864 217.912 255.659 217.598L245.824 202.508C245.62 202.194 245.598 201.795 245.768 201.461L253.919 185.399C254.089 185.065 254.423 184.847 254.797 184.826L272.783 183.854Z" stroke="#AA5507" stroke-opacity="0.15" stroke-width="0.547833" stroke-linecap="round" stroke-linejoin="round"/>
<path d="M194.149 338.807C194.523 338.787 194.879 338.968 195.084 339.281L204.919 354.372C205.123 354.685 205.145 355.085 204.975 355.419L196.824 371.481C196.654 371.815 196.32 372.033 195.946 372.053L177.96 373.025C177.586 373.046 177.229 372.865 177.025 372.551L167.19 357.461C166.985 357.147 166.964 356.748 167.133 356.414L175.285 340.351C175.454 340.017 175.789 339.799 176.163 339.779L194.149 338.807Z" stroke="#AA5507" stroke-opacity="0.12" stroke-width="0.547833" stroke-linecap="round" stroke-linejoin="round"/>
<path d="M183.759 138.56C184.133 138.54 184.49 138.721 184.694 139.035L194.529 154.125C194.733 154.439 194.755 154.838 194.585 155.172L186.434 171.234C186.265 171.568 185.93 171.786 185.556 171.806L167.57 172.778C167.196 172.799 166.839 172.618 166.635 172.304L156.8 157.214C156.596 156.9 156.574 156.501 156.744 156.167L164.895 140.105C165.064 139.77 165.399 139.552 165.773 139.532L183.759 138.56Z" stroke="#AA5507" stroke-opacity="0.15" stroke-width="0.547833" stroke-linecap="round" stroke-linejoin="round"/>
<path d="M105.125 293.513C105.499 293.492 105.855 293.673 106.06 293.987L115.894 309.077C116.099 309.391 116.12 309.79 115.951 310.124L107.8 326.187C107.63 326.52 107.295 326.739 106.921 326.759L88.9355 327.731C88.5615 327.751 88.2049 327.57 88.0005 327.256L78.1658 312.166C77.9613 311.852 77.9397 311.453 78.1092 311.119L86.2604 295.057C86.4299 294.723 86.7647 294.505 87.1388 294.485L105.125 293.513Z" stroke="#AA5507" stroke-opacity="0.12" stroke-width="0.547833" stroke-linecap="round" stroke-linejoin="round"/>
<path d="M94.6877 93.3586C95.0617 93.3383 95.4183 93.5193 95.6227 93.8331L105.457 108.923C105.662 109.237 105.684 109.636 105.514 109.97L97.3629 126.032C97.1934 126.366 96.8585 126.585 96.4845 126.605L78.4986 127.577C78.1246 127.597 77.768 127.416 77.5636 127.102L67.7289 112.012C67.5244 111.698 67.5028 111.299 67.6723 110.965L75.8235 94.9031C75.993 94.569 76.3278 94.3508 76.7019 94.3306L94.6877 93.3586Z" stroke="#AA5507" stroke-opacity="0.15" stroke-width="0.547833" stroke-linecap="round" stroke-linejoin="round"/>
<path d="M16.0533 248.311C16.4273 248.291 16.7839 248.472 16.9883 248.786L26.8231 263.876C27.0275 264.19 27.0492 264.589 26.8797 264.923L18.7285 280.985C18.559 281.319 18.2241 281.537 17.8501 281.558L-0.135807 282.53C-0.509813 282.55 -0.866364 282.369 -1.07082 282.055L-10.9055 266.965C-11.11 266.651 -11.1316 266.252 -10.9621 265.918L-2.81093 249.856C-2.64141 249.522 -2.30655 249.303 -1.9325 249.283L16.0533 248.311Z" stroke="#AA5507" stroke-opacity="0.15" stroke-width="0.547833" stroke-linecap="round" stroke-linejoin="round"/>
<path d="M150.568 56.8166C150.942 56.7964 151.298 56.9773 151.503 57.2911L161.337 72.3813C161.542 72.6951 161.563 73.0943 161.394 73.4283L153.243 89.4905C153.073 89.8245 152.738 90.0427 152.364 90.063L134.378 91.035C134.004 91.0553 133.648 90.8743 133.443 90.5605L123.609 75.4703C123.404 75.1564 123.383 74.7573 123.552 74.4233L131.703 58.3611C131.873 58.0271 132.208 57.8088 132.582 57.7886L150.568 56.8166Z" stroke="#AA5507" stroke-opacity="0.15" stroke-width="0.547833" stroke-linecap="round" stroke-linejoin="round"/>
<path d="M71.9331 211.769C72.3071 211.749 72.6636 211.93 72.8681 212.244L82.7028 227.334C82.9073 227.648 82.9289 228.047 82.7594 228.381L74.6083 244.443C74.4388 244.777 74.1038 244.995 73.7298 245.016L55.744 245.988C55.3699 246.008 55.0134 245.827 54.8089 245.513L44.9743 230.423C44.7697 230.109 44.7482 229.71 44.9177 229.376L53.0688 213.314C53.2383 212.98 53.5732 212.761 53.9473 212.741L71.9331 211.769Z" stroke="#AA5507" stroke-opacity="0.15" stroke-width="0.547833" stroke-linecap="round" stroke-linejoin="round"/>
<path d="M239.592 102.111C239.966 102.091 240.323 102.272 240.527 102.586L250.362 117.676C250.566 117.99 250.588 118.389 250.419 118.723L242.267 134.785C242.098 135.119 241.763 135.337 241.389 135.358L223.403 136.33C223.029 136.35 222.673 136.169 222.468 135.855L212.633 120.765C212.429 120.451 212.407 120.052 212.577 119.718L220.728 103.656C220.898 103.322 221.232 103.103 221.606 103.083L239.592 102.111Z" stroke="#AA5507" stroke-opacity="0.15" stroke-width="0.547833" stroke-linecap="round" stroke-linejoin="round"/>
<path d="M160.958 257.064C161.332 257.044 161.688 257.224 161.893 257.538L171.727 272.628C171.932 272.942 171.954 273.341 171.784 273.675L163.633 289.738C163.463 290.072 163.128 290.29 162.754 290.31L144.769 291.282C144.395 291.302 144.038 291.121 143.834 290.808L133.999 275.717C133.794 275.404 133.773 275.004 133.942 274.67L142.093 258.608C142.263 258.274 142.598 258.056 142.972 258.036L160.958 257.064Z" stroke="#AA5507" stroke-opacity="0.12" stroke-width="0.547833" stroke-linecap="round" stroke-linejoin="round"/>
<path d="M328.711 147.22C329.085 147.2 329.442 147.381 329.646 147.694L339.481 162.785C339.685 163.098 339.707 163.498 339.537 163.832L331.386 179.894C331.217 180.228 330.882 180.446 330.508 180.466L312.522 181.438C312.148 181.459 311.791 181.278 311.587 180.964L301.752 165.874C301.548 165.56 301.526 165.161 301.696 164.827L309.847 148.764C310.016 148.43 310.351 148.212 310.725 148.192L328.711 147.22Z" stroke="#AA5507" stroke-opacity="0.15" stroke-width="0.547833" stroke-linecap="round" stroke-linejoin="round"/>
<path d="M250.077 302.172C250.451 302.152 250.807 302.333 251.012 302.647L260.846 317.737C261.051 318.051 261.072 318.45 260.903 318.784L252.752 334.846C252.582 335.18 252.247 335.399 251.873 335.419L233.888 336.391C233.514 336.411 233.157 336.23 232.952 335.916L223.118 320.826C222.913 320.512 222.892 320.113 223.061 319.779L231.212 303.717C231.382 303.383 231.717 303.165 232.091 303.144L250.077 302.172Z" stroke="#AA5507" stroke-opacity="0.12" stroke-width="0.547833" stroke-linecap="round" stroke-linejoin="round"/>
<path d="M339.148 347.374C339.522 347.354 339.879 347.535 340.083 347.849L349.918 362.939C350.123 363.253 350.144 363.652 349.975 363.986L341.824 380.048C341.654 380.382 341.319 380.6 340.945 380.621L322.959 381.593C322.585 381.613 322.229 381.432 322.024 381.118L312.19 366.028C311.985 365.714 311.964 365.315 312.133 364.981L320.284 348.919C320.454 348.585 320.789 348.366 321.163 348.346L339.148 347.374Z" stroke="#AA5507" stroke-opacity="0.12" stroke-width="0.547833" stroke-linecap="round" stroke-linejoin="round"/>
<path d="M363.636 262.333C364.01 262.312 364.367 262.493 364.571 262.807L374.406 277.897C374.611 278.211 374.632 278.61 374.463 278.944L366.312 295.007C366.142 295.341 365.807 295.559 365.433 295.579L347.447 296.551C347.073 296.571 346.717 296.39 346.512 296.077L336.678 280.986C336.473 280.673 336.451 280.273 336.621 279.939L344.772 263.877C344.942 263.543 345.276 263.325 345.651 263.305L363.636 262.333Z" stroke="#AA5507" stroke-opacity="0.12" stroke-width="0.547833" stroke-linecap="round" stroke-linejoin="round"/>
<path d="M285.002 417.285C285.376 417.265 285.732 417.446 285.937 417.76L295.772 432.85C295.976 433.164 295.998 433.563 295.828 433.897L287.677 449.959C287.508 450.293 287.173 450.511 286.799 450.532L268.813 451.504C268.439 451.524 268.082 451.343 267.878 451.029L258.043 435.939C257.839 435.625 257.817 435.226 257.987 434.892L266.138 418.83C266.307 418.496 266.642 418.277 267.016 418.257L285.002 417.285Z" stroke="#AA5507" stroke-opacity="0.08" stroke-width="0.547833" stroke-linecap="round" stroke-linejoin="round"/>
<path d="M274.517 217.224C274.891 217.204 275.248 217.385 275.452 217.699L285.287 232.789C285.492 233.103 285.513 233.502 285.344 233.836L277.193 249.898C277.023 250.232 276.688 250.45 276.314 250.47L258.328 251.442C257.954 251.463 257.598 251.282 257.393 250.968L247.559 235.878C247.354 235.564 247.333 235.165 247.502 234.831L255.653 218.768C255.823 218.434 256.158 218.216 256.532 218.196L274.517 217.224Z" stroke="#AA5507" stroke-opacity="0.15" stroke-width="0.547833" stroke-linecap="round" stroke-linejoin="round"/>
<path d="M195.883 372.177C196.257 372.156 196.614 372.337 196.818 372.651L206.653 387.741C206.857 388.055 206.879 388.454 206.709 388.788L198.558 404.85C198.389 405.184 198.054 405.403 197.68 405.423L179.694 406.395C179.32 406.415 178.963 406.234 178.759 405.92L168.924 390.83C168.72 390.516 168.698 390.117 168.868 389.783L177.019 373.721C177.188 373.387 177.523 373.169 177.897 373.149L195.883 372.177Z" stroke="#AA5507" stroke-opacity="0.08" stroke-width="0.547833" stroke-linecap="round" stroke-linejoin="round"/>
<path d="M185.493 171.93C185.867 171.909 186.224 172.09 186.428 172.404L196.263 187.494C196.467 187.808 196.489 188.207 196.32 188.541L188.168 204.604C187.999 204.937 187.664 205.156 187.29 205.176L169.304 206.148C168.93 206.168 168.574 205.987 168.369 205.674L158.534 190.583C158.33 190.269 158.308 189.87 158.478 189.536L166.629 173.474C166.799 173.14 167.133 172.922 167.507 172.902L185.493 171.93Z" stroke="#AA5507" stroke-opacity="0.15" stroke-width="0.547833" stroke-linecap="round" stroke-linejoin="round"/>
<path d="M106.859 326.882C107.233 326.862 107.589 327.043 107.794 327.357L117.628 342.447C117.833 342.761 117.855 343.16 117.685 343.494L109.534 359.556C109.364 359.89 109.029 360.108 108.655 360.129L90.6696 361.101C90.2956 361.121 89.9391 360.94 89.7346 360.626L79.8999 345.536C79.6954 345.222 79.6739 344.823 79.8433 344.489L87.9945 328.427C88.164 328.093 88.4989 327.874 88.8729 327.854L106.859 326.882Z" stroke="#AA5507" stroke-opacity="0.12" stroke-width="0.547833" stroke-linecap="round" stroke-linejoin="round"/>
<path d="M96.422 126.728C96.796 126.708 97.1525 126.889 97.357 127.203L107.192 142.293C107.396 142.607 107.418 143.006 107.248 143.34L99.0971 159.402C98.9277 159.736 98.5927 159.954 98.2187 159.975L80.2328 160.947C79.8588 160.967 79.5023 160.786 79.2978 160.472L69.4632 145.382C69.2586 145.068 69.2371 144.669 69.4066 144.335L77.5577 128.273C77.7272 127.939 78.0621 127.72 78.4362 127.7L96.422 126.728Z" stroke="#AA5507" stroke-opacity="0.15" stroke-width="0.547833" stroke-linecap="round" stroke-linejoin="round"/>
<path d="M17.7875 281.681C18.1615 281.661 18.518 281.842 18.7225 282.155L28.5572 297.246C28.7617 297.559 28.7833 297.958 28.6138 298.293L20.4626 314.355C20.2931 314.689 19.9582 314.907 19.5842 314.927L1.59832 315.899C1.22432 315.919 0.867767 315.739 0.663313 315.425L-9.17137 300.334C-9.37589 300.021 -9.39744 299.621 -9.22796 299.288L-1.0768 283.225C-0.90728 282.891 -0.572421 282.673 -0.198369 282.653L17.7875 281.681Z" stroke="#AA5507" stroke-opacity="0.15" stroke-width="0.547833" stroke-linecap="round" stroke-linejoin="round"/>
<path d="M122.706 74.9331C123.08 74.9129 123.436 75.0938 123.641 75.4076L133.475 90.4979C133.68 90.8116 133.701 91.2108 133.532 91.5448L125.381 107.607C125.211 107.941 124.876 108.159 124.502 108.18L106.516 109.152C106.142 109.172 105.786 108.991 105.581 108.677L95.7467 93.5868C95.5422 93.2729 95.5207 92.8738 95.6901 92.5398L103.841 76.4776C104.011 76.1436 104.346 75.9253 104.72 75.9051L122.706 74.9331Z" stroke="#AA5507" stroke-opacity="0.15" stroke-width="0.547833" stroke-linecap="round" stroke-linejoin="round"/>
<path d="M44.071 229.886C44.445 229.865 44.8016 230.046 45.006 230.36L54.8408 245.45C55.0452 245.764 55.0669 246.163 54.8974 246.497L46.7462 262.56C46.5767 262.894 46.2418 263.112 45.8678 263.132L27.8819 264.104C27.5079 264.124 27.1513 263.943 26.9469 263.63L17.1122 248.539C16.9077 248.225 16.8861 247.826 17.0556 247.492L25.2068 231.43C25.3763 231.096 25.7111 230.878 26.0852 230.858L44.071 229.886Z" stroke="#AA5507" stroke-opacity="0.15" stroke-width="0.547833" stroke-linecap="round" stroke-linejoin="round"/>
<path d="M211.73 120.228C212.104 120.207 212.461 120.388 212.665 120.702L222.5 135.792C222.704 136.106 222.726 136.505 222.556 136.839L214.405 152.902C214.236 153.236 213.901 153.454 213.527 153.474L195.541 154.446C195.167 154.466 194.81 154.285 194.606 153.972L184.771 138.881C184.567 138.568 184.545 138.168 184.715 137.834L192.866 121.772C193.035 121.438 193.37 121.22 193.744 121.2L211.73 120.228Z" stroke="#AA5507" stroke-opacity="0.15" stroke-width="0.547833" stroke-linecap="round" stroke-linejoin="round"/>
<path d="M133.096 275.18C133.47 275.16 133.826 275.341 134.031 275.655L143.865 290.745C144.07 291.059 144.092 291.458 143.922 291.792L135.771 307.854C135.601 308.188 135.266 308.406 134.892 308.427L116.907 309.399C116.533 309.419 116.176 309.238 115.972 308.924L106.137 293.834C105.932 293.52 105.911 293.121 106.08 292.787L114.231 276.725C114.401 276.391 114.736 276.173 115.11 276.152L133.096 275.18Z" stroke="#AA5507" stroke-opacity="0.12" stroke-width="0.547833" stroke-linecap="round" stroke-linejoin="round"/>
<path d="M300.849 165.336C301.223 165.316 301.58 165.497 301.784 165.811L311.619 180.901C311.823 181.215 311.845 181.614 311.675 181.948L303.524 198.01C303.355 198.344 303.02 198.563 302.646 198.583L284.66 199.555C284.286 199.575 283.929 199.394 283.725 199.08L273.89 183.99C273.686 183.676 273.664 183.277 273.834 182.943L281.985 166.881C282.154 166.547 282.489 166.329 282.863 166.308L300.849 165.336Z" stroke="#AA5507" stroke-opacity="0.15" stroke-width="0.547833" stroke-linecap="round" stroke-linejoin="round"/>
<path d="M222.215 320.289C222.589 320.269 222.945 320.45 223.15 320.764L232.984 335.854C233.189 336.168 233.21 336.567 233.041 336.901L224.89 352.963C224.72 353.297 224.385 353.515 224.011 353.535L206.025 354.507C205.651 354.528 205.295 354.347 205.09 354.033L195.256 338.943C195.051 338.629 195.03 338.23 195.199 337.896L203.35 321.834C203.52 321.499 203.855 321.281 204.229 321.261L222.215 320.289Z" stroke="#AA5507" stroke-opacity="0.12" stroke-width="0.547833" stroke-linecap="round" stroke-linejoin="round"/>
<path d="M389.921 210.538C390.295 210.518 390.651 210.699 390.856 211.013L400.691 226.103C400.895 226.417 400.917 226.816 400.747 227.15L392.596 243.212C392.427 243.546 392.092 243.764 391.718 243.784L373.732 244.756C373.358 244.777 373.001 244.596 372.797 244.282L362.962 229.192C362.758 228.878 362.736 228.479 362.905 228.145L371.057 212.083C371.226 211.749 371.561 211.53 371.935 211.51L389.921 210.538Z" stroke="#AA5507" stroke-opacity="0.15" stroke-width="0.547833" stroke-linecap="round" stroke-linejoin="round"/>
<path d="M311.286 365.491C311.66 365.47 312.017 365.651 312.221 365.965L322.056 381.055C322.261 381.369 322.282 381.768 322.113 382.102L313.962 398.165C313.792 398.499 313.457 398.717 313.083 398.737L295.097 399.709C294.723 399.729 294.367 399.548 294.162 399.235L284.328 384.144C284.123 383.83 284.101 383.431 284.271 383.097L292.422 367.035C292.592 366.701 292.926 366.483 293.301 366.463L311.286 365.491Z" stroke="#AA5507" stroke-opacity="0.12" stroke-width="0.547833" stroke-linecap="round" stroke-linejoin="round"/>
<path d="M335.774 280.449C336.148 280.429 336.505 280.61 336.709 280.924L346.544 296.014C346.748 296.328 346.77 296.727 346.601 297.061L338.449 313.123C338.28 313.457 337.945 313.675 337.571 313.696L319.585 314.668C319.211 314.688 318.855 314.507 318.65 314.193L308.815 299.103C308.611 298.789 308.589 298.39 308.759 298.056L316.91 281.994C317.08 281.66 317.414 281.441 317.788 281.421L335.774 280.449Z" stroke="#AA5507" stroke-opacity="0.12" stroke-width="0.547833" stroke-linecap="round" stroke-linejoin="round"/>
<path d="M257.14 435.402C257.514 435.382 257.87 435.563 258.075 435.876L267.91 450.967C268.114 451.28 268.136 451.679 267.966 452.014L259.815 468.076C259.646 468.41 259.311 468.628 258.937 468.648L240.951 469.62C240.577 469.64 240.22 469.46 240.016 469.146L230.181 454.055C229.977 453.742 229.955 453.342 230.124 453.009L238.276 436.946C238.445 436.612 238.78 436.394 239.154 436.374L257.14 435.402Z" stroke="#AA5507" stroke-opacity="0.08" stroke-width="0.547833" stroke-linecap="round" stroke-linejoin="round"/>
<path d="M246.655 235.341C247.029 235.32 247.386 235.501 247.59 235.815L257.425 250.905C257.63 251.219 257.651 251.618 257.482 251.952L249.331 268.014C249.161 268.348 248.826 268.567 248.452 268.587L230.466 269.559C230.092 269.579 229.736 269.398 229.531 269.084L219.697 253.994C219.492 253.68 219.47 253.281 219.64 252.947L227.791 236.885C227.961 236.551 228.295 236.333 228.67 236.312L246.655 235.341Z" stroke="#AA5507" stroke-opacity="0.15" stroke-width="0.547833" stroke-linecap="round" stroke-linejoin="round"/>
<path d="M168.021 390.293C168.395 390.273 168.751 390.454 168.956 390.768L178.791 405.858C178.995 406.172 179.017 406.571 178.847 406.905L170.696 422.967C170.527 423.301 170.192 423.519 169.818 423.539L151.832 424.511C151.458 424.532 151.101 424.351 150.897 424.037L141.062 408.947C140.858 408.633 140.836 408.234 141.005 407.9L149.157 391.838C149.326 391.504 149.661 391.285 150.035 391.265L168.021 390.293Z" stroke="#AA5507" stroke-opacity="0.08" stroke-width="0.547833" stroke-linecap="round" stroke-linejoin="round"/>
<path d="M157.631 190.046C158.005 190.026 158.362 190.207 158.566 190.521L168.401 205.611C168.605 205.925 168.627 206.324 168.458 206.658L160.306 222.72C160.137 223.054 159.802 223.272 159.428 223.293L141.442 224.265C141.068 224.285 140.712 224.104 140.507 223.79L130.672 208.7C130.468 208.386 130.446 207.987 130.616 207.653L138.767 191.591C138.936 191.257 139.271 191.038 139.645 191.018L157.631 190.046Z" stroke="#AA5507" stroke-opacity="0.15" stroke-width="0.547833" stroke-linecap="round" stroke-linejoin="round"/>
<path d="M78.9967 344.999C79.3707 344.978 79.7272 345.159 79.9317 345.473L89.7664 360.563C89.9709 360.877 89.9925 361.276 89.823 361.61L81.6719 377.673C81.5024 378.007 81.1674 378.225 80.7934 378.245L62.8076 379.217C62.4335 379.237 62.077 379.056 61.8725 378.743L52.0379 363.652C51.8333 363.339 51.8118 362.939 51.9813 362.605L60.1324 346.543C60.3019 346.209 60.6368 345.991 61.0109 345.971L78.9967 344.999Z" stroke="#AA5507" stroke-opacity="0.12" stroke-width="0.547833" stroke-linecap="round" stroke-linejoin="round"/>
<path d="M68.5599 144.845C68.9339 144.824 69.2905 145.005 69.4949 145.319L79.3297 160.409C79.5341 160.723 79.5558 161.122 79.3862 161.456L71.2351 177.519C71.0656 177.853 70.7307 178.071 70.3567 178.091L52.3708 179.063C51.9968 179.083 51.6402 178.902 51.4358 178.589L41.6011 163.498C41.3966 163.185 41.375 162.785 41.5445 162.451L49.6957 146.389C49.8652 146.055 50.2 145.837 50.5741 145.817L68.5599 144.845Z" stroke="#AA5507" stroke-opacity="0.15" stroke-width="0.547833" stroke-linecap="round" stroke-linejoin="round"/>
<path d="M-10.0746 299.797C-9.7006 299.777 -9.34405 299.958 -9.13958 300.272L0.695139 315.362C0.899616 315.676 0.921247 316.075 0.751726 316.409L-7.39944 332.471C-7.56891 332.805 -7.90385 333.023 -8.27786 333.044L-26.2637 334.016C-26.6377 334.036 -26.9943 333.855 -27.1987 333.541L-37.0334 318.451C-37.2379 318.137 -37.2595 317.738 -37.09 317.404L-28.9389 301.342C-28.7693 301.008 -28.4345 300.789 -28.0604 300.769L-10.0746 299.797Z" stroke="#AA5507" stroke-opacity="0.15" stroke-width="0.547833" stroke-linecap="round" stroke-linejoin="round"/>
<path d="M93.015 59.8659C93.389 59.8457 93.7455 60.0266 93.95 60.3404L103.785 75.4306C103.989 75.7444 104.011 76.1436 103.841 76.4776L95.6902 92.5398C95.5207 92.8738 95.1857 93.092 94.8117 93.1123L76.8259 94.0843C76.4519 94.1046 76.0953 93.9236 75.8909 93.6098L66.0562 78.5196C65.8517 78.2057 65.8301 77.8066 65.9996 77.4726L74.1507 61.4104C74.3203 61.0764 74.6551 60.8581 75.0292 60.8379L93.015 59.8659Z" stroke="#AA5507" stroke-opacity="0.15" stroke-width="0.547833" stroke-linecap="round" stroke-linejoin="round"/>
<path d="M14.3805 214.818C14.7545 214.798 15.111 214.979 15.3155 215.293L25.1502 230.383C25.3547 230.697 25.3763 231.096 25.2068 231.43L17.0556 247.492C16.8862 247.826 16.5512 248.045 16.1772 248.065L-1.80866 249.037C-2.18266 249.057 -2.53922 248.876 -2.74367 248.562L-12.5784 233.472C-12.7829 233.158 -12.8044 232.759 -12.6349 232.425L-4.48378 216.363C-4.31426 216.029 -3.9794 215.811 -3.60535 215.79L14.3805 214.818Z" stroke="#AA5507" stroke-opacity="0.15" stroke-width="0.547833" stroke-linecap="round" stroke-linejoin="round"/>
<path d="M182.04 105.16C182.414 105.14 182.77 105.321 182.975 105.635L192.809 120.725C193.014 121.039 193.035 121.438 192.866 121.772L184.715 137.834C184.545 138.168 184.21 138.387 183.836 138.407L165.85 139.379C165.476 139.399 165.12 139.218 164.915 138.904L155.081 123.814C154.876 123.5 154.855 123.101 155.024 122.767L163.175 106.705C163.345 106.371 163.68 106.153 164.054 106.132L182.04 105.16Z" stroke="#AA5507" stroke-opacity="0.15" stroke-width="0.547833" stroke-linecap="round" stroke-linejoin="round"/>
<path d="M103.405 260.113C103.779 260.093 104.136 260.274 104.34 260.588L114.175 275.678C114.379 275.992 114.401 276.391 114.231 276.725L106.08 292.787C105.911 293.121 105.576 293.339 105.202 293.359L87.216 294.331C86.842 294.352 86.4854 294.171 86.281 293.857L76.4463 278.767C76.2418 278.453 76.2202 278.054 76.3897 277.72L84.5409 261.658C84.7104 261.324 85.0453 261.105 85.4193 261.085L103.405 260.113Z" stroke="#AA5507" stroke-opacity="0.12" stroke-width="0.547833" stroke-linecap="round" stroke-linejoin="round"/>
<path d="M271.158 150.269C271.532 150.249 271.889 150.43 272.093 150.744L281.928 165.834C282.133 166.148 282.154 166.547 281.985 166.881L273.834 182.943C273.664 183.277 273.329 183.495 272.955 183.516L254.969 184.488C254.595 184.508 254.239 184.327 254.034 184.013L244.2 168.923C243.995 168.609 243.974 168.21 244.143 167.876L252.294 151.814C252.464 151.48 252.799 151.261 253.173 151.241L271.158 150.269Z" stroke="#AA5507" stroke-opacity="0.15" stroke-width="0.547833" stroke-linecap="round" stroke-linejoin="round"/>
<path d="M192.524 305.222C192.898 305.202 193.255 305.382 193.459 305.696L203.294 320.787C203.498 321.1 203.52 321.499 203.35 321.833L195.199 337.896C195.03 338.23 194.695 338.448 194.321 338.468L176.335 339.44C175.961 339.46 175.604 339.28 175.4 338.966L165.565 323.875C165.361 323.562 165.339 323.162 165.509 322.828L173.66 306.766C173.829 306.432 174.164 306.214 174.538 306.194L192.524 305.222Z" stroke="#AA5507" stroke-opacity="0.12" stroke-width="0.547833" stroke-linecap="round" stroke-linejoin="round"/>
<path d="M360.23 195.471C360.604 195.451 360.961 195.632 361.165 195.945L371 211.036C371.204 211.349 371.226 211.749 371.057 212.083L362.905 228.145C362.736 228.479 362.401 228.697 362.027 228.717L344.041 229.689C343.667 229.71 343.311 229.529 343.106 229.215L333.271 214.125C333.067 213.811 333.045 213.412 333.215 213.078L341.366 197.015C341.535 196.681 341.87 196.463 342.244 196.443L360.23 195.471Z" stroke="#AA5507" stroke-opacity="0.15" stroke-width="0.547833" stroke-linecap="round" stroke-linejoin="round"/>
<path d="M281.596 350.423C281.97 350.403 282.326 350.584 282.531 350.898L292.366 365.988C292.57 366.302 292.592 366.701 292.422 367.035L284.271 383.097C284.101 383.431 283.767 383.65 283.393 383.67L265.407 384.642C265.033 384.662 264.676 384.481 264.472 384.167L254.637 369.077C254.432 368.763 254.411 368.364 254.58 368.03L262.732 351.968C262.901 351.634 263.236 351.416 263.61 351.395L281.596 350.423Z" stroke="#AA5507" stroke-opacity="0.12" stroke-width="0.547833" stroke-linecap="round" stroke-linejoin="round"/>
<path d="M306.084 265.382C306.458 265.362 306.814 265.543 307.019 265.857L316.854 280.947C317.058 281.261 317.08 281.66 316.91 281.994L308.759 298.056C308.589 298.39 308.255 298.608 307.881 298.628L289.895 299.6C289.521 299.621 289.164 299.44 288.96 299.126L279.125 284.036C278.92 283.722 278.899 283.323 279.068 282.989L287.22 266.927C287.389 266.593 287.724 266.374 288.098 266.354L306.084 265.382Z" stroke="#AA5507" stroke-opacity="0.12" stroke-width="0.547833" stroke-linecap="round" stroke-linejoin="round"/>
<path d="M227.449 420.335C227.823 420.314 228.18 420.495 228.384 420.809L238.219 435.899C238.423 436.213 238.445 436.612 238.276 436.946L230.124 453.008C229.955 453.342 229.62 453.561 229.246 453.581L211.26 454.553C210.886 454.573 210.53 454.392 210.325 454.078L200.49 438.988C200.286 438.674 200.264 438.275 200.434 437.941L208.585 421.879C208.754 421.545 209.089 421.327 209.463 421.307L227.449 420.335Z" stroke="#AA5507" stroke-opacity="0.08" stroke-width="0.547833" stroke-linecap="round" stroke-linejoin="round"/>
<path d="M216.965 220.273C217.339 220.253 217.695 220.434 217.9 220.748L227.735 235.838C227.939 236.152 227.961 236.551 227.791 236.885L219.64 252.947C219.471 253.281 219.136 253.499 218.762 253.52L200.776 254.492C200.402 254.512 200.045 254.331 199.841 254.017L190.006 238.927C189.801 238.613 189.78 238.214 189.949 237.88L198.101 221.818C198.27 221.484 198.605 221.265 198.979 221.245L216.965 220.273Z" stroke="#AA5507" stroke-opacity="0.15" stroke-width="0.547833" stroke-linecap="round" stroke-linejoin="round"/>
<path d="M138.33 375.226C138.704 375.206 139.061 375.387 139.265 375.7L149.1 390.791C149.305 391.104 149.326 391.504 149.157 391.838L141.005 407.9C140.836 408.234 140.501 408.452 140.127 408.472L122.141 409.444C121.767 409.465 121.411 409.284 121.206 408.97L111.371 393.88C111.167 393.566 111.145 393.167 111.315 392.833L119.466 376.77C119.636 376.436 119.97 376.218 120.344 376.198L138.33 375.226Z" stroke="#AA5507" stroke-opacity="0.08" stroke-width="0.547833" stroke-linecap="round" stroke-linejoin="round"/>
<path d="M127.941 174.979C128.315 174.959 128.671 175.14 128.876 175.453L138.71 190.544C138.915 190.857 138.937 191.257 138.767 191.591L130.616 207.653C130.446 207.987 130.111 208.205 129.737 208.225L111.752 209.197C111.378 209.218 111.021 209.037 110.817 208.723L100.982 193.633C100.777 193.319 100.756 192.92 100.925 192.586L109.076 176.523C109.246 176.189 109.581 175.971 109.955 175.951L127.941 174.979Z" stroke="#AA5507" stroke-opacity="0.15" stroke-width="0.547833" stroke-linecap="round" stroke-linejoin="round"/>
<path d="M49.3062 329.931C49.6801 329.911 50.0367 330.092 50.2412 330.406L60.0759 345.496C60.2804 345.81 60.302 346.209 60.1325 346.543L51.9813 362.605C51.8118 362.939 51.4769 363.158 51.1029 363.178L33.117 364.15C32.743 364.17 32.3864 363.989 32.182 363.675L22.3473 348.585C22.1428 348.271 22.1212 347.872 22.2907 347.538L30.4419 331.476C30.6114 331.142 30.9463 330.924 31.3203 330.903L49.3062 329.931Z" stroke="#AA5507" stroke-opacity="0.12" stroke-width="0.547833" stroke-linecap="round" stroke-linejoin="round"/>
<path d="M38.8693 129.777C39.2432 129.757 39.5998 129.938 39.8043 130.252L49.639 145.342C49.8435 145.656 49.8651 146.055 49.6956 146.389L41.5444 162.451C41.3749 162.785 41.04 163.004 40.666 163.024L22.6801 163.996C22.3061 164.016 21.9496 163.835 21.7451 163.521L11.9104 148.431C11.7059 148.117 11.6843 147.718 11.8538 147.384L20.005 131.322C20.1745 130.988 20.5094 130.77 20.8834 130.749L38.8693 129.777Z" stroke="#AA5507" stroke-opacity="0.15" stroke-width="0.547833" stroke-linecap="round" stroke-linejoin="round"/>
</svg>
