<svg width="398" height="335" viewBox="0 0 398 335" fill="none" xmlns="http://www.w3.org/2000/svg">
<line y1="-0.25" x2="438.178" y2="-0.25" transform="matrix(0.866025 0.5 -0.995468 -0.0951008 17.2764 78.8872)" stroke="#7B7C81" stroke-opacity="0.61" stroke-width="0.5"/>
<line y1="-0.25" x2="438.178" y2="-0.25" transform="matrix(0.866025 0.5 -0.995468 -0.0951008 17.2764 92.7822)" stroke="#7B7C81" stroke-opacity="0.61" stroke-width="0.5"/>
<line y1="-0.25" x2="438.178" y2="-0.25" transform="matrix(0.866025 0.5 -0.995468 -0.0951008 17.2764 106.438)" stroke="#7B7C81" stroke-opacity="0.61" stroke-width="0.5"/>
<line y1="-0.25" x2="438.178" y2="-0.25" transform="matrix(0.866025 0.5 -0.995468 -0.0951008 17.2764 83.3667)" stroke="#7B7C81" stroke-opacity="0.61" stroke-width="0.5"/>
<line y1="-0.25" x2="438.178" y2="-0.25" transform="matrix(0.866025 0.5 -0.995468 -0.0951008 17.2764 97.2617)" stroke="#7B7C81" stroke-opacity="0.61" stroke-width="0.5"/>
<line y1="-0.25" x2="438.178" y2="-0.25" transform="matrix(0.866025 0.5 -0.995468 -0.0951008 17.2764 110.917)" stroke="#7B7C81" stroke-opacity="0.61" stroke-width="0.5"/>
<line y1="-0.25" x2="438.178" y2="-0.25" transform="matrix(0.866025 0.5 -0.995468 -0.0951008 17.2764 74.2842)" stroke="#7B7C81" stroke-opacity="0.61" stroke-width="0.5"/>
<line y1="-0.25" x2="438.178" y2="-0.25" transform="matrix(0.866025 0.5 -0.995468 -0.0951008 17.2764 87.9397)" stroke="#7B7C81" stroke-opacity="0.61" stroke-width="0.5"/>
<line y1="-0.25" x2="438.178" y2="-0.25" transform="matrix(0.866025 0.5 -0.995468 -0.0951008 17.2764 101.835)" stroke="#7B7C81" stroke-opacity="0.61" stroke-width="0.5"/>
<line y1="-0.25" x2="438.178" y2="-0.25" transform="matrix(0.866025 0.5 -0.995468 -0.0951008 17.2764 115.49)" stroke="#7B7C81" stroke-opacity="0.61" stroke-width="0.5"/>
<line y1="-0.25" x2="438.178" y2="-0.25" transform="matrix(0.866025 0.5 -0.995468 -0.0951008 17.2764 65.2317)" stroke="#7B7C81" stroke-opacity="0.61" stroke-width="0.5"/>
<line y1="-0.25" x2="438.178" y2="-0.25" transform="matrix(0.866025 0.5 -0.995468 -0.0951008 17.2764 69.7113)" stroke="#7B7C81" stroke-opacity="0.61" stroke-width="0.5"/>
<line y1="-0.25" x2="367.333" y2="-0.25" transform="matrix(0.866025 0.5 -0.999982 -0.00602897 0 13.6554)" stroke="#7B7C81" stroke-opacity="0.61" stroke-width="0.5"/>
<line y1="-0.25" x2="367.333" y2="-0.25" transform="matrix(0.866025 0.5 -0.999982 -0.00602897 0 27.5505)" stroke="#7B7C81" stroke-opacity="0.61" stroke-width="0.5"/>
<line y1="-0.25" x2="367.333" y2="-0.25" transform="matrix(0.866025 0.5 -0.999982 -0.00602897 0 41.2059)" stroke="#7B7C81" stroke-opacity="0.61" stroke-width="0.5"/>
<line y1="-0.25" x2="367.333" y2="-0.25" transform="matrix(0.866025 0.5 -0.999982 -0.00602897 0 18.135)" stroke="#7B7C81" stroke-opacity="0.61" stroke-width="0.5"/>
<line y1="-0.25" x2="367.333" y2="-0.25" transform="matrix(0.866025 0.5 -0.999982 -0.00602897 0 32.03)" stroke="#7B7C81" stroke-opacity="0.61" stroke-width="0.5"/>
<line y1="-0.25" x2="367.333" y2="-0.25" transform="matrix(0.866025 0.5 -0.999982 -0.00602897 0 45.6855)" stroke="#7B7C81" stroke-opacity="0.61" stroke-width="0.5"/>
<line y1="-0.25" x2="367.333" y2="-0.25" transform="matrix(0.866025 0.5 -0.999982 -0.00602897 0 9.05249)" stroke="#7B7C81" stroke-opacity="0.61" stroke-width="0.5"/>
<line y1="-0.25" x2="367.333" y2="-0.25" transform="matrix(0.866025 0.5 -0.999982 -0.00602897 0 22.708)" stroke="#7B7C81" stroke-opacity="0.61" stroke-width="0.5"/>
<line y1="-0.25" x2="367.333" y2="-0.25" transform="matrix(0.866025 0.5 -0.999982 -0.00602897 0 36.603)" stroke="#7B7C81" stroke-opacity="0.61" stroke-width="0.5"/>
<line y1="-0.25" x2="367.333" y2="-0.25" transform="matrix(0.866025 0.5 -0.999982 -0.00602897 0 50.2584)" stroke="#7B7C81" stroke-opacity="0.61" stroke-width="0.5"/>
<line y1="-0.25" x2="367.333" y2="-0.25" transform="matrix(0.866025 0.5 -0.999982 -0.00602897 0 0)" stroke="#7B7C81" stroke-opacity="0.61" stroke-width="0.5"/>
<line y1="-0.25" x2="367.333" y2="-0.25" transform="matrix(0.866025 0.5 -0.999982 -0.00602897 0 4.47961)" stroke="#7B7C81" stroke-opacity="0.61" stroke-width="0.5"/>
</svg>
